{"glyphs":{"0":{"ha":694,"x_min":47,"x_max":647,"o":"m 347 882 q 509 828 441 882 q 611 672 576 774 q 647 428 647 570 q 611 183 647 286 q 509 27 576 81 q 347 -26 441 -26 q 186 27 253 -26 q 83 183 119 81 q 47 428 47 286 q 83 672 47 570 q 186 828 119 774 q 347 882 253 882 m 347 757 q 266 718 300 757 q 214 605 232 679 q 196 428 196 531 q 201 324 196 375 l 469 642 q 419 727 450 698 q 347 757 388 757 m 347 98 q 429 138 395 98 q 480 251 463 177 q 498 428 498 325 q 492 538 498 489 l 223 218 q 274 129 242 160 q 347 98 305 98 z "},"1":{"ha":694,"x_min":104,"x_max":443,"o":"m 290 0 l 290 689 l 142 644 l 104 739 l 339 865 l 443 865 l 443 0 l 290 0 z "},"2":{"ha":694,"x_min":58,"x_max":616,"o":"m 79 114 q 320 351 247 275 q 431 494 393 428 q 469 629 469 560 q 435 716 469 684 q 342 749 400 749 q 275 741 307 749 q 221 721 243 732 q 194 699 199 709 q 167 646 167 650 q 168 645 167 645 q 172 648 169 646 q 177 650 174 650 q 180 648 179 651 l 172 634 l 161 640 l 58 718 q 181 842 109 799 q 345 885 254 885 q 484 853 422 885 q 580 763 545 821 q 615 631 615 705 q 580 489 615 557 q 489 357 545 421 q 322 184 432 294 l 267 129 l 549 129 q 582 131 572 129 q 601 141 593 134 l 616 141 l 616 0 l 79 0 l 79 114 z "},"3":{"ha":694,"x_min":52,"x_max":614,"o":"m 471 461 q 572 385 531 440 q 614 243 614 330 q 579 106 614 168 q 478 9 544 45 q 322 -26 412 -26 q 52 90 144 -26 l 116 220 l 117 220 l 117 219 q 197 134 148 160 q 323 109 246 109 q 423 147 387 109 q 458 249 458 185 q 419 353 458 319 q 288 387 380 387 q 215 383 255 387 l 215 509 q 244 508 225 508 q 393 543 351 508 q 435 639 435 577 q 405 720 435 689 q 322 751 376 751 q 236 735 275 751 q 153 679 196 719 l 65 768 q 180 856 115 827 q 321 885 246 885 q 461 855 400 885 q 557 772 523 825 q 591 654 591 720 q 556 534 591 585 q 471 461 520 484 m 117 220 q 114 229 114 226 q 115 231 114 231 q 121 229 117 231 l 117 220 m 136 222 q 136 221 136 221 q 129 224 134 221 q 121 229 123 227 l 121 231 l 136 224 l 136 222 z "},"4":{"ha":694,"x_min":47,"x_max":650,"o":"m 378 0 l 378 214 l 47 214 l 47 311 l 422 865 l 534 865 l 534 343 l 650 343 l 650 212 l 534 212 l 534 0 l 378 0 m 208 339 l 383 339 l 383 597 l 208 339 z "},"5":{"ha":694,"x_min":74,"x_max":640,"o":"m 370 581 q 513 545 452 581 q 607 441 574 509 q 640 279 640 373 q 605 120 640 189 q 505 12 570 51 q 353 -26 439 -26 q 74 138 161 -26 l 189 226 l 191 227 l 191 225 q 229 166 210 190 q 277 126 248 142 q 347 111 306 111 q 418 131 387 111 q 468 188 450 150 q 486 281 486 226 q 450 407 486 361 q 353 452 413 452 q 279 432 311 452 q 216 368 248 412 l 117 411 l 149 865 l 614 865 l 614 733 l 285 733 l 273 566 q 370 581 324 581 m 191 227 q 187 235 187 233 q 193 229 187 237 l 191 227 m 209 220 q 207 218 209 218 q 200 223 205 218 q 193 229 195 228 l 199 233 l 209 220 z "},"6":{"ha":694,"x_min":71,"x_max":631,"o":"m 370 576 q 501 538 441 576 q 596 433 561 500 q 631 281 631 366 q 594 125 631 195 q 496 14 558 55 q 359 -26 434 -26 q 205 28 271 -26 q 105 178 140 82 q 71 399 71 275 q 111 657 71 547 q 224 825 151 766 q 393 884 298 884 q 507 858 452 884 q 611 782 563 831 l 513 678 l 513 677 l 504 689 q 473 723 486 711 q 441 743 460 735 q 393 750 422 750 q 322 726 357 750 q 261 649 288 703 q 227 511 235 596 q 294 558 254 539 q 370 576 333 576 m 494 681 q 496 683 494 683 q 510 675 499 683 l 505 669 l 494 680 l 494 681 m 513 677 q 519 669 519 671 q 510 675 519 669 l 513 677 m 363 117 q 420 136 395 117 q 461 192 446 155 q 476 281 476 229 q 459 368 476 332 q 416 421 442 404 q 361 439 389 439 q 288 416 323 439 q 229 355 252 393 q 247 228 229 282 q 294 145 264 174 q 363 117 324 117 z "},"7":{"ha":694,"x_min":92,"x_max":612,"o":"m 158 0 q 294 391 230 214 q 425 729 358 568 l 92 729 l 92 865 l 612 865 l 612 786 q 326 0 463 445 l 158 0 z "},"8":{"ha":694,"x_min":58,"x_max":637,"o":"m 347 -26 q 200 7 267 -26 q 96 98 134 41 q 58 225 58 156 q 102 356 58 293 q 218 460 146 420 q 132 547 165 495 q 98 654 98 600 q 133 771 98 718 q 227 856 168 825 q 355 888 286 888 q 484 857 426 888 q 575 775 542 827 q 608 663 608 723 q 573 554 608 608 q 482 464 537 500 q 594 362 551 425 q 637 229 637 299 q 599 100 637 158 q 494 7 560 41 q 347 -26 427 -26 m 370 528 q 429 587 406 553 q 452 659 452 622 q 438 704 452 683 q 401 739 425 726 q 351 751 378 751 q 302 739 324 751 q 268 706 280 727 q 256 661 256 686 q 370 528 256 587 m 350 114 q 413 130 385 114 q 457 172 441 145 q 473 231 473 198 q 435 323 473 280 q 332 390 396 367 q 253 323 283 365 q 222 235 222 282 q 240 175 222 203 q 287 131 257 147 q 350 114 316 114 z "},"9":{"ha":694,"x_min":58,"x_max":618,"o":"m 350 884 q 550 778 481 884 q 618 458 618 673 q 321 -26 618 -26 q 185 -1 252 -26 q 64 77 118 25 l 157 181 l 158 182 l 159 180 q 232 129 195 144 q 313 113 269 113 q 398 136 367 113 q 444 210 429 159 q 465 347 459 260 q 318 281 403 281 q 193 319 253 281 q 96 427 133 358 q 58 581 58 495 q 96 734 58 665 q 199 844 133 804 q 350 884 266 884 m 339 418 q 417 443 389 418 q 468 517 445 467 q 453 657 466 608 q 415 726 439 707 q 353 745 391 745 q 250 699 287 745 q 212 571 212 654 q 245 456 212 494 q 339 418 278 418 m 177 179 q 174 176 177 176 q 159 184 172 176 l 165 190 l 177 180 l 177 179 m 158 182 q 154 186 155 184 q 152 189 152 188 q 159 184 152 189 l 158 182 z "},"\u0000":{"ha":0,"x_min":0,"x_max":0,"o":""},"\r":{"ha":694,"x_min":0,"x_max":0,"o":""}," ":{"ha":694,"x_min":0,"x_max":0,"o":""},"A":{"ha":694,"x_min":14,"x_max":682,"o":"m 519 0 l 458 224 l 237 224 l 174 0 l 14 0 l 302 865 l 393 865 l 682 0 l 519 0 m 267 332 l 428 332 l 349 619 l 267 332 z "},"Á":{"ha":694,"x_min":14,"x_max":682,"o":"m 519 0 l 458 224 l 237 224 l 174 0 l 14 0 l 302 865 l 393 865 l 682 0 l 519 0 m 267 332 l 428 332 l 349 619 l 267 332 m 241 908 l 214 958 l 427 1116 l 492 996 l 241 908 z "},"Ă":{"ha":694,"x_min":14,"x_max":682,"o":"m 519 0 l 458 224 l 237 224 l 174 0 l 14 0 l 302 865 l 393 865 l 682 0 l 519 0 m 267 332 l 428 332 l 349 619 l 267 332 m 559 1092 q 471 982 525 1020 q 349 944 417 944 q 227 982 280 944 q 139 1092 173 1020 l 236 1136 q 284 1058 256 1082 q 349 1034 311 1034 q 413 1058 387 1034 q 461 1136 440 1082 l 559 1092 z "},"Ắ":{"ha":694,"x_min":14,"x_max":682,"o":"m 519 0 l 458 224 l 237 224 l 174 0 l 14 0 l 302 865 l 393 865 l 682 0 l 519 0 m 267 332 l 428 332 l 349 619 l 267 332 m 559 1092 q 471 982 525 1020 q 349 944 417 944 q 227 982 280 944 q 139 1092 173 1020 l 236 1136 q 284 1058 256 1082 q 349 1034 311 1034 q 413 1058 387 1034 q 461 1136 440 1082 l 559 1092 m 281 1123 l 254 1173 l 467 1331 l 532 1211 l 281 1123 z "},"Ặ":{"ha":694,"x_min":14,"x_max":682,"o":"m 519 0 l 458 224 l 237 224 l 174 0 l 14 0 l 302 865 l 393 865 l 682 0 l 519 0 m 267 332 l 428 332 l 349 619 l 267 332 m 356 -250 q 295 -225 320 -250 q 271 -164 271 -200 q 282 -122 271 -142 q 313 -92 294 -103 q 356 -81 333 -81 q 398 -92 378 -81 q 428 -122 417 -103 q 439 -164 439 -142 q 428 -208 439 -188 q 398 -238 417 -227 q 356 -250 378 -250 m 559 1092 q 471 982 525 1020 q 349 944 417 944 q 227 982 280 944 q 139 1092 173 1020 l 236 1136 q 284 1058 256 1082 q 349 1034 311 1034 q 413 1058 387 1034 q 461 1136 440 1082 l 559 1092 z "},"Ằ":{"ha":694,"x_min":14,"x_max":682,"o":"m 519 0 l 458 224 l 237 224 l 174 0 l 14 0 l 302 865 l 393 865 l 682 0 l 519 0 m 267 332 l 428 332 l 349 619 l 267 332 m 559 1092 q 471 982 525 1020 q 349 944 417 944 q 227 982 280 944 q 139 1092 173 1020 l 236 1136 q 284 1058 256 1082 q 349 1034 311 1034 q 413 1058 387 1034 q 461 1136 440 1082 l 559 1092 m 370 1123 l 121 1211 l 186 1331 l 398 1173 l 370 1123 z "},"Ẳ":{"ha":694,"x_min":14,"x_max":682,"o":"m 519 0 l 458 224 l 237 224 l 174 0 l 14 0 l 302 865 l 393 865 l 682 0 l 519 0 m 267 332 l 428 332 l 349 619 l 267 332 m 559 1092 q 471 982 525 1020 q 349 944 417 944 q 227 982 280 944 q 139 1092 173 1020 l 236 1136 q 284 1058 256 1082 q 349 1034 311 1034 q 413 1058 387 1034 q 461 1136 440 1082 l 559 1092 m 482 1263 q 473 1219 482 1238 q 453 1190 465 1201 q 421 1164 441 1178 q 396 1143 404 1152 q 388 1124 388 1135 l 388 1100 l 293 1100 l 293 1139 q 304 1165 293 1153 q 338 1196 315 1177 q 375 1230 362 1215 q 388 1263 388 1244 q 374 1297 388 1285 q 339 1308 360 1308 q 288 1292 313 1308 q 250 1247 262 1276 l 200 1326 q 262 1374 226 1358 q 338 1390 299 1390 q 410 1375 377 1390 q 463 1330 443 1359 q 482 1263 482 1301 z "},"Ẵ":{"ha":694,"x_min":14,"x_max":682,"o":"m 519 0 l 458 224 l 237 224 l 174 0 l 14 0 l 302 865 l 393 865 l 682 0 l 519 0 m 267 332 l 428 332 l 349 619 l 267 332 m 559 1092 q 471 982 525 1020 q 349 944 417 944 q 227 982 280 944 q 139 1092 173 1020 l 236 1136 q 284 1058 256 1082 q 349 1034 311 1034 q 413 1058 387 1034 q 461 1136 440 1082 l 559 1092 m 553 1275 q 508 1195 536 1219 q 450 1171 480 1171 q 386 1185 413 1171 q 329 1227 359 1200 q 292 1256 307 1247 q 261 1265 277 1265 q 215 1245 233 1265 q 191 1183 197 1225 l 117 1202 q 166 1306 128 1270 q 260 1343 204 1343 q 316 1329 292 1343 q 368 1290 340 1315 q 402 1263 389 1272 q 431 1254 416 1254 q 465 1271 451 1254 q 485 1314 479 1287 l 553 1275 z "},"Â":{"ha":694,"x_min":14,"x_max":682,"o":"m 519 0 l 458 224 l 237 224 l 174 0 l 14 0 l 302 865 l 393 865 l 682 0 l 519 0 m 267 332 l 428 332 l 349 619 l 267 332 m 153 901 l 103 961 l 326 1111 l 370 1111 l 589 964 l 536 901 l 349 993 l 153 901 z "},"Ấ":{"ha":694,"x_min":14,"x_max":774,"o":"m 519 0 l 458 224 l 237 224 l 174 0 l 14 0 l 302 865 l 393 865 l 682 0 l 519 0 m 267 332 l 428 332 l 349 619 l 267 332 m 149 901 l 99 961 l 322 1111 l 366 1111 l 585 964 l 532 901 l 345 993 l 149 901 m 524 1075 l 496 1125 l 709 1282 l 774 1162 l 524 1075 z "},"Ậ":{"ha":694,"x_min":14,"x_max":682,"o":"m 519 0 l 458 224 l 237 224 l 174 0 l 14 0 l 302 865 l 393 865 l 682 0 l 519 0 m 267 332 l 428 332 l 349 619 l 267 332 m 356 -250 q 295 -225 320 -250 q 271 -164 271 -200 q 282 -122 271 -142 q 313 -92 294 -103 q 356 -81 333 -81 q 398 -92 378 -81 q 428 -122 417 -103 q 439 -164 439 -142 q 428 -208 439 -188 q 398 -238 417 -227 q 356 -250 378 -250 m 153 901 l 103 961 l 326 1111 l 370 1111 l 589 964 l 536 901 l 349 993 l 153 901 z "},"Ầ":{"ha":694,"x_min":14,"x_max":682,"o":"m 519 0 l 458 224 l 237 224 l 174 0 l 14 0 l 302 865 l 393 865 l 682 0 l 519 0 m 267 332 l 428 332 l 349 619 l 267 332 m 155 901 l 106 961 l 329 1111 l 372 1111 l 591 964 l 539 901 l 351 993 l 155 901 m 501 1133 l 252 1221 l 317 1341 l 529 1183 l 501 1133 z "},"Ẩ":{"ha":694,"x_min":14,"x_max":696,"o":"m 519 0 l 458 224 l 237 224 l 174 0 l 14 0 l 302 865 l 393 865 l 682 0 l 519 0 m 267 332 l 428 332 l 349 619 l 267 332 m 150 901 l 100 961 l 323 1111 l 367 1111 l 586 964 l 534 901 l 346 993 l 150 901 m 696 1211 q 687 1168 696 1186 q 666 1138 678 1149 q 635 1112 654 1126 q 610 1092 618 1100 q 602 1072 602 1083 l 602 1048 l 507 1048 l 507 1087 q 517 1114 507 1101 q 551 1144 528 1126 q 589 1178 576 1163 q 602 1211 602 1193 q 588 1245 602 1234 q 553 1257 574 1257 q 501 1240 526 1257 q 464 1196 476 1224 l 414 1275 q 476 1323 439 1307 q 551 1339 513 1339 q 624 1323 591 1339 q 676 1278 656 1308 q 696 1211 696 1249 z "},"Ẫ":{"ha":694,"x_min":14,"x_max":682,"o":"m 519 0 l 458 224 l 237 224 l 174 0 l 14 0 l 302 865 l 393 865 l 682 0 l 519 0 m 267 332 l 428 332 l 349 619 l 267 332 m 153 901 l 103 961 l 326 1111 l 370 1111 l 589 964 l 536 901 l 349 993 l 153 901 m 568 1238 q 524 1158 552 1182 q 466 1133 496 1133 q 402 1148 429 1133 q 345 1190 375 1163 q 308 1219 322 1210 q 277 1228 293 1228 q 231 1208 249 1228 q 206 1146 212 1187 l 132 1164 q 182 1269 144 1233 q 275 1305 220 1305 q 332 1292 308 1305 q 384 1253 355 1278 q 418 1225 404 1234 q 446 1217 431 1217 q 481 1233 467 1217 q 500 1276 495 1250 l 568 1238 z "},"Ȁ":{"ha":694,"x_min":14,"x_max":682,"o":"m 519 0 l 458 224 l 237 224 l 174 0 l 14 0 l 302 865 l 393 865 l 682 0 l 519 0 m 267 332 l 428 332 l 349 619 l 267 332 m 271 935 l 125 1131 l 219 1199 l 330 970 l 271 935 m 493 935 l 347 1131 l 441 1199 l 553 970 l 493 935 z "},"Ä":{"ha":694,"x_min":14,"x_max":682,"o":"m 519 0 l 458 224 l 237 224 l 174 0 l 14 0 l 302 865 l 393 865 l 682 0 l 519 0 m 267 332 l 428 332 l 349 619 l 267 332 m 220 949 q 173 961 195 949 q 138 993 151 972 q 125 1038 125 1014 q 138 1082 125 1061 q 173 1116 151 1103 q 220 1128 195 1128 q 271 1115 248 1128 q 306 1081 293 1102 q 318 1038 318 1061 q 305 993 318 1014 q 269 961 292 972 q 220 949 246 949 m 476 949 q 428 961 450 949 q 393 993 406 972 q 380 1038 380 1013 q 393 1083 380 1062 q 428 1116 406 1103 q 476 1128 450 1128 q 526 1115 504 1128 q 560 1081 548 1102 q 572 1038 572 1060 q 559 993 572 1014 q 524 961 546 972 q 476 949 502 949 z "},"Ạ":{"ha":694,"x_min":14,"x_max":682,"o":"m 519 0 l 458 224 l 237 224 l 174 0 l 14 0 l 302 865 l 393 865 l 682 0 l 519 0 m 267 332 l 428 332 l 349 619 l 267 332 m 356 -250 q 295 -225 320 -250 q 271 -164 271 -200 q 282 -122 271 -142 q 313 -92 294 -103 q 356 -81 333 -81 q 398 -92 378 -81 q 428 -122 417 -103 q 439 -164 439 -142 q 428 -208 439 -188 q 398 -238 417 -227 q 356 -250 378 -250 z "},"À":{"ha":694,"x_min":14,"x_max":682,"o":"m 519 0 l 458 224 l 237 224 l 174 0 l 14 0 l 302 865 l 393 865 l 682 0 l 519 0 m 267 332 l 428 332 l 349 619 l 267 332 m 455 908 l 205 996 l 271 1116 l 483 958 l 455 908 z "},"Ả":{"ha":694,"x_min":14,"x_max":682,"o":"m 519 0 l 458 224 l 237 224 l 174 0 l 14 0 l 302 865 l 393 865 l 682 0 l 519 0 m 267 332 l 428 332 l 349 619 l 267 332 m 497 1103 q 488 1060 497 1078 q 468 1030 479 1042 q 436 1004 456 1019 q 411 984 419 992 q 403 964 403 975 l 403 941 l 308 941 l 308 979 q 319 1006 308 994 q 353 1036 330 1018 q 390 1070 377 1055 q 403 1103 403 1085 q 389 1137 403 1126 q 354 1149 375 1149 q 302 1133 328 1149 q 265 1088 277 1116 l 215 1167 q 277 1215 241 1199 q 353 1231 314 1231 q 425 1215 392 1231 q 477 1171 458 1200 q 497 1103 497 1141 z "},"Ȃ":{"ha":694,"x_min":14,"x_max":682,"o":"m 519 0 l 458 224 l 237 224 l 174 0 l 14 0 l 302 865 l 393 865 l 682 0 l 519 0 m 267 332 l 428 332 l 349 619 l 267 332 m 461 945 q 413 1023 440 998 q 349 1047 387 1047 q 284 1023 311 1047 q 236 945 256 998 l 139 989 q 227 1099 173 1061 q 349 1137 280 1137 q 471 1099 417 1137 q 559 989 525 1061 l 461 945 z "},"Ā":{"ha":694,"x_min":14,"x_max":682,"o":"m 519 0 l 458 224 l 237 224 l 174 0 l 14 0 l 302 865 l 393 865 l 682 0 l 519 0 m 267 332 l 428 332 l 349 619 l 267 332 m 154 992 l 154 1081 l 543 1081 l 543 992 l 154 992 z "},"Ą":{"ha":694,"x_min":14,"x_max":697,"o":"m 603 -134 q 626 -179 603 -160 q 696 -208 650 -198 l 633 -330 q 496 -266 543 -307 q 450 -175 450 -225 q 483 -87 450 -132 q 578 0 515 -41 l 519 0 l 458 224 l 237 224 l 174 0 l 14 0 l 302 865 l 393 865 l 678 13 l 697 0 q 603 -134 603 -79 m 267 332 l 428 332 l 349 619 l 267 332 z "},"Å":{"ha":694,"x_min":14,"x_max":682,"o":"m 458 224 l 237 224 l 174 0 l 14 0 l 302 863 q 232 913 259 878 q 204 994 204 949 q 223 1063 204 1031 q 276 1113 243 1095 q 347 1132 309 1132 q 420 1113 387 1132 q 473 1063 453 1095 q 493 994 493 1031 q 465 913 493 949 q 394 863 437 878 l 682 0 l 519 0 l 458 224 m 349 1048 q 317 1033 330 1048 q 304 996 304 1017 q 317 959 304 974 q 349 945 330 945 q 380 959 368 945 q 393 996 393 974 q 380 1033 393 1017 q 349 1048 368 1048 m 267 332 l 428 332 l 349 619 l 267 332 z "},"Ǻ":{"ha":694,"x_min":14,"x_max":682,"o":"m 492 1262 l 241 1175 l 214 1225 l 427 1382 l 492 1262 m 458 224 l 237 224 l 174 0 l 14 0 l 302 863 q 232 913 259 878 q 204 994 204 949 q 223 1063 204 1031 q 276 1113 243 1095 q 347 1132 309 1132 q 420 1113 387 1132 q 473 1063 453 1095 q 493 994 493 1031 q 465 913 493 949 q 394 863 437 878 l 682 0 l 519 0 l 458 224 m 349 1048 q 317 1033 330 1048 q 304 996 304 1017 q 317 959 304 974 q 349 945 330 945 q 380 959 368 945 q 393 996 393 974 q 380 1033 393 1017 q 349 1048 368 1048 m 267 332 l 428 332 l 349 619 l 267 332 z "},"Ã":{"ha":694,"x_min":14,"x_max":682,"o":"m 519 0 l 458 224 l 237 224 l 174 0 l 14 0 l 302 865 l 393 865 l 682 0 l 519 0 m 267 332 l 428 332 l 349 619 l 267 332 m 585 1071 q 524 989 559 1018 q 449 960 490 960 q 398 971 419 960 q 348 1007 376 983 q 310 1036 326 1027 q 274 1046 294 1046 q 226 1030 244 1046 q 192 977 208 1015 l 106 1013 q 170 1107 127 1075 q 269 1139 212 1139 q 325 1126 301 1139 q 377 1090 349 1114 q 413 1064 399 1072 q 444 1055 427 1055 q 473 1069 460 1055 q 502 1114 486 1082 l 585 1071 z "},"Æ":{"ha":694,"x_min":0,"x_max":692,"o":"m 0 0 l 267 865 l 692 865 l 692 733 l 473 733 l 473 518 l 657 518 l 657 382 l 473 382 l 473 134 l 689 134 l 689 0 l 329 0 l 329 221 l 211 221 l 150 0 l 0 0 m 245 349 l 330 349 l 330 656 l 328 656 l 245 349 z "},"Ǽ":{"ha":694,"x_min":0,"x_max":692,"o":"m 0 0 l 267 865 l 692 865 l 692 733 l 473 733 l 473 518 l 657 518 l 657 382 l 473 382 l 473 134 l 689 134 l 689 0 l 329 0 l 329 221 l 211 221 l 150 0 l 0 0 m 245 349 l 330 349 l 330 656 l 328 656 l 245 349 m 268 908 l 240 958 l 453 1116 l 518 996 l 268 908 z "},"B":{"ha":694,"x_min":56,"x_max":654,"o":"m 56 865 l 318 865 q 545 805 470 865 q 621 642 621 745 q 592 540 621 589 q 515 464 564 490 q 587 411 555 445 q 636 337 618 378 q 654 254 654 296 q 570 68 654 136 q 317 0 486 0 l 56 0 l 56 865 m 306 528 q 427 556 389 528 q 464 633 464 585 q 448 685 464 661 q 399 722 432 708 q 319 736 367 736 l 211 736 l 211 528 l 306 528 m 332 132 q 451 161 410 132 q 492 258 492 190 q 448 362 492 323 q 310 401 404 401 l 211 401 l 211 132 l 332 132 z "},"C":{"ha":694,"x_min":40,"x_max":676,"o":"m 392 100 q 549 221 480 100 l 667 144 q 546 18 618 61 q 382 -25 474 -25 q 207 25 284 -25 q 85 177 130 75 q 40 428 40 279 q 92 692 40 589 q 224 841 144 795 q 395 888 304 888 q 565 836 493 888 q 676 690 637 783 l 564 635 l 562 635 l 562 635 q 494 734 536 707 q 399 762 451 762 q 250 675 298 762 q 201 435 201 589 q 225 264 201 340 q 293 144 250 188 q 392 100 337 100 m 546 644 q 548 646 546 646 q 554 641 550 646 q 559 633 558 635 l 553 630 l 546 644 m 566 625 q 564 627 566 624 q 559 633 562 629 l 562 635 l 566 625 z "},"Ć":{"ha":694,"x_min":40,"x_max":676,"o":"m 392 100 q 549 221 480 100 l 667 144 q 546 18 618 61 q 382 -25 474 -25 q 207 25 284 -25 q 85 177 130 75 q 40 428 40 279 q 92 692 40 589 q 224 841 144 795 q 395 888 304 888 q 565 836 493 888 q 676 690 637 783 l 564 635 l 562 635 l 562 635 q 494 734 536 707 q 399 762 451 762 q 250 675 298 762 q 201 435 201 589 q 225 264 201 340 q 293 144 250 188 q 392 100 337 100 m 546 644 q 548 646 546 646 q 554 641 550 646 q 559 633 558 635 l 553 630 l 546 644 m 566 625 q 564 627 566 624 q 559 633 562 629 l 562 635 l 566 625 m 268 908 l 240 958 l 453 1116 l 518 996 l 268 908 z "},"Č":{"ha":694,"x_min":40,"x_max":676,"o":"m 392 100 q 549 221 480 100 l 667 144 q 546 18 618 61 q 382 -25 474 -25 q 207 25 284 -25 q 85 177 130 75 q 40 428 40 279 q 92 692 40 589 q 224 841 144 795 q 395 888 304 888 q 565 836 493 888 q 676 690 637 783 l 564 635 l 562 635 l 562 635 q 494 734 536 707 q 399 762 451 762 q 250 675 298 762 q 201 435 201 589 q 225 264 201 340 q 293 144 250 188 q 392 100 337 100 m 546 644 q 548 646 546 646 q 554 641 550 646 q 559 633 558 635 l 553 630 l 546 644 m 566 625 q 564 627 566 624 q 559 633 562 629 l 562 635 l 566 625 m 351 943 l 176 1090 l 229 1152 l 374 1061 l 532 1148 l 578 1093 l 394 943 l 351 943 z "},"Ç":{"ha":694,"x_min":40,"x_max":676,"o":"m 392 100 q 549 221 480 100 l 667 144 q 446 -20 585 7 l 443 -43 q 523 -74 495 -48 q 551 -142 551 -100 q 531 -209 551 -176 q 471 -263 511 -242 q 374 -285 431 -285 q 199 -207 277 -285 l 250 -117 q 322 -174 290 -158 q 391 -191 354 -191 q 438 -181 422 -191 q 454 -154 454 -171 q 439 -131 454 -138 q 389 -123 425 -123 l 321 -123 l 335 -22 q 182 43 249 -10 q 78 194 116 97 q 40 428 40 292 q 92 692 40 589 q 224 841 144 795 q 395 888 304 888 q 565 836 493 888 q 676 690 637 783 l 564 635 l 562 635 l 562 635 q 494 734 536 707 q 399 762 451 762 q 250 675 298 762 q 201 435 201 589 q 225 264 201 340 q 293 144 250 188 q 392 100 337 100 m 546 644 q 548 646 546 646 q 554 641 550 646 q 559 633 558 635 l 553 630 l 546 644 m 566 625 q 564 627 566 624 q 559 633 562 629 l 562 635 l 566 625 z "},"Ḉ":{"ha":694,"x_min":40,"x_max":676,"o":"m 518 996 l 268 908 l 240 958 l 453 1116 l 518 996 m 392 100 q 549 221 480 100 l 667 144 q 446 -20 585 7 l 443 -43 q 523 -74 495 -48 q 551 -142 551 -100 q 531 -209 551 -176 q 471 -263 511 -242 q 374 -285 431 -285 q 199 -207 277 -285 l 250 -117 q 322 -174 290 -158 q 391 -191 354 -191 q 438 -181 422 -191 q 454 -154 454 -171 q 439 -131 454 -138 q 389 -123 425 -123 l 321 -123 l 335 -22 q 182 43 249 -10 q 78 194 116 97 q 40 428 40 292 q 92 692 40 589 q 224 841 144 795 q 395 888 304 888 q 565 836 493 888 q 676 690 637 783 l 564 635 l 562 635 l 562 635 q 494 734 536 707 q 399 762 451 762 q 250 675 298 762 q 201 435 201 589 q 225 264 201 340 q 293 144 250 188 q 392 100 337 100 m 546 644 q 548 646 546 646 q 554 641 550 646 q 559 633 558 635 l 553 630 l 546 644 m 566 625 q 564 627 566 624 q 559 633 562 629 l 562 635 l 566 625 z "},"Ĉ":{"ha":694,"x_min":40,"x_max":676,"o":"m 392 100 q 549 221 480 100 l 667 144 q 546 18 618 61 q 382 -25 474 -25 q 207 25 284 -25 q 85 177 130 75 q 40 428 40 279 q 92 692 40 589 q 224 841 144 795 q 395 888 304 888 q 565 836 493 888 q 676 690 637 783 l 564 635 l 562 635 l 562 635 q 494 734 536 707 q 399 762 451 762 q 250 675 298 762 q 201 435 201 589 q 225 264 201 340 q 293 144 250 188 q 392 100 337 100 m 546 644 q 548 646 546 646 q 554 641 550 646 q 559 633 558 635 l 553 630 l 546 644 m 566 625 q 564 627 566 624 q 559 633 562 629 l 562 635 l 566 625 m 179 901 l 130 961 l 353 1111 l 396 1111 l 615 964 l 563 901 l 375 993 l 179 901 z "},"Ċ":{"ha":694,"x_min":40,"x_max":676,"o":"m 392 100 q 549 221 480 100 l 667 144 q 546 18 618 61 q 382 -25 474 -25 q 207 25 284 -25 q 85 177 130 75 q 40 428 40 279 q 92 692 40 589 q 224 841 144 795 q 395 888 304 888 q 565 836 493 888 q 676 690 637 783 l 564 635 l 562 635 l 562 635 q 494 734 536 707 q 399 762 451 762 q 250 675 298 762 q 201 435 201 589 q 225 264 201 340 q 293 144 250 188 q 392 100 337 100 m 546 644 q 548 646 546 646 q 554 641 550 646 q 559 633 558 635 l 553 630 l 546 644 m 566 625 q 564 627 566 624 q 559 633 562 629 l 562 635 l 566 625 m 374 950 q 326 962 349 950 q 290 995 304 975 q 277 1040 277 1016 q 289 1084 277 1063 q 323 1118 301 1105 q 374 1131 345 1131 q 423 1118 400 1131 q 459 1085 446 1106 q 473 1040 473 1065 q 459 995 473 1016 q 423 962 446 975 q 374 950 400 950 z "},"D":{"ha":694,"x_min":61,"x_max":661,"o":"m 61 865 l 285 865 q 461 836 395 865 q 572 745 526 806 q 661 427 661 624 q 566 111 661 222 q 268 0 471 0 l 61 0 l 61 865 m 265 122 q 446 199 387 122 q 505 422 505 275 q 279 736 505 736 l 212 736 l 212 122 l 265 122 z "},"Ð":{"ha":694,"x_min":7,"x_max":661,"o":"m 61 393 l 7 393 l 7 521 l 61 521 l 61 865 l 285 865 q 461 836 395 865 q 572 745 526 806 q 661 427 661 624 q 566 111 661 222 q 268 0 471 0 l 61 0 l 61 393 m 265 122 q 446 199 387 122 q 505 422 505 275 q 279 736 505 736 l 212 736 l 212 521 l 343 521 l 343 393 l 212 393 l 212 122 l 265 122 z "},"Ď":{"ha":694,"x_min":61,"x_max":661,"o":"m 61 865 l 285 865 q 461 836 395 865 q 572 745 526 806 q 661 427 661 624 q 566 111 661 222 q 268 0 471 0 l 61 0 l 61 865 m 265 122 q 446 199 387 122 q 505 422 505 275 q 279 736 505 736 l 212 736 l 212 122 l 265 122 m 282 943 l 107 1090 l 159 1152 l 305 1061 l 463 1148 l 509 1093 l 325 943 l 282 943 z "},"Đ":{"ha":694,"x_min":7,"x_max":661,"o":"m 61 393 l 7 393 l 7 521 l 61 521 l 61 865 l 285 865 q 461 836 395 865 q 572 745 526 806 q 661 427 661 624 q 566 111 661 222 q 268 0 471 0 l 61 0 l 61 393 m 265 122 q 446 199 387 122 q 505 422 505 275 q 279 736 505 736 l 212 736 l 212 521 l 343 521 l 343 393 l 212 393 l 212 122 l 265 122 z "},"Ḍ":{"ha":694,"x_min":61,"x_max":661,"o":"m 61 865 l 285 865 q 461 836 395 865 q 572 745 526 806 q 661 427 661 624 q 566 111 661 222 q 268 0 471 0 l 61 0 l 61 865 m 265 122 q 446 199 387 122 q 505 422 505 275 q 279 736 505 736 l 212 736 l 212 122 l 265 122 m 344 -250 q 283 -225 308 -250 q 258 -164 258 -200 q 270 -122 258 -142 q 301 -92 281 -103 q 344 -81 321 -81 q 386 -92 366 -81 q 416 -122 405 -103 q 427 -164 427 -142 q 416 -208 427 -188 q 386 -238 405 -227 q 344 -250 366 -250 z "},"Ḏ":{"ha":694,"x_min":61,"x_max":661,"o":"m 61 865 l 285 865 q 461 836 395 865 q 572 745 526 806 q 661 427 661 624 q 566 111 661 222 q 268 0 471 0 l 61 0 l 61 865 m 265 122 q 446 199 387 122 q 505 422 505 275 q 279 736 505 736 l 212 736 l 212 122 l 265 122 m 140 -225 l 140 -136 l 530 -136 l 530 -225 l 140 -225 z "},"E":{"ha":694,"x_min":78,"x_max":642,"o":"m 78 0 l 78 865 l 642 865 l 642 732 l 229 732 l 229 518 l 571 518 l 571 382 l 229 382 l 229 134 l 639 134 l 639 0 l 78 0 z "},"É":{"ha":694,"x_min":78,"x_max":642,"o":"m 78 0 l 78 865 l 642 865 l 642 732 l 229 732 l 229 518 l 571 518 l 571 382 l 229 382 l 229 134 l 639 134 l 639 0 l 78 0 m 268 908 l 240 958 l 453 1116 l 518 996 l 268 908 z "},"Ĕ":{"ha":694,"x_min":78,"x_max":642,"o":"m 78 0 l 78 865 l 642 865 l 642 732 l 229 732 l 229 518 l 571 518 l 571 382 l 229 382 l 229 134 l 639 134 l 639 0 l 78 0 m 585 1092 q 497 982 551 1020 q 375 944 444 944 q 253 982 307 944 q 165 1092 199 1020 l 262 1136 q 310 1058 283 1082 q 375 1034 338 1034 q 440 1058 413 1034 q 488 1136 467 1082 l 585 1092 z "},"Ě":{"ha":694,"x_min":78,"x_max":642,"o":"m 78 0 l 78 865 l 642 865 l 642 732 l 229 732 l 229 518 l 571 518 l 571 382 l 229 382 l 229 134 l 639 134 l 639 0 l 78 0 m 351 943 l 176 1090 l 229 1152 l 374 1061 l 532 1148 l 578 1093 l 394 943 l 351 943 z "},"Ḝ":{"ha":694,"x_min":78,"x_max":642,"o":"m 78 0 l 78 865 l 642 865 l 642 732 l 229 732 l 229 518 l 571 518 l 571 382 l 229 382 l 229 134 l 639 134 l 639 0 l 78 0 m 346 -285 q 171 -207 249 -285 l 222 -117 q 294 -174 262 -158 q 363 -191 326 -191 q 410 -181 394 -191 q 427 -154 427 -171 q 412 -131 427 -138 q 361 -123 397 -123 l 293 -123 l 310 0 l 421 0 l 415 -43 q 495 -74 467 -48 q 524 -142 524 -100 q 504 -209 524 -176 q 443 -263 484 -242 q 346 -285 403 -285 m 585 1092 q 497 982 551 1020 q 375 944 444 944 q 253 982 307 944 q 165 1092 199 1020 l 262 1136 q 310 1058 283 1082 q 375 1034 338 1034 q 440 1058 413 1034 q 488 1136 467 1082 l 585 1092 z "},"Ê":{"ha":694,"x_min":78,"x_max":642,"o":"m 78 0 l 78 865 l 642 865 l 642 732 l 229 732 l 229 518 l 571 518 l 571 382 l 229 382 l 229 134 l 639 134 l 639 0 l 78 0 m 179 901 l 130 961 l 353 1111 l 396 1111 l 615 964 l 563 901 l 375 993 l 179 901 z "},"Ế":{"ha":694,"x_min":78,"x_max":800,"o":"m 78 0 l 78 865 l 642 865 l 642 732 l 229 732 l 229 518 l 571 518 l 571 382 l 229 382 l 229 134 l 639 134 l 639 0 l 78 0 m 175 901 l 125 961 l 349 1111 l 392 1111 l 611 964 l 559 901 l 371 993 l 175 901 m 550 1075 l 522 1125 l 735 1282 l 800 1162 l 550 1075 z "},"Ệ":{"ha":694,"x_min":78,"x_max":642,"o":"m 78 0 l 78 865 l 642 865 l 642 732 l 229 732 l 229 518 l 571 518 l 571 382 l 229 382 l 229 134 l 639 134 l 639 0 l 78 0 m 356 -250 q 295 -225 320 -250 q 271 -164 271 -200 q 282 -122 271 -142 q 313 -92 294 -103 q 356 -81 333 -81 q 398 -92 378 -81 q 428 -122 417 -103 q 439 -164 439 -142 q 428 -208 439 -188 q 398 -238 417 -227 q 356 -250 378 -250 m 179 901 l 130 961 l 353 1111 l 396 1111 l 615 964 l 563 901 l 375 993 l 179 901 z "},"Ề":{"ha":694,"x_min":78,"x_max":642,"o":"m 78 0 l 78 865 l 642 865 l 642 732 l 229 732 l 229 518 l 571 518 l 571 382 l 229 382 l 229 134 l 639 134 l 639 0 l 78 0 m 182 901 l 132 961 l 355 1111 l 399 1111 l 618 964 l 566 901 l 378 993 l 182 901 m 528 1133 l 278 1221 l 343 1341 l 555 1183 l 528 1133 z "},"Ể":{"ha":694,"x_min":78,"x_max":722,"o":"m 78 0 l 78 865 l 642 865 l 642 732 l 229 732 l 229 518 l 571 518 l 571 382 l 229 382 l 229 134 l 639 134 l 639 0 l 78 0 m 176 901 l 127 961 l 350 1111 l 393 1111 l 612 964 l 560 901 l 372 993 l 176 901 m 722 1211 q 713 1168 722 1186 q 693 1138 705 1149 q 661 1112 681 1126 q 636 1092 644 1100 q 628 1072 628 1083 l 628 1048 l 533 1048 l 533 1087 q 544 1114 533 1101 q 578 1144 555 1126 q 615 1178 602 1163 q 628 1211 628 1193 q 614 1245 628 1234 q 579 1257 600 1257 q 528 1240 553 1257 q 490 1196 503 1224 l 440 1275 q 503 1323 466 1307 q 578 1339 539 1339 q 650 1323 617 1339 q 703 1278 683 1308 q 722 1211 722 1249 z "},"Ễ":{"ha":694,"x_min":78,"x_max":642,"o":"m 78 0 l 78 865 l 642 865 l 642 732 l 229 732 l 229 518 l 571 518 l 571 382 l 229 382 l 229 134 l 639 134 l 639 0 l 78 0 m 179 901 l 130 961 l 353 1111 l 396 1111 l 615 964 l 563 901 l 375 993 l 179 901 m 595 1238 q 550 1158 578 1182 q 492 1133 522 1133 q 428 1148 455 1133 q 371 1190 401 1163 q 334 1219 349 1210 q 303 1228 319 1228 q 257 1208 275 1228 q 233 1146 239 1187 l 159 1164 q 208 1269 170 1233 q 302 1305 246 1305 q 358 1292 334 1305 q 410 1253 382 1278 q 444 1225 431 1234 q 473 1217 458 1217 q 507 1233 493 1217 q 527 1276 522 1250 l 595 1238 z "},"Ȅ":{"ha":694,"x_min":78,"x_max":642,"o":"m 78 0 l 78 865 l 642 865 l 642 732 l 229 732 l 229 518 l 571 518 l 571 382 l 229 382 l 229 134 l 639 134 l 639 0 l 78 0 m 297 935 l 151 1131 l 245 1199 l 357 970 l 297 935 m 519 935 l 374 1131 l 468 1199 l 579 970 l 519 935 z "},"Ë":{"ha":694,"x_min":78,"x_max":642,"o":"m 78 0 l 78 865 l 642 865 l 642 732 l 229 732 l 229 518 l 571 518 l 571 382 l 229 382 l 229 134 l 639 134 l 639 0 l 78 0 m 247 949 q 199 961 221 949 q 164 993 177 972 q 151 1038 151 1014 q 164 1082 151 1061 q 199 1116 177 1103 q 247 1128 221 1128 q 297 1115 275 1128 q 332 1081 319 1102 q 345 1038 345 1061 q 331 993 345 1014 q 295 961 318 972 q 247 949 273 949 m 503 949 q 454 961 476 949 q 420 993 433 972 q 407 1038 407 1013 q 420 1083 407 1062 q 455 1116 433 1103 q 503 1128 477 1128 q 552 1115 530 1128 q 586 1081 574 1102 q 598 1038 598 1060 q 585 993 598 1014 q 550 961 572 972 q 503 949 528 949 z "},"Ė":{"ha":694,"x_min":78,"x_max":642,"o":"m 78 0 l 78 865 l 642 865 l 642 732 l 229 732 l 229 518 l 571 518 l 571 382 l 229 382 l 229 134 l 639 134 l 639 0 l 78 0 m 374 950 q 326 962 349 950 q 290 995 304 975 q 277 1040 277 1016 q 289 1084 277 1063 q 323 1118 301 1105 q 374 1131 345 1131 q 423 1118 400 1131 q 459 1085 446 1106 q 473 1040 473 1065 q 459 995 473 1016 q 423 962 446 975 q 374 950 400 950 z "},"Ẹ":{"ha":694,"x_min":78,"x_max":642,"o":"m 78 0 l 78 865 l 642 865 l 642 732 l 229 732 l 229 518 l 571 518 l 571 382 l 229 382 l 229 134 l 639 134 l 639 0 l 78 0 m 356 -250 q 295 -225 320 -250 q 271 -164 271 -200 q 282 -122 271 -142 q 313 -92 294 -103 q 356 -81 333 -81 q 398 -92 378 -81 q 428 -122 417 -103 q 439 -164 439 -142 q 428 -208 439 -188 q 398 -238 417 -227 q 356 -250 378 -250 z "},"È":{"ha":694,"x_min":78,"x_max":642,"o":"m 78 0 l 78 865 l 642 865 l 642 732 l 229 732 l 229 518 l 571 518 l 571 382 l 229 382 l 229 134 l 639 134 l 639 0 l 78 0 m 481 908 l 232 996 l 297 1116 l 509 958 l 481 908 z "},"Ẻ":{"ha":694,"x_min":78,"x_max":642,"o":"m 78 0 l 78 865 l 642 865 l 642 732 l 229 732 l 229 518 l 571 518 l 571 382 l 229 382 l 229 134 l 639 134 l 639 0 l 78 0 m 524 1103 q 515 1060 524 1078 q 494 1030 506 1042 q 463 1004 482 1019 q 437 984 446 992 q 429 964 429 975 l 429 941 l 334 941 l 334 979 q 345 1006 334 994 q 379 1036 356 1018 q 416 1070 404 1055 q 429 1103 429 1085 q 415 1137 429 1126 q 380 1149 401 1149 q 329 1133 354 1149 q 292 1088 304 1116 l 241 1167 q 304 1215 267 1199 q 379 1231 340 1231 q 451 1215 418 1231 q 504 1171 484 1200 q 524 1103 524 1141 z "},"Ȇ":{"ha":694,"x_min":78,"x_max":642,"o":"m 78 0 l 78 865 l 642 865 l 642 732 l 229 732 l 229 518 l 571 518 l 571 382 l 229 382 l 229 134 l 639 134 l 639 0 l 78 0 m 488 945 q 440 1023 467 998 q 375 1047 413 1047 q 310 1023 338 1047 q 262 945 283 998 l 165 989 q 253 1099 199 1061 q 375 1137 307 1137 q 497 1099 444 1137 q 585 989 551 1061 l 488 945 z "},"Ē":{"ha":694,"x_min":78,"x_max":642,"o":"m 78 0 l 78 865 l 642 865 l 642 732 l 229 732 l 229 518 l 571 518 l 571 382 l 229 382 l 229 134 l 639 134 l 639 0 l 78 0 m 180 992 l 180 1081 l 570 1081 l 570 992 l 180 992 z "},"Ḗ":{"ha":694,"x_min":78,"x_max":642,"o":"m 78 0 l 78 865 l 642 865 l 642 732 l 229 732 l 229 518 l 571 518 l 571 382 l 229 382 l 229 134 l 639 134 l 639 0 l 78 0 m 180 992 l 180 1081 l 570 1081 l 570 992 l 180 992 m 268 1111 l 240 1161 l 453 1318 l 518 1198 l 268 1111 z "},"Ḕ":{"ha":694,"x_min":78,"x_max":642,"o":"m 78 0 l 78 865 l 642 865 l 642 732 l 229 732 l 229 518 l 571 518 l 571 382 l 229 382 l 229 134 l 639 134 l 639 0 l 78 0 m 180 992 l 180 1081 l 570 1081 l 570 992 l 180 992 m 481 1111 l 232 1198 l 297 1318 l 509 1161 l 481 1111 z "},"Ę":{"ha":694,"x_min":78,"x_max":642,"o":"m 78 0 l 78 865 l 642 865 l 642 732 l 229 732 l 229 518 l 571 518 l 571 382 l 229 382 l 229 134 l 639 134 l 639 0 l 78 0 m 496 -253 q 400 -225 433 -253 q 368 -151 368 -198 q 389 -84 368 -117 q 465 0 409 -51 l 614 0 l 574 -37 q 518 -92 530 -78 q 505 -119 505 -106 q 511 -136 505 -130 q 526 -142 516 -142 q 559 -131 543 -142 q 614 -87 576 -121 l 614 -208 q 556 -242 585 -231 q 496 -253 528 -253 z "},"Ẽ":{"ha":694,"x_min":78,"x_max":642,"o":"m 78 0 l 78 865 l 642 865 l 642 732 l 229 732 l 229 518 l 571 518 l 571 382 l 229 382 l 229 134 l 639 134 l 639 0 l 78 0 m 612 1071 q 551 989 585 1018 q 475 960 516 960 q 424 971 446 960 q 374 1007 403 983 q 336 1036 353 1027 q 300 1046 320 1046 q 252 1030 271 1046 q 218 977 234 1015 l 132 1013 q 196 1107 154 1075 q 295 1139 238 1139 q 351 1126 328 1139 q 404 1090 375 1114 q 439 1064 425 1072 q 470 1055 454 1055 q 500 1069 487 1055 q 528 1114 513 1082 l 612 1071 z "},"Ƹ":{"ha":694,"x_min":66,"x_max":629,"o":"m 629 86 q 516 1 579 28 q 371 -26 453 -26 q 212 9 281 -26 q 104 106 142 45 q 66 240 66 167 q 96 373 66 314 q 181 470 126 431 q 311 526 236 509 l 93 750 l 93 865 l 576 865 l 576 730 l 282 730 l 465 536 l 465 411 q 278 372 334 415 q 222 249 222 328 q 243 172 222 203 q 300 124 264 140 q 380 109 336 109 q 453 116 421 109 q 505 132 486 123 q 530 149 525 142 q 558 201 558 197 q 557 201 558 201 q 553 199 556 201 q 548 196 551 197 q 545 199 546 196 l 553 213 l 564 207 l 629 86 z "},"F":{"ha":694,"x_min":94,"x_max":632,"o":"m 94 0 l 94 865 l 632 865 l 632 733 l 250 733 l 250 530 l 558 530 l 558 400 l 250 400 l 250 0 l 94 0 z "},"G":{"ha":694,"x_min":22,"x_max":648,"o":"m 351 437 l 646 437 l 646 74 q 518 -1 584 22 q 375 -25 452 -25 q 184 33 264 -25 q 64 194 105 90 q 22 433 22 297 q 80 703 22 602 q 218 846 138 805 q 375 888 298 888 q 534 842 462 888 q 648 718 606 796 l 544 617 l 543 616 q 522 649 536 625 q 487 702 504 680 q 441 740 470 724 q 372 755 413 755 q 279 724 322 755 q 210 622 237 692 q 183 443 183 551 q 208 264 183 340 q 276 148 232 188 q 375 107 319 107 q 498 143 452 107 l 498 306 l 351 306 l 351 437 m 525 621 q 527 623 525 623 q 541 614 530 623 l 536 609 l 525 620 l 525 621 m 550 608 q 541 614 550 608 l 543 616 l 550 608 z "},"Ğ":{"ha":694,"x_min":22,"x_max":648,"o":"m 351 437 l 646 437 l 646 74 q 518 -1 584 22 q 375 -25 452 -25 q 184 33 264 -25 q 64 194 105 90 q 22 433 22 297 q 80 703 22 602 q 218 846 138 805 q 375 888 298 888 q 534 842 462 888 q 648 718 606 796 l 544 617 l 543 616 q 522 649 536 625 q 487 702 504 680 q 441 740 470 724 q 372 755 413 755 q 279 724 322 755 q 210 622 237 692 q 183 443 183 551 q 208 264 183 340 q 276 148 232 188 q 375 107 319 107 q 498 143 452 107 l 498 306 l 351 306 l 351 437 m 525 621 q 527 623 525 623 q 541 614 530 623 l 536 609 l 525 620 l 525 621 m 550 608 q 541 614 550 608 l 543 616 l 550 608 m 581 1092 q 493 982 547 1020 q 371 944 439 944 q 249 982 302 944 q 161 1092 195 1020 l 258 1136 q 306 1058 279 1082 q 371 1034 334 1034 q 436 1058 409 1034 q 484 1136 463 1082 l 581 1092 z "},"Ǧ":{"ha":694,"x_min":22,"x_max":648,"o":"m 351 437 l 646 437 l 646 74 q 518 -1 584 22 q 375 -25 452 -25 q 184 33 264 -25 q 64 194 105 90 q 22 433 22 297 q 80 703 22 602 q 218 846 138 805 q 375 888 298 888 q 534 842 462 888 q 648 718 606 796 l 544 617 l 543 616 q 522 649 536 625 q 487 702 504 680 q 441 740 470 724 q 372 755 413 755 q 279 724 322 755 q 210 622 237 692 q 183 443 183 551 q 208 264 183 340 q 276 148 232 188 q 375 107 319 107 q 498 143 452 107 l 498 306 l 351 306 l 351 437 m 525 621 q 527 623 525 623 q 541 614 530 623 l 536 609 l 525 620 l 525 621 m 550 608 q 541 614 550 608 l 543 616 l 550 608 m 347 943 l 172 1090 l 224 1152 l 370 1061 l 528 1148 l 574 1093 l 390 943 l 347 943 z "},"Ĝ":{"ha":694,"x_min":22,"x_max":648,"o":"m 351 437 l 646 437 l 646 74 q 518 -1 584 22 q 375 -25 452 -25 q 184 33 264 -25 q 64 194 105 90 q 22 433 22 297 q 80 703 22 602 q 218 846 138 805 q 375 888 298 888 q 534 842 462 888 q 648 718 606 796 l 544 617 l 543 616 q 522 649 536 625 q 487 702 504 680 q 441 740 470 724 q 372 755 413 755 q 279 724 322 755 q 210 622 237 692 q 183 443 183 551 q 208 264 183 340 q 276 148 232 188 q 375 107 319 107 q 498 143 452 107 l 498 306 l 351 306 l 351 437 m 525 621 q 527 623 525 623 q 541 614 530 623 l 536 609 l 525 620 l 525 621 m 550 608 q 541 614 550 608 l 543 616 l 550 608 m 175 901 l 125 961 l 349 1111 l 392 1111 l 611 964 l 559 901 l 371 993 l 175 901 z "},"Ģ":{"ha":694,"x_min":22,"x_max":648,"o":"m 351 437 l 646 437 l 646 74 q 518 -1 584 22 q 375 -25 452 -25 q 184 33 264 -25 q 64 194 105 90 q 22 433 22 297 q 80 703 22 602 q 218 846 138 805 q 375 888 298 888 q 534 842 462 888 q 648 718 606 796 l 544 617 l 543 616 q 522 649 536 625 q 487 702 504 680 q 441 740 470 724 q 372 755 413 755 q 279 724 322 755 q 210 622 237 692 q 183 443 183 551 q 208 264 183 340 q 276 148 232 188 q 375 107 319 107 q 498 143 452 107 l 498 306 l 351 306 l 351 437 m 525 621 q 527 623 525 623 q 541 614 530 623 l 536 609 l 525 620 l 525 621 m 550 608 q 541 614 550 608 l 543 616 l 550 608 m 258 -361 q 316 -293 293 -328 q 339 -239 339 -258 q 334 -227 339 -233 q 317 -210 329 -221 q 290 -180 300 -194 q 279 -149 279 -166 q 306 -86 279 -112 q 374 -61 332 -61 q 424 -76 400 -61 q 461 -117 447 -91 q 476 -176 476 -144 q 328 -425 476 -274 l 258 -361 z "},"Ġ":{"ha":694,"x_min":22,"x_max":648,"o":"m 351 437 l 646 437 l 646 74 q 518 -1 584 22 q 375 -25 452 -25 q 184 33 264 -25 q 64 194 105 90 q 22 433 22 297 q 80 703 22 602 q 218 846 138 805 q 375 888 298 888 q 534 842 462 888 q 648 718 606 796 l 544 617 l 543 616 q 522 649 536 625 q 487 702 504 680 q 441 740 470 724 q 372 755 413 755 q 279 724 322 755 q 210 622 237 692 q 183 443 183 551 q 208 264 183 340 q 276 148 232 188 q 375 107 319 107 q 498 143 452 107 l 498 306 l 351 306 l 351 437 m 525 621 q 527 623 525 623 q 541 614 530 623 l 536 609 l 525 620 l 525 621 m 550 608 q 541 614 550 608 l 543 616 l 550 608 m 370 950 q 322 962 345 950 q 286 995 300 975 q 273 1040 273 1016 q 285 1084 273 1063 q 319 1118 297 1105 q 370 1131 341 1131 q 419 1118 396 1131 q 455 1085 441 1106 q 469 1040 469 1065 q 455 995 469 1016 q 419 962 441 975 q 370 950 396 950 z "},"Ḡ":{"ha":694,"x_min":22,"x_max":648,"o":"m 351 437 l 646 437 l 646 74 q 518 -1 584 22 q 375 -25 452 -25 q 184 33 264 -25 q 64 194 105 90 q 22 433 22 297 q 80 703 22 602 q 218 846 138 805 q 375 888 298 888 q 534 842 462 888 q 648 718 606 796 l 544 617 l 543 616 q 522 649 536 625 q 487 702 504 680 q 441 740 470 724 q 372 755 413 755 q 279 724 322 755 q 210 622 237 692 q 183 443 183 551 q 208 264 183 340 q 276 148 232 188 q 375 107 319 107 q 498 143 452 107 l 498 306 l 351 306 l 351 437 m 525 621 q 527 623 525 623 q 541 614 530 623 l 536 609 l 525 620 l 525 621 m 550 608 q 541 614 550 608 l 543 616 l 550 608 m 176 992 l 176 1081 l 566 1081 l 566 992 l 176 992 z "},"H":{"ha":694,"x_min":60,"x_max":646,"o":"m 60 865 l 231 865 l 231 850 q 221 832 223 842 q 220 799 219 822 l 220 514 l 475 514 l 475 865 l 646 865 l 646 850 q 636 832 638 842 q 635 799 634 822 l 635 0 l 475 0 l 475 385 l 220 385 l 220 0 l 60 0 l 60 865 z "},"Ħ":{"ha":694,"x_min":60,"x_max":646,"o":"m 646 850 q 636 832 638 842 q 635 799 634 822 l 635 0 l 475 0 l 475 370 l 220 370 l 220 0 l 60 0 l 60 865 l 231 865 l 231 850 q 221 832 223 842 q 220 799 219 822 l 220 514 l 475 514 l 475 865 l 646 865 l 646 850 z "},"Ḫ":{"ha":694,"x_min":60,"x_max":646,"o":"m 60 865 l 231 865 l 231 850 q 221 832 223 842 q 220 799 219 822 l 220 514 l 475 514 l 475 865 l 646 865 l 646 850 q 636 832 638 842 q 635 799 634 822 l 635 0 l 475 0 l 475 385 l 220 385 l 220 0 l 60 0 l 60 865 m 571 -121 q 483 -231 537 -193 q 361 -269 429 -269 q 239 -231 292 -269 q 151 -121 185 -193 l 248 -77 q 296 -155 269 -130 q 361 -179 323 -179 q 426 -155 399 -179 q 473 -77 452 -130 l 571 -121 z "},"Ĥ":{"ha":694,"x_min":60,"x_max":646,"o":"m 60 865 l 231 865 l 231 850 q 221 832 223 842 q 220 799 219 822 l 220 514 l 475 514 l 475 865 l 646 865 l 646 850 q 636 832 638 842 q 635 799 634 822 l 635 0 l 475 0 l 475 385 l 220 385 l 220 0 l 60 0 l 60 865 m 151 901 l 102 961 l 325 1111 l 368 1111 l 587 964 l 535 901 l 347 993 l 151 901 z "},"Ḥ":{"ha":694,"x_min":60,"x_max":646,"o":"m 60 865 l 231 865 l 231 850 q 221 832 223 842 q 220 799 219 822 l 220 514 l 475 514 l 475 865 l 646 865 l 646 850 q 636 832 638 842 q 635 799 634 822 l 635 0 l 475 0 l 475 385 l 220 385 l 220 0 l 60 0 l 60 865 m 356 -250 q 295 -225 320 -250 q 271 -164 271 -200 q 282 -122 271 -142 q 313 -92 294 -103 q 356 -81 333 -81 q 398 -92 378 -81 q 428 -122 417 -103 q 439 -164 439 -142 q 428 -208 439 -188 q 398 -238 417 -227 q 356 -250 378 -250 z "},"I":{"ha":694,"x_min":102,"x_max":600,"o":"m 102 0 l 102 129 l 269 129 l 269 736 l 110 736 l 110 865 l 593 865 l 593 736 l 425 736 l 425 127 l 600 127 l 600 0 l 102 0 z "},"Í":{"ha":694,"x_min":102,"x_max":600,"o":"m 102 0 l 102 129 l 269 129 l 269 736 l 110 736 l 110 865 l 593 865 l 593 736 l 425 736 l 425 127 l 600 127 l 600 0 l 102 0 m 240 908 l 212 958 l 425 1116 l 490 996 l 240 908 z "},"Ĭ":{"ha":694,"x_min":102,"x_max":600,"o":"m 102 0 l 102 129 l 269 129 l 269 736 l 110 736 l 110 865 l 593 865 l 593 736 l 425 736 l 425 127 l 600 127 l 600 0 l 102 0 m 557 1092 q 470 982 524 1020 q 347 944 416 944 q 225 982 279 944 q 138 1092 172 1020 l 235 1136 q 282 1058 255 1082 q 347 1034 310 1034 q 412 1058 385 1034 q 460 1136 439 1082 l 557 1092 z "},"Î":{"ha":694,"x_min":102,"x_max":600,"o":"m 102 0 l 102 129 l 269 129 l 269 736 l 110 736 l 110 865 l 593 865 l 593 736 l 425 736 l 425 127 l 600 127 l 600 0 l 102 0 m 151 901 l 102 961 l 325 1111 l 368 1111 l 587 964 l 535 901 l 347 993 l 151 901 z "},"Ȉ":{"ha":694,"x_min":102,"x_max":600,"o":"m 102 0 l 102 129 l 269 129 l 269 736 l 110 736 l 110 865 l 593 865 l 593 736 l 425 736 l 425 127 l 600 127 l 600 0 l 102 0 m 269 935 l 123 1131 l 218 1199 l 329 970 l 269 935 m 492 935 l 346 1131 l 440 1199 l 551 970 l 492 935 z "},"Ï":{"ha":694,"x_min":102,"x_max":600,"o":"m 102 0 l 102 129 l 269 129 l 269 736 l 110 736 l 110 865 l 593 865 l 593 736 l 425 736 l 425 127 l 600 127 l 600 0 l 102 0 m 219 949 q 171 961 193 949 q 136 993 149 972 q 123 1038 123 1014 q 136 1082 123 1061 q 171 1116 149 1103 q 219 1128 193 1128 q 269 1115 247 1128 q 304 1081 292 1102 q 317 1038 317 1061 q 303 993 317 1014 q 268 961 290 972 q 219 949 245 949 m 475 949 q 427 961 448 949 q 392 993 405 972 q 379 1038 379 1013 q 392 1083 379 1062 q 427 1116 405 1103 q 475 1128 449 1128 q 525 1115 503 1128 q 558 1081 547 1102 q 570 1038 570 1060 q 557 993 570 1014 q 523 961 545 972 q 475 949 500 949 z "},"Ḯ":{"ha":694,"x_min":102,"x_max":600,"o":"m 102 0 l 102 129 l 269 129 l 269 736 l 110 736 l 110 865 l 593 865 l 593 736 l 425 736 l 425 127 l 600 127 l 600 0 l 102 0 m 219 949 q 171 961 193 949 q 136 993 149 972 q 123 1038 123 1014 q 136 1082 123 1061 q 171 1116 149 1103 q 219 1128 193 1128 q 269 1115 247 1128 q 304 1081 292 1102 q 317 1038 317 1061 q 303 993 317 1014 q 268 961 290 972 q 219 949 245 949 m 475 949 q 427 961 448 949 q 392 993 405 972 q 379 1038 379 1013 q 392 1083 379 1062 q 427 1116 405 1103 q 475 1128 449 1128 q 525 1115 503 1128 q 558 1081 547 1102 q 570 1038 570 1060 q 557 993 570 1014 q 523 961 545 972 q 475 949 500 949 m 240 1143 l 212 1193 l 425 1350 l 490 1230 l 240 1143 z "},"İ":{"ha":694,"x_min":102,"x_max":600,"o":"m 102 0 l 102 129 l 269 129 l 269 736 l 110 736 l 110 865 l 593 865 l 593 736 l 425 736 l 425 127 l 600 127 l 600 0 l 102 0 m 346 950 q 298 962 321 950 q 262 995 276 975 q 249 1040 249 1016 q 261 1084 249 1063 q 295 1118 273 1105 q 346 1131 317 1131 q 395 1118 372 1131 q 431 1085 418 1106 q 445 1040 445 1065 q 431 995 445 1016 q 395 962 418 975 q 346 950 372 950 z "},"Ị":{"ha":694,"x_min":102,"x_max":600,"o":"m 102 0 l 102 129 l 269 129 l 269 736 l 110 736 l 110 865 l 593 865 l 593 736 l 425 736 l 425 127 l 600 127 l 600 0 l 102 0 m 356 -250 q 295 -225 320 -250 q 271 -164 271 -200 q 282 -122 271 -142 q 313 -92 294 -103 q 356 -81 333 -81 q 398 -92 378 -81 q 428 -122 417 -103 q 439 -164 439 -142 q 428 -208 439 -188 q 398 -238 417 -227 q 356 -250 378 -250 z "},"Ì":{"ha":694,"x_min":102,"x_max":600,"o":"m 102 0 l 102 129 l 269 129 l 269 736 l 110 736 l 110 865 l 593 865 l 593 736 l 425 736 l 425 127 l 600 127 l 600 0 l 102 0 m 454 908 l 204 996 l 269 1116 l 481 958 l 454 908 z "},"Ỉ":{"ha":694,"x_min":102,"x_max":600,"o":"m 102 0 l 102 129 l 269 129 l 269 736 l 110 736 l 110 865 l 593 865 l 593 736 l 425 736 l 425 127 l 600 127 l 600 0 l 102 0 m 496 1103 q 487 1060 496 1078 q 466 1030 478 1042 q 435 1004 454 1019 q 410 984 418 992 q 401 964 401 975 l 401 941 l 307 941 l 307 979 q 317 1006 307 994 q 351 1036 328 1018 q 389 1070 376 1055 q 401 1103 401 1085 q 388 1137 401 1126 q 353 1149 374 1149 q 301 1133 326 1149 q 264 1088 276 1116 l 214 1167 q 276 1215 239 1199 q 351 1231 313 1231 q 424 1215 391 1231 q 476 1171 456 1200 q 496 1103 496 1141 z "},"Ȋ":{"ha":694,"x_min":102,"x_max":600,"o":"m 102 0 l 102 129 l 269 129 l 269 736 l 110 736 l 110 865 l 593 865 l 593 736 l 425 736 l 425 127 l 600 127 l 600 0 l 102 0 m 460 945 q 412 1023 439 998 q 347 1047 385 1047 q 282 1023 310 1047 q 235 945 255 998 l 138 989 q 225 1099 172 1061 q 347 1137 279 1137 q 470 1099 416 1137 q 557 989 524 1061 l 460 945 z "},"Ī":{"ha":694,"x_min":102,"x_max":600,"o":"m 102 0 l 102 129 l 269 129 l 269 736 l 110 736 l 110 865 l 593 865 l 593 736 l 425 736 l 425 127 l 600 127 l 600 0 l 102 0 m 153 992 l 153 1081 l 542 1081 l 542 992 l 153 992 z "},"Į":{"ha":694,"x_min":102,"x_max":600,"o":"m 600 0 q 506 -134 506 -79 q 529 -179 506 -160 q 599 -208 553 -198 l 536 -330 q 399 -266 446 -307 q 353 -175 353 -225 q 386 -87 353 -132 q 481 0 418 -41 l 102 0 l 102 129 l 269 129 l 269 736 l 110 736 l 110 865 l 593 865 l 593 736 l 425 736 l 425 127 l 600 127 l 600 0 z "},"Ĩ":{"ha":694,"x_min":102,"x_max":600,"o":"m 102 0 l 102 129 l 269 129 l 269 736 l 110 736 l 110 865 l 593 865 l 593 736 l 425 736 l 425 127 l 600 127 l 600 0 l 102 0 m 584 1102 q 523 1020 557 1049 q 448 991 488 991 q 396 1003 418 991 q 347 1038 375 1015 q 309 1067 325 1058 q 273 1077 292 1077 q 224 1062 243 1077 q 191 1008 206 1046 l 104 1044 q 168 1138 126 1106 q 267 1170 210 1170 q 323 1157 300 1170 q 376 1121 347 1145 q 412 1095 397 1103 q 442 1086 426 1086 q 472 1100 459 1086 q 500 1145 485 1114 l 584 1102 z "},"J":{"ha":694,"x_min":35,"x_max":644,"o":"m 644 865 l 644 736 l 514 736 l 514 279 q 481 110 514 178 q 392 9 448 41 q 267 -24 336 -24 q 138 7 197 -24 q 35 97 79 38 l 123 197 l 123 199 l 125 197 q 182 130 153 150 q 250 110 211 110 q 313 129 289 110 q 347 189 336 148 q 358 297 358 230 l 358 736 l 197 736 l 197 865 l 644 865 m 123 199 q 120 206 120 205 q 121 207 120 207 q 124 205 122 207 q 127 203 125 204 l 123 199 m 142 195 q 141 194 142 194 q 134 198 139 194 q 127 203 130 201 l 131 207 l 142 197 l 142 195 z "},"Ĵ":{"ha":694,"x_min":35,"x_max":671,"o":"m 644 865 l 644 736 l 514 736 l 514 279 q 481 110 514 178 q 392 9 448 41 q 267 -24 336 -24 q 138 7 197 -24 q 35 97 79 38 l 123 197 l 123 199 l 125 197 q 182 130 153 150 q 250 110 211 110 q 313 129 289 110 q 347 189 336 148 q 358 297 358 230 l 358 736 l 197 736 l 197 865 l 644 865 m 123 199 q 120 206 120 205 q 121 207 120 207 q 124 205 122 207 q 127 203 125 204 l 123 199 m 142 195 q 141 194 142 194 q 134 198 139 194 q 127 203 130 201 l 131 207 l 142 197 l 142 195 m 235 901 l 185 961 l 408 1111 l 452 1111 l 671 964 l 618 901 l 431 993 l 235 901 z "},"K":{"ha":694,"x_min":60,"x_max":703,"o":"m 257 395 l 220 354 l 220 0 l 60 0 l 60 865 l 231 865 l 231 850 q 221 832 223 842 q 220 799 219 822 l 220 534 l 514 876 q 595 865 563 865 l 690 865 l 368 497 l 703 1 l 514 -7 l 257 395 z "},"Ķ":{"ha":694,"x_min":60,"x_max":703,"o":"m 257 395 l 220 354 l 220 0 l 60 0 l 60 865 l 231 865 l 231 850 q 221 832 223 842 q 220 799 219 822 l 220 534 l 514 876 q 595 865 563 865 l 690 865 l 368 497 l 703 1 l 514 -7 l 257 395 m 224 -361 q 283 -293 260 -328 q 306 -239 306 -258 q 301 -227 306 -233 q 284 -210 296 -221 q 256 -180 267 -194 q 246 -149 246 -166 q 272 -86 246 -112 q 340 -61 298 -61 q 390 -76 367 -61 q 428 -117 414 -91 q 443 -176 443 -144 q 295 -425 443 -274 l 224 -361 z "},"Ƙ":{"ha":694,"x_min":60,"x_max":703,"o":"m 514 -7 l 260 388 l 220 326 l 220 0 l 60 0 l 60 865 l 231 865 l 231 850 q 221 832 223 842 q 220 799 219 822 l 220 534 q 375 738 319 671 q 483 839 431 805 q 591 873 534 873 q 667 854 640 873 l 667 705 q 631 723 645 719 q 589 726 616 726 q 489 680 543 726 q 353 521 435 633 l 703 1 l 514 -7 m 667 705 q 675 698 675 699 q 667 696 675 695 l 667 705 m 651 694 q 650 696 650 696 q 653 698 650 698 q 667 696 657 698 l 667 694 l 651 694 z "},"L":{"ha":694,"x_min":85,"x_max":637,"o":"m 85 865 l 255 865 l 255 850 q 245 832 248 842 q 244 799 243 822 l 244 131 l 637 131 l 637 0 l 85 0 l 85 865 z "},"Ǉ":{"ha":694,"x_min":85,"x_max":660,"o":"m 85 865 l 254 865 q 251 846 254 855 q 244 817 246 831 l 244 131 l 415 131 l 415 0 l 85 0 l 85 865 m 412 -249 q 307 -225 355 -249 q 222 -155 258 -201 l 321 -36 q 332 -48 329 -42 q 339 -64 336 -54 q 351 -89 345 -79 q 406 -115 369 -115 q 480 -71 457 -115 q 504 72 504 -27 l 504 736 l 366 736 l 366 865 l 660 865 l 660 54 q 627 -115 660 -47 q 538 -216 594 -183 q 412 -249 482 -249 z "},"Ĺ":{"ha":694,"x_min":85,"x_max":637,"o":"m 85 865 l 255 865 l 255 850 q 245 832 248 842 q 244 799 243 822 l 244 131 l 637 131 l 637 0 l 85 0 l 85 865 m 240 908 l 212 958 l 425 1116 l 490 996 l 240 908 z "},"Ľ":{"ha":694,"x_min":85,"x_max":637,"o":"m 395 623 q 451 685 429 654 q 473 730 473 715 q 466 740 473 734 q 458 748 460 747 q 430 778 441 763 q 420 810 420 792 q 446 870 420 846 q 513 895 472 895 q 563 881 539 895 q 600 842 586 867 q 614 785 614 817 q 475 553 614 692 l 395 623 m 85 865 l 255 865 l 255 850 q 245 832 248 842 q 244 799 243 822 l 244 131 l 637 131 l 637 0 l 85 0 l 85 865 z "},"Ļ":{"ha":694,"x_min":85,"x_max":637,"o":"m 85 865 l 255 865 l 255 850 q 245 832 248 842 q 244 799 243 822 l 244 131 l 637 131 l 637 0 l 85 0 l 85 865 m 238 -361 q 296 -293 273 -328 q 319 -239 319 -258 q 314 -227 319 -233 q 298 -210 309 -221 q 270 -180 280 -194 q 260 -149 260 -166 q 286 -86 260 -112 q 354 -61 312 -61 q 404 -76 380 -61 q 442 -117 427 -91 q 456 -176 456 -144 q 309 -425 456 -274 l 238 -361 z "},"Ŀ":{"ha":694,"x_min":85,"x_max":637,"o":"m 85 865 l 255 865 l 255 850 q 245 832 248 842 q 244 799 243 822 l 244 131 l 637 131 l 637 0 l 85 0 l 85 865 m 469 364 q 416 377 440 364 q 377 413 391 390 q 363 463 363 435 q 378 512 363 489 q 417 548 393 534 q 469 561 442 561 q 523 547 497 561 q 564 510 548 533 q 579 463 579 487 q 565 413 579 436 q 525 377 550 391 q 469 364 500 364 z "},"Ḷ":{"ha":694,"x_min":85,"x_max":637,"o":"m 85 865 l 255 865 l 255 850 q 245 832 248 842 q 244 799 243 822 l 244 131 l 637 131 l 637 0 l 85 0 l 85 865 m 356 -250 q 295 -225 320 -250 q 271 -164 271 -200 q 282 -122 271 -142 q 313 -92 294 -103 q 356 -81 333 -81 q 398 -92 378 -81 q 428 -122 417 -103 q 439 -164 439 -142 q 428 -208 439 -188 q 398 -238 417 -227 q 356 -250 378 -250 z "},"ǈ":{"ha":694,"x_min":85,"x_max":650,"o":"m 553 761 q 504 773 526 761 q 469 807 481 786 q 456 852 456 828 q 483 919 456 892 q 553 945 510 945 q 601 932 578 945 q 637 898 623 920 q 650 852 650 877 q 637 807 650 828 q 601 773 623 786 q 553 761 578 761 m 85 865 l 254 865 q 250 844 254 855 q 244 817 244 831 l 244 131 l 387 131 l 387 0 l 85 0 l 85 865 m 364 -245 q 204 -178 270 -245 l 300 -52 q 309 -58 307 -54 q 314 -69 311 -61 q 326 -96 319 -85 q 345 -110 336 -106 q 368 -114 353 -114 q 443 -79 414 -114 q 471 26 471 -45 l 471 522 l 329 522 l 329 648 l 628 648 l 628 32 q 594 -125 628 -62 q 500 -216 559 -187 q 364 -245 441 -245 z "},"Ḻ":{"ha":694,"x_min":85,"x_max":637,"o":"m 85 865 l 255 865 l 255 850 q 245 832 248 842 q 244 799 243 822 l 244 131 l 637 131 l 637 0 l 85 0 l 85 865 m 153 -225 l 153 -136 l 542 -136 l 542 -225 l 153 -225 z "},"Ł":{"ha":694,"x_min":7,"x_max":637,"o":"m 85 307 l 7 282 l 7 414 l 85 439 l 85 865 l 254 865 q 257 859 257 863 q 252 845 257 856 q 244 817 246 834 l 244 492 l 436 554 q 486 586 458 564 l 486 437 l 244 358 l 244 132 l 637 132 l 637 1 l 85 1 l 85 307 z "},"M":{"ha":694,"x_min":41,"x_max":661,"o":"m 41 0 l 41 865 l 205 865 l 351 458 l 496 867 l 661 867 l 661 0 l 521 0 l 521 628 l 400 301 l 297 301 l 180 628 l 180 0 l 41 0 z "},"Ṃ":{"ha":694,"x_min":41,"x_max":661,"o":"m 41 0 l 41 865 l 205 865 l 351 458 l 496 867 l 661 867 l 661 0 l 521 0 l 521 628 l 400 301 l 297 301 l 180 628 l 180 0 l 41 0 m 356 -250 q 295 -225 320 -250 q 271 -164 271 -200 q 282 -122 271 -142 q 313 -92 294 -103 q 356 -81 333 -81 q 398 -92 378 -81 q 428 -122 417 -103 q 439 -164 439 -142 q 428 -208 439 -188 q 398 -238 417 -227 q 356 -250 378 -250 z "},"N":{"ha":694,"x_min":45,"x_max":661,"o":"m 45 865 l 235 865 l 510 245 l 510 865 l 661 865 l 661 850 q 651 832 653 842 q 650 799 649 822 l 650 0 l 478 0 l 184 654 l 184 0 l 45 0 l 45 865 z "},"Ń":{"ha":694,"x_min":45,"x_max":661,"o":"m 45 865 l 235 865 l 510 245 l 510 865 l 661 865 l 661 850 q 651 832 653 842 q 650 799 649 822 l 650 0 l 478 0 l 184 654 l 184 0 l 45 0 l 45 865 m 240 908 l 212 958 l 425 1116 l 490 996 l 240 908 z "},"Ň":{"ha":694,"x_min":45,"x_max":661,"o":"m 45 865 l 235 865 l 510 245 l 510 865 l 661 865 l 661 850 q 651 832 653 842 q 650 799 649 822 l 650 0 l 478 0 l 184 654 l 184 0 l 45 0 l 45 865 m 323 943 l 149 1090 l 201 1152 l 347 1061 l 504 1148 l 551 1093 l 366 943 l 323 943 z "},"Ņ":{"ha":694,"x_min":45,"x_max":661,"o":"m 45 865 l 235 865 l 510 245 l 510 865 l 661 865 l 661 850 q 651 832 653 842 q 650 799 649 822 l 650 0 l 478 0 l 184 654 l 184 0 l 45 0 l 45 865 m 238 -361 q 296 -293 273 -328 q 319 -239 319 -258 q 314 -227 319 -233 q 298 -210 309 -221 q 270 -180 280 -194 q 260 -149 260 -166 q 286 -86 260 -112 q 354 -61 312 -61 q 404 -76 380 -61 q 442 -117 427 -91 q 456 -176 456 -144 q 309 -425 456 -274 l 238 -361 z "},"Ṅ":{"ha":694,"x_min":45,"x_max":661,"o":"m 45 865 l 235 865 l 510 245 l 510 865 l 661 865 l 661 850 q 651 832 653 842 q 650 799 649 822 l 650 0 l 478 0 l 184 654 l 184 0 l 45 0 l 45 865 m 346 950 q 298 962 321 950 q 262 995 276 975 q 249 1040 249 1016 q 261 1084 249 1063 q 295 1118 273 1105 q 346 1131 317 1131 q 395 1118 372 1131 q 431 1085 418 1106 q 445 1040 445 1065 q 431 995 445 1016 q 395 962 418 975 q 346 950 372 950 z "},"Ṇ":{"ha":694,"x_min":45,"x_max":661,"o":"m 45 865 l 235 865 l 510 245 l 510 865 l 661 865 l 661 850 q 651 832 653 842 q 650 799 649 822 l 650 0 l 478 0 l 184 654 l 184 0 l 45 0 l 45 865 m 356 -250 q 295 -225 320 -250 q 271 -164 271 -200 q 282 -122 271 -142 q 313 -92 294 -103 q 356 -81 333 -81 q 398 -92 378 -81 q 428 -122 417 -103 q 439 -164 439 -142 q 428 -208 439 -188 q 398 -238 417 -227 q 356 -250 378 -250 z "},"Ŋ":{"ha":694,"x_min":45,"x_max":660,"o":"m 660 865 q 658 846 660 855 q 655 836 656 838 q 650 806 650 818 l 650 0 q 620 -146 650 -83 q 540 -243 591 -209 q 428 -277 489 -277 q 265 -218 347 -277 l 338 -92 q 352 -96 347 -92 q 364 -109 357 -100 q 384 -128 373 -121 q 418 -135 395 -135 q 485 -101 460 -135 q 509 -1 509 -66 l 184 654 l 184 0 l 45 0 l 45 865 l 207 865 l 510 256 l 510 865 l 660 865 z "},"Ṉ":{"ha":694,"x_min":45,"x_max":661,"o":"m 45 865 l 235 865 l 510 245 l 510 865 l 661 865 l 661 850 q 651 832 653 842 q 650 799 649 822 l 650 0 l 478 0 l 184 654 l 184 0 l 45 0 l 45 865 m 153 -225 l 153 -136 l 542 -136 l 542 -225 l 153 -225 z "},"Ñ":{"ha":694,"x_min":45,"x_max":661,"o":"m 45 865 l 235 865 l 510 245 l 510 865 l 661 865 l 661 850 q 651 832 653 842 q 650 799 649 822 l 650 0 l 478 0 l 184 654 l 184 0 l 45 0 l 45 865 m 584 1071 q 523 989 557 1018 q 448 960 488 960 q 396 971 418 960 q 347 1007 375 983 q 309 1036 325 1027 q 273 1046 292 1046 q 224 1030 243 1046 q 191 977 206 1015 l 104 1013 q 168 1107 126 1075 q 267 1139 210 1139 q 323 1126 300 1139 q 376 1090 347 1114 q 412 1064 397 1072 q 442 1055 426 1055 q 472 1069 459 1055 q 500 1114 485 1082 l 584 1071 z "},"O":{"ha":694,"x_min":24,"x_max":679,"o":"m 351 -25 q 175 30 249 -25 q 63 188 102 84 q 24 435 24 291 q 63 678 24 576 q 175 834 102 780 q 351 888 249 888 q 527 834 454 888 q 640 678 601 780 q 679 435 679 576 q 640 188 679 291 q 527 30 601 84 q 351 -25 454 -25 m 351 100 q 440 142 403 100 q 498 262 478 184 q 518 443 518 340 q 498 611 518 538 q 440 723 478 683 q 351 762 403 762 q 262 723 300 762 q 204 611 224 683 q 184 443 184 538 q 204 262 184 340 q 262 142 224 184 q 351 100 300 100 z "},"Ó":{"ha":694,"x_min":24,"x_max":679,"o":"m 351 -25 q 175 30 249 -25 q 63 188 102 84 q 24 435 24 291 q 63 678 24 576 q 175 834 102 780 q 351 888 249 888 q 527 834 454 888 q 640 678 601 780 q 679 435 679 576 q 640 188 679 291 q 527 30 601 84 q 351 -25 454 -25 m 351 100 q 440 142 403 100 q 498 262 478 184 q 518 443 518 340 q 498 611 518 538 q 440 723 478 683 q 351 762 403 762 q 262 723 300 762 q 204 611 224 683 q 184 443 184 538 q 204 262 184 340 q 262 142 224 184 q 351 100 300 100 m 243 908 l 215 958 l 428 1116 l 493 996 l 243 908 z "},"Ŏ":{"ha":694,"x_min":24,"x_max":679,"o":"m 351 -25 q 175 30 249 -25 q 63 188 102 84 q 24 435 24 291 q 63 678 24 576 q 175 834 102 780 q 351 888 249 888 q 527 834 454 888 q 640 678 601 780 q 679 435 679 576 q 640 188 679 291 q 527 30 601 84 q 351 -25 454 -25 m 351 100 q 440 142 403 100 q 498 262 478 184 q 518 443 518 340 q 498 611 518 538 q 440 723 478 683 q 351 762 403 762 q 262 723 300 762 q 204 611 224 683 q 184 443 184 538 q 204 262 184 340 q 262 142 224 184 q 351 100 300 100 m 560 1092 q 472 982 526 1020 q 350 944 418 944 q 228 982 281 944 q 140 1092 174 1020 l 237 1136 q 285 1058 258 1082 q 350 1034 313 1034 q 415 1058 388 1034 q 463 1136 441 1082 l 560 1092 z "},"Ô":{"ha":694,"x_min":24,"x_max":679,"o":"m 351 -25 q 175 30 249 -25 q 63 188 102 84 q 24 435 24 291 q 63 678 24 576 q 175 834 102 780 q 351 888 249 888 q 527 834 454 888 q 640 678 601 780 q 679 435 679 576 q 640 188 679 291 q 527 30 601 84 q 351 -25 454 -25 m 351 100 q 440 142 403 100 q 498 262 478 184 q 518 443 518 340 q 498 611 518 538 q 440 723 478 683 q 351 762 403 762 q 262 723 300 762 q 204 611 224 683 q 184 443 184 538 q 204 262 184 340 q 262 142 224 184 q 351 100 300 100 m 154 901 l 104 961 l 328 1111 l 371 1111 l 590 964 l 538 901 l 350 993 l 154 901 z "},"Ố":{"ha":694,"x_min":24,"x_max":775,"o":"m 351 -25 q 175 30 249 -25 q 63 188 102 84 q 24 435 24 291 q 63 678 24 576 q 175 834 102 780 q 351 888 249 888 q 527 834 454 888 q 640 678 601 780 q 679 435 679 576 q 640 188 679 291 q 527 30 601 84 q 351 -25 454 -25 m 351 100 q 440 142 403 100 q 498 262 478 184 q 518 443 518 340 q 498 611 518 538 q 440 723 478 683 q 351 762 403 762 q 262 723 300 762 q 204 611 224 683 q 184 443 184 538 q 204 262 184 340 q 262 142 224 184 q 351 100 300 100 m 150 901 l 100 961 l 323 1111 l 367 1111 l 586 964 l 534 901 l 346 993 l 150 901 m 525 1075 l 497 1125 l 710 1282 l 775 1162 l 525 1075 z "},"Ộ":{"ha":694,"x_min":24,"x_max":679,"o":"m 351 -25 q 175 30 249 -25 q 63 188 102 84 q 24 435 24 291 q 63 678 24 576 q 175 834 102 780 q 351 888 249 888 q 527 834 454 888 q 640 678 601 780 q 679 435 679 576 q 640 188 679 291 q 527 30 601 84 q 351 -25 454 -25 m 351 100 q 440 142 403 100 q 498 262 478 184 q 518 443 518 340 q 498 611 518 538 q 440 723 478 683 q 351 762 403 762 q 262 723 300 762 q 204 611 224 683 q 184 443 184 538 q 204 262 184 340 q 262 142 224 184 q 351 100 300 100 m 360 -250 q 299 -225 324 -250 q 275 -164 275 -200 q 286 -122 275 -142 q 317 -92 298 -103 q 360 -81 337 -81 q 402 -92 382 -81 q 432 -122 421 -103 q 444 -164 444 -142 q 432 -208 444 -188 q 402 -238 421 -227 q 360 -250 382 -250 m 154 901 l 104 961 l 328 1111 l 371 1111 l 590 964 l 538 901 l 350 993 l 154 901 z "},"Ồ":{"ha":694,"x_min":24,"x_max":679,"o":"m 351 -25 q 175 30 249 -25 q 63 188 102 84 q 24 435 24 291 q 63 678 24 576 q 175 834 102 780 q 351 888 249 888 q 527 834 454 888 q 640 678 601 780 q 679 435 679 576 q 640 188 679 291 q 527 30 601 84 q 351 -25 454 -25 m 351 100 q 440 142 403 100 q 498 262 478 184 q 518 443 518 340 q 498 611 518 538 q 440 723 478 683 q 351 762 403 762 q 262 723 300 762 q 204 611 224 683 q 184 443 184 538 q 204 262 184 340 q 262 142 224 184 q 351 100 300 100 m 157 901 l 107 961 l 330 1111 l 374 1111 l 593 964 l 541 901 l 353 993 l 157 901 m 503 1133 l 253 1221 l 318 1341 l 530 1183 l 503 1133 z "},"Ổ":{"ha":694,"x_min":24,"x_max":697,"o":"m 351 -25 q 175 30 249 -25 q 63 188 102 84 q 24 435 24 291 q 63 678 24 576 q 175 834 102 780 q 351 888 249 888 q 527 834 454 888 q 640 678 601 780 q 679 435 679 576 q 640 188 679 291 q 527 30 601 84 q 351 -25 454 -25 m 351 100 q 440 142 403 100 q 498 262 478 184 q 518 443 518 340 q 498 611 518 538 q 440 723 478 683 q 351 762 403 762 q 262 723 300 762 q 204 611 224 683 q 184 443 184 538 q 204 262 184 340 q 262 142 224 184 q 351 100 300 100 m 151 901 l 102 961 l 325 1111 l 368 1111 l 587 964 l 535 901 l 347 993 l 151 901 m 697 1211 q 688 1168 697 1186 q 668 1138 680 1149 q 636 1112 656 1126 q 611 1092 619 1100 q 603 1072 603 1083 l 603 1048 l 508 1048 l 508 1087 q 519 1114 508 1101 q 553 1144 530 1126 q 590 1178 577 1163 q 603 1211 603 1193 q 589 1245 603 1234 q 554 1257 575 1257 q 503 1240 528 1257 q 465 1196 477 1224 l 415 1275 q 477 1323 441 1307 q 553 1339 514 1339 q 625 1323 592 1339 q 677 1278 658 1308 q 697 1211 697 1249 z "},"Ỗ":{"ha":694,"x_min":24,"x_max":679,"o":"m 351 -25 q 175 30 249 -25 q 63 188 102 84 q 24 435 24 291 q 63 678 24 576 q 175 834 102 780 q 351 888 249 888 q 527 834 454 888 q 640 678 601 780 q 679 435 679 576 q 640 188 679 291 q 527 30 601 84 q 351 -25 454 -25 m 351 100 q 440 142 403 100 q 498 262 478 184 q 518 443 518 340 q 498 611 518 538 q 440 723 478 683 q 351 762 403 762 q 262 723 300 762 q 204 611 224 683 q 184 443 184 538 q 204 262 184 340 q 262 142 224 184 q 351 100 300 100 m 154 901 l 104 961 l 328 1111 l 371 1111 l 590 964 l 538 901 l 350 993 l 154 901 m 570 1238 q 525 1158 553 1182 q 467 1133 497 1133 q 403 1148 430 1133 q 346 1190 376 1163 q 309 1219 323 1210 q 278 1228 294 1228 q 232 1208 250 1228 q 208 1146 214 1187 l 134 1164 q 183 1269 145 1233 q 277 1305 221 1305 q 333 1292 309 1305 q 385 1253 357 1278 q 419 1225 406 1234 q 448 1217 433 1217 q 482 1233 468 1217 q 502 1276 496 1250 l 570 1238 z "},"Ȍ":{"ha":694,"x_min":24,"x_max":679,"o":"m 351 -25 q 175 30 249 -25 q 63 188 102 84 q 24 435 24 291 q 63 678 24 576 q 175 834 102 780 q 351 888 249 888 q 527 834 454 888 q 640 678 601 780 q 679 435 679 576 q 640 188 679 291 q 527 30 601 84 q 351 -25 454 -25 m 351 100 q 440 142 403 100 q 498 262 478 184 q 518 443 518 340 q 498 611 518 538 q 440 723 478 683 q 351 762 403 762 q 262 723 300 762 q 204 611 224 683 q 184 443 184 538 q 204 262 184 340 q 262 142 224 184 q 351 100 300 100 m 272 935 l 126 1131 l 220 1199 l 332 970 l 272 935 m 494 935 l 349 1131 l 443 1199 l 554 970 l 494 935 z "},"Ö":{"ha":694,"x_min":24,"x_max":679,"o":"m 351 -25 q 175 30 249 -25 q 63 188 102 84 q 24 435 24 291 q 63 678 24 576 q 175 834 102 780 q 351 888 249 888 q 527 834 454 888 q 640 678 601 780 q 679 435 679 576 q 640 188 679 291 q 527 30 601 84 q 351 -25 454 -25 m 351 100 q 440 142 403 100 q 498 262 478 184 q 518 443 518 340 q 498 611 518 538 q 440 723 478 683 q 351 762 403 762 q 262 723 300 762 q 204 611 224 683 q 184 443 184 538 q 204 262 184 340 q 262 142 224 184 q 351 100 300 100 m 222 949 q 174 961 196 949 q 139 993 152 972 q 126 1038 126 1014 q 139 1082 126 1061 q 174 1116 152 1103 q 222 1128 196 1128 q 272 1115 250 1128 q 307 1081 294 1102 q 319 1038 319 1061 q 306 993 319 1014 q 270 961 293 972 q 222 949 248 949 m 477 949 q 429 961 451 949 q 395 993 408 972 q 382 1038 382 1013 q 395 1083 382 1062 q 430 1116 408 1103 q 477 1128 452 1128 q 527 1115 505 1128 q 561 1081 549 1102 q 573 1038 573 1060 q 560 993 573 1014 q 525 961 547 972 q 477 949 503 949 z "},"Ȫ":{"ha":694,"x_min":24,"x_max":679,"o":"m 351 -25 q 175 30 249 -25 q 63 188 102 84 q 24 435 24 291 q 63 678 24 576 q 175 834 102 780 q 351 888 249 888 q 527 834 454 888 q 640 678 601 780 q 679 435 679 576 q 640 188 679 291 q 527 30 601 84 q 351 -25 454 -25 m 351 100 q 440 142 403 100 q 498 262 478 184 q 518 443 518 340 q 498 611 518 538 q 440 723 478 683 q 351 762 403 762 q 262 723 300 762 q 204 611 224 683 q 184 443 184 538 q 204 262 184 340 q 262 142 224 184 q 351 100 300 100 m 222 949 q 174 961 196 949 q 139 993 152 972 q 126 1038 126 1014 q 139 1082 126 1061 q 174 1116 152 1103 q 222 1128 196 1128 q 272 1115 250 1128 q 307 1081 294 1102 q 319 1038 319 1061 q 306 993 319 1014 q 270 961 293 972 q 222 949 248 949 m 477 949 q 429 961 451 949 q 395 993 408 972 q 382 1038 382 1013 q 395 1083 382 1062 q 430 1116 408 1103 q 477 1128 452 1128 q 527 1115 505 1128 q 561 1081 549 1102 q 573 1038 573 1060 q 560 993 573 1014 q 525 961 547 972 q 477 949 503 949 m 155 1227 l 155 1316 l 545 1316 l 545 1227 l 155 1227 z "},"Ȱ":{"ha":694,"x_min":24,"x_max":679,"o":"m 351 -25 q 175 30 249 -25 q 63 188 102 84 q 24 435 24 291 q 63 678 24 576 q 175 834 102 780 q 351 888 249 888 q 527 834 454 888 q 640 678 601 780 q 679 435 679 576 q 640 188 679 291 q 527 30 601 84 q 351 -25 454 -25 m 351 100 q 440 142 403 100 q 498 262 478 184 q 518 443 518 340 q 498 611 518 538 q 440 723 478 683 q 351 762 403 762 q 262 723 300 762 q 204 611 224 683 q 184 443 184 538 q 204 262 184 340 q 262 142 224 184 q 351 100 300 100 m 349 950 q 301 962 323 950 q 265 995 279 975 q 252 1040 252 1016 q 264 1084 252 1063 q 298 1118 276 1105 q 349 1131 320 1131 q 398 1118 375 1131 q 434 1085 420 1106 q 448 1040 448 1065 q 434 995 448 1016 q 398 962 420 975 q 349 950 375 950 m 161 1185 l 161 1274 l 551 1274 l 551 1185 l 161 1185 z "},"Ọ":{"ha":694,"x_min":24,"x_max":679,"o":"m 351 -25 q 175 30 249 -25 q 63 188 102 84 q 24 435 24 291 q 63 678 24 576 q 175 834 102 780 q 351 888 249 888 q 527 834 454 888 q 640 678 601 780 q 679 435 679 576 q 640 188 679 291 q 527 30 601 84 q 351 -25 454 -25 m 351 100 q 440 142 403 100 q 498 262 478 184 q 518 443 518 340 q 498 611 518 538 q 440 723 478 683 q 351 762 403 762 q 262 723 300 762 q 204 611 224 683 q 184 443 184 538 q 204 262 184 340 q 262 142 224 184 q 351 100 300 100 m 360 -250 q 299 -225 324 -250 q 275 -164 275 -200 q 286 -122 275 -142 q 317 -92 298 -103 q 360 -81 337 -81 q 402 -92 382 -81 q 432 -122 421 -103 q 444 -164 444 -142 q 432 -208 444 -188 q 402 -238 421 -227 q 360 -250 382 -250 z "},"Ò":{"ha":694,"x_min":24,"x_max":679,"o":"m 351 -25 q 175 30 249 -25 q 63 188 102 84 q 24 435 24 291 q 63 678 24 576 q 175 834 102 780 q 351 888 249 888 q 527 834 454 888 q 640 678 601 780 q 679 435 679 576 q 640 188 679 291 q 527 30 601 84 q 351 -25 454 -25 m 351 100 q 440 142 403 100 q 498 262 478 184 q 518 443 518 340 q 498 611 518 538 q 440 723 478 683 q 351 762 403 762 q 262 723 300 762 q 204 611 224 683 q 184 443 184 538 q 204 262 184 340 q 262 142 224 184 q 351 100 300 100 m 456 908 l 207 996 l 272 1116 l 484 958 l 456 908 z "},"Ỏ":{"ha":694,"x_min":24,"x_max":679,"o":"m 351 -25 q 175 30 249 -25 q 63 188 102 84 q 24 435 24 291 q 63 678 24 576 q 175 834 102 780 q 351 888 249 888 q 527 834 454 888 q 640 678 601 780 q 679 435 679 576 q 640 188 679 291 q 527 30 601 84 q 351 -25 454 -25 m 351 100 q 440 142 403 100 q 498 262 478 184 q 518 443 518 340 q 498 611 518 538 q 440 723 478 683 q 351 762 403 762 q 262 723 300 762 q 204 611 224 683 q 184 443 184 538 q 204 262 184 340 q 262 142 224 184 q 351 100 300 100 m 498 1103 q 490 1060 498 1078 q 469 1030 481 1042 q 437 1004 457 1019 q 412 984 420 992 q 404 964 404 975 l 404 941 l 309 941 l 309 979 q 320 1006 309 994 q 354 1036 331 1018 q 391 1070 378 1055 q 404 1103 404 1085 q 390 1137 404 1126 q 355 1149 376 1149 q 304 1133 329 1149 q 267 1088 279 1116 l 216 1167 q 279 1215 242 1199 q 354 1231 315 1231 q 426 1215 393 1231 q 479 1171 459 1200 q 498 1103 498 1141 z "},"Ơ":{"ha":694,"x_min":24,"x_max":704,"o":"m 704 930 q 686 771 704 822 q 628 707 669 720 q 679 435 679 597 q 640 188 679 291 q 527 30 601 84 q 351 -25 454 -25 q 175 30 249 -25 q 63 188 102 84 q 24 435 24 291 q 63 678 24 576 q 175 834 102 780 q 351 888 249 888 q 469 866 415 888 q 562 804 522 845 q 575 842 571 812 q 579 930 579 873 l 704 930 m 351 100 q 440 142 403 100 q 498 262 478 184 q 518 443 518 340 q 498 611 518 538 q 440 723 478 683 q 351 762 403 762 q 262 723 300 762 q 204 611 224 683 q 184 443 184 538 q 204 262 184 340 q 262 142 224 184 q 351 100 300 100 z "},"Ớ":{"ha":694,"x_min":24,"x_max":704,"o":"m 704 930 q 686 771 704 822 q 628 707 669 720 q 679 435 679 597 q 640 188 679 291 q 527 30 601 84 q 351 -25 454 -25 q 175 30 249 -25 q 63 188 102 84 q 24 435 24 291 q 63 678 24 576 q 175 834 102 780 q 351 888 249 888 q 469 866 415 888 q 562 804 522 845 q 575 842 571 812 q 579 930 579 873 l 704 930 m 351 100 q 440 142 403 100 q 498 262 478 184 q 518 443 518 340 q 498 611 518 538 q 440 723 478 683 q 351 762 403 762 q 262 723 300 762 q 204 611 224 683 q 184 443 184 538 q 204 262 184 340 q 262 142 224 184 q 351 100 300 100 m 243 908 l 215 958 l 428 1116 l 493 996 l 243 908 z "},"Ợ":{"ha":694,"x_min":24,"x_max":704,"o":"m 704 930 q 686 771 704 822 q 628 707 669 720 q 679 435 679 597 q 640 188 679 291 q 527 30 601 84 q 351 -25 454 -25 q 175 30 249 -25 q 63 188 102 84 q 24 435 24 291 q 63 678 24 576 q 175 834 102 780 q 351 888 249 888 q 469 866 415 888 q 562 804 522 845 q 575 842 571 812 q 579 930 579 873 l 704 930 m 351 100 q 440 142 403 100 q 498 262 478 184 q 518 443 518 340 q 498 611 518 538 q 440 723 478 683 q 351 762 403 762 q 262 723 300 762 q 204 611 224 683 q 184 443 184 538 q 204 262 184 340 q 262 142 224 184 q 351 100 300 100 m 360 -250 q 299 -225 324 -250 q 275 -164 275 -200 q 286 -122 275 -142 q 317 -92 298 -103 q 360 -81 337 -81 q 402 -92 382 -81 q 432 -122 421 -103 q 444 -164 444 -142 q 432 -208 444 -188 q 402 -238 421 -227 q 360 -250 382 -250 z "},"Ờ":{"ha":694,"x_min":24,"x_max":704,"o":"m 704 930 q 686 771 704 822 q 628 707 669 720 q 679 435 679 597 q 640 188 679 291 q 527 30 601 84 q 351 -25 454 -25 q 175 30 249 -25 q 63 188 102 84 q 24 435 24 291 q 63 678 24 576 q 175 834 102 780 q 351 888 249 888 q 469 866 415 888 q 562 804 522 845 q 575 842 571 812 q 579 930 579 873 l 704 930 m 351 100 q 440 142 403 100 q 498 262 478 184 q 518 443 518 340 q 498 611 518 538 q 440 723 478 683 q 351 762 403 762 q 262 723 300 762 q 204 611 224 683 q 184 443 184 538 q 204 262 184 340 q 262 142 224 184 q 351 100 300 100 m 456 908 l 207 996 l 272 1116 l 484 958 l 456 908 z "},"Ở":{"ha":694,"x_min":24,"x_max":704,"o":"m 704 930 q 686 771 704 822 q 628 707 669 720 q 679 435 679 597 q 640 188 679 291 q 527 30 601 84 q 351 -25 454 -25 q 175 30 249 -25 q 63 188 102 84 q 24 435 24 291 q 63 678 24 576 q 175 834 102 780 q 351 888 249 888 q 469 866 415 888 q 562 804 522 845 q 575 842 571 812 q 579 930 579 873 l 704 930 m 351 100 q 440 142 403 100 q 498 262 478 184 q 518 443 518 340 q 498 611 518 538 q 440 723 478 683 q 351 762 403 762 q 262 723 300 762 q 204 611 224 683 q 184 443 184 538 q 204 262 184 340 q 262 142 224 184 q 351 100 300 100 m 498 1103 q 490 1060 498 1078 q 469 1030 481 1042 q 437 1004 457 1019 q 412 984 420 992 q 404 964 404 975 l 404 941 l 309 941 l 309 979 q 320 1006 309 994 q 354 1036 331 1018 q 391 1070 378 1055 q 404 1103 404 1085 q 390 1137 404 1126 q 355 1149 376 1149 q 304 1133 329 1149 q 267 1088 279 1116 l 216 1167 q 279 1215 242 1199 q 354 1231 315 1231 q 426 1215 393 1231 q 479 1171 459 1200 q 498 1103 498 1141 z "},"Ỡ":{"ha":694,"x_min":24,"x_max":704,"o":"m 704 930 q 686 771 704 822 q 628 707 669 720 q 679 435 679 597 q 640 188 679 291 q 527 30 601 84 q 351 -25 454 -25 q 175 30 249 -25 q 63 188 102 84 q 24 435 24 291 q 63 678 24 576 q 175 834 102 780 q 351 888 249 888 q 469 866 415 888 q 562 804 522 845 q 575 842 571 812 q 579 930 579 873 l 704 930 m 351 100 q 440 142 403 100 q 498 262 478 184 q 518 443 518 340 q 498 611 518 538 q 440 723 478 683 q 351 762 403 762 q 262 723 300 762 q 204 611 224 683 q 184 443 184 538 q 204 262 184 340 q 262 142 224 184 q 351 100 300 100 m 587 1071 q 526 989 560 1018 q 450 960 491 960 q 399 971 420 960 q 349 1007 378 983 q 311 1036 328 1027 q 275 1046 295 1046 q 227 1030 245 1046 q 193 977 209 1015 l 107 1013 q 171 1107 129 1075 q 270 1139 213 1139 q 326 1126 302 1139 q 378 1090 350 1114 q 414 1064 400 1072 q 445 1055 429 1055 q 475 1069 462 1055 q 503 1114 488 1082 l 587 1071 z "},"Ő":{"ha":694,"x_min":24,"x_max":679,"o":"m 351 -25 q 175 30 249 -25 q 63 188 102 84 q 24 435 24 291 q 63 678 24 576 q 175 834 102 780 q 351 888 249 888 q 527 834 454 888 q 640 678 601 780 q 679 435 679 576 q 640 188 679 291 q 527 30 601 84 q 351 -25 454 -25 m 351 100 q 440 142 403 100 q 498 262 478 184 q 518 443 518 340 q 498 611 518 538 q 440 723 478 683 q 351 762 403 762 q 262 723 300 762 q 204 611 224 683 q 184 443 184 538 q 204 262 184 340 q 262 142 224 184 q 351 100 300 100 m 144 886 l 92 953 l 279 1143 l 360 1028 l 144 886 m 393 886 l 340 953 l 528 1143 l 608 1028 l 393 886 z "},"Ȏ":{"ha":694,"x_min":24,"x_max":679,"o":"m 351 -25 q 175 30 249 -25 q 63 188 102 84 q 24 435 24 291 q 63 678 24 576 q 175 834 102 780 q 351 888 249 888 q 527 834 454 888 q 640 678 601 780 q 679 435 679 576 q 640 188 679 291 q 527 30 601 84 q 351 -25 454 -25 m 351 100 q 440 142 403 100 q 498 262 478 184 q 518 443 518 340 q 498 611 518 538 q 440 723 478 683 q 351 762 403 762 q 262 723 300 762 q 204 611 224 683 q 184 443 184 538 q 204 262 184 340 q 262 142 224 184 q 351 100 300 100 m 463 945 q 415 1023 441 998 q 350 1047 388 1047 q 285 1023 313 1047 q 237 945 258 998 l 140 989 q 228 1099 174 1061 q 350 1137 281 1137 q 472 1099 418 1137 q 560 989 526 1061 l 463 945 z "},"Ō":{"ha":694,"x_min":24,"x_max":679,"o":"m 351 -25 q 175 30 249 -25 q 63 188 102 84 q 24 435 24 291 q 63 678 24 576 q 175 834 102 780 q 351 888 249 888 q 527 834 454 888 q 640 678 601 780 q 679 435 679 576 q 640 188 679 291 q 527 30 601 84 q 351 -25 454 -25 m 351 100 q 440 142 403 100 q 498 262 478 184 q 518 443 518 340 q 498 611 518 538 q 440 723 478 683 q 351 762 403 762 q 262 723 300 762 q 204 611 224 683 q 184 443 184 538 q 204 262 184 340 q 262 142 224 184 q 351 100 300 100 m 155 992 l 155 1081 l 545 1081 l 545 992 l 155 992 z "},"Ṓ":{"ha":694,"x_min":24,"x_max":679,"o":"m 351 -25 q 175 30 249 -25 q 63 188 102 84 q 24 435 24 291 q 63 678 24 576 q 175 834 102 780 q 351 888 249 888 q 527 834 454 888 q 640 678 601 780 q 679 435 679 576 q 640 188 679 291 q 527 30 601 84 q 351 -25 454 -25 m 351 100 q 440 142 403 100 q 498 262 478 184 q 518 443 518 340 q 498 611 518 538 q 440 723 478 683 q 351 762 403 762 q 262 723 300 762 q 204 611 224 683 q 184 443 184 538 q 204 262 184 340 q 262 142 224 184 q 351 100 300 100 m 155 992 l 155 1081 l 545 1081 l 545 992 l 155 992 m 243 1111 l 215 1161 l 428 1318 l 493 1198 l 243 1111 z "},"Ṑ":{"ha":694,"x_min":24,"x_max":679,"o":"m 351 -25 q 175 30 249 -25 q 63 188 102 84 q 24 435 24 291 q 63 678 24 576 q 175 834 102 780 q 351 888 249 888 q 527 834 454 888 q 640 678 601 780 q 679 435 679 576 q 640 188 679 291 q 527 30 601 84 q 351 -25 454 -25 m 351 100 q 440 142 403 100 q 498 262 478 184 q 518 443 518 340 q 498 611 518 538 q 440 723 478 683 q 351 762 403 762 q 262 723 300 762 q 204 611 224 683 q 184 443 184 538 q 204 262 184 340 q 262 142 224 184 q 351 100 300 100 m 155 992 l 155 1081 l 545 1081 l 545 992 l 155 992 m 456 1111 l 207 1198 l 272 1318 l 484 1161 l 456 1111 z "},"Ǫ":{"ha":694,"x_min":24,"x_max":679,"o":"m 679 435 q 633 171 679 279 q 503 14 588 63 q 409 -120 409 -66 q 432 -165 409 -146 q 502 -195 456 -184 l 439 -317 q 302 -253 349 -294 q 256 -161 256 -212 q 276 -94 256 -129 q 334 -24 296 -58 q 167 36 237 -20 q 61 194 98 92 q 24 435 24 295 q 63 678 24 576 q 175 834 102 780 q 351 888 249 888 q 527 834 454 888 q 640 678 601 780 q 679 435 679 576 m 351 100 q 440 142 403 100 q 498 262 478 184 q 518 443 518 340 q 498 611 518 538 q 440 723 478 683 q 351 762 403 762 q 262 723 300 762 q 204 611 224 683 q 184 443 184 538 q 204 262 184 340 q 262 142 224 184 q 351 100 300 100 z "},"Ø":{"ha":694,"x_min":24,"x_max":679,"o":"m 578 786 q 653 638 627 727 q 679 435 679 549 q 640 188 679 291 q 527 30 601 84 q 351 -25 454 -25 q 178 28 252 -25 l 122 -78 l 45 -31 l 112 95 q 46 241 69 155 q 24 435 24 327 q 63 678 24 576 q 175 834 102 780 q 351 888 249 888 q 511 845 442 888 l 566 947 l 643 908 l 578 786 m 184 443 q 203 267 184 345 l 444 719 q 351 762 404 762 q 262 723 300 762 q 204 611 224 683 q 184 443 184 538 m 351 100 q 440 142 403 100 q 498 262 478 184 q 518 443 518 340 q 494 626 518 551 l 248 161 q 351 100 290 100 z "},"Ǿ":{"ha":694,"x_min":24,"x_max":679,"o":"m 578 786 q 653 638 627 727 q 679 435 679 549 q 640 188 679 291 q 527 30 601 84 q 351 -25 454 -25 q 178 28 252 -25 l 122 -78 l 45 -31 l 112 95 q 46 241 69 155 q 24 435 24 327 q 63 678 24 576 q 175 834 102 780 q 351 888 249 888 q 511 845 442 888 l 566 947 l 643 908 l 578 786 m 184 443 q 203 267 184 345 l 444 719 q 351 762 404 762 q 262 723 300 762 q 204 611 224 683 q 184 443 184 538 m 351 100 q 440 142 403 100 q 498 262 478 184 q 518 443 518 340 q 494 626 518 551 l 248 161 q 351 100 290 100 m 243 908 l 215 958 l 428 1116 l 493 996 l 243 908 z "},"Õ":{"ha":694,"x_min":24,"x_max":679,"o":"m 351 -25 q 175 30 249 -25 q 63 188 102 84 q 24 435 24 291 q 63 678 24 576 q 175 834 102 780 q 351 888 249 888 q 527 834 454 888 q 640 678 601 780 q 679 435 679 576 q 640 188 679 291 q 527 30 601 84 q 351 -25 454 -25 m 351 100 q 440 142 403 100 q 498 262 478 184 q 518 443 518 340 q 498 611 518 538 q 440 723 478 683 q 351 762 403 762 q 262 723 300 762 q 204 611 224 683 q 184 443 184 538 q 204 262 184 340 q 262 142 224 184 q 351 100 300 100 m 587 1071 q 526 989 560 1018 q 450 960 491 960 q 399 971 420 960 q 349 1007 378 983 q 311 1036 328 1027 q 275 1046 295 1046 q 227 1030 245 1046 q 193 977 209 1015 l 107 1013 q 171 1107 129 1075 q 270 1139 213 1139 q 326 1126 302 1139 q 378 1090 350 1114 q 414 1064 400 1072 q 445 1055 429 1055 q 475 1069 462 1055 q 503 1114 488 1082 l 587 1071 z "},"Ṍ":{"ha":694,"x_min":24,"x_max":679,"o":"m 351 -25 q 175 30 249 -25 q 63 188 102 84 q 24 435 24 291 q 63 678 24 576 q 175 834 102 780 q 351 888 249 888 q 527 834 454 888 q 640 678 601 780 q 679 435 679 576 q 640 188 679 291 q 527 30 601 84 q 351 -25 454 -25 m 351 100 q 440 142 403 100 q 498 262 478 184 q 518 443 518 340 q 498 611 518 538 q 440 723 478 683 q 351 762 403 762 q 262 723 300 762 q 204 611 224 683 q 184 443 184 538 q 204 262 184 340 q 262 142 224 184 q 351 100 300 100 m 587 1071 q 526 989 560 1018 q 450 960 491 960 q 399 971 420 960 q 349 1007 378 983 q 311 1036 328 1027 q 275 1046 295 1046 q 227 1030 245 1046 q 193 977 209 1015 l 107 1013 q 171 1107 129 1075 q 270 1139 213 1139 q 326 1126 302 1139 q 378 1090 350 1114 q 414 1064 400 1072 q 445 1055 429 1055 q 475 1069 462 1055 q 503 1114 488 1082 l 587 1071 m 243 1175 l 215 1225 l 428 1382 l 493 1262 l 243 1175 z "},"Ṏ":{"ha":694,"x_min":24,"x_max":679,"o":"m 351 -25 q 175 30 249 -25 q 63 188 102 84 q 24 435 24 291 q 63 678 24 576 q 175 834 102 780 q 351 888 249 888 q 527 834 454 888 q 640 678 601 780 q 679 435 679 576 q 640 188 679 291 q 527 30 601 84 q 351 -25 454 -25 m 351 100 q 440 142 403 100 q 498 262 478 184 q 518 443 518 340 q 498 611 518 538 q 440 723 478 683 q 351 762 403 762 q 262 723 300 762 q 204 611 224 683 q 184 443 184 538 q 204 262 184 340 q 262 142 224 184 q 351 100 300 100 m 587 1071 q 526 989 560 1018 q 450 960 491 960 q 399 971 420 960 q 349 1007 378 983 q 311 1036 328 1027 q 275 1046 295 1046 q 227 1030 245 1046 q 193 977 209 1015 l 107 1013 q 171 1107 129 1075 q 270 1139 213 1139 q 326 1126 302 1139 q 378 1090 350 1114 q 414 1064 400 1072 q 445 1055 429 1055 q 475 1069 462 1055 q 503 1114 488 1082 l 587 1071 m 222 1215 q 174 1227 196 1215 q 139 1260 152 1239 q 126 1304 126 1280 q 139 1349 126 1328 q 174 1382 152 1370 q 222 1394 196 1394 q 272 1381 250 1394 q 307 1348 294 1369 q 319 1304 319 1327 q 306 1260 319 1280 q 270 1227 293 1239 q 222 1215 248 1215 m 477 1215 q 429 1227 451 1215 q 395 1259 408 1239 q 382 1304 382 1280 q 395 1349 382 1329 q 430 1382 408 1370 q 477 1394 452 1394 q 527 1381 505 1394 q 561 1348 549 1369 q 573 1304 573 1326 q 560 1260 573 1280 q 525 1227 547 1239 q 477 1215 503 1215 z "},"Ȭ":{"ha":694,"x_min":24,"x_max":679,"o":"m 351 -25 q 175 30 249 -25 q 63 188 102 84 q 24 435 24 291 q 63 678 24 576 q 175 834 102 780 q 351 888 249 888 q 527 834 454 888 q 640 678 601 780 q 679 435 679 576 q 640 188 679 291 q 527 30 601 84 q 351 -25 454 -25 m 351 100 q 440 142 403 100 q 498 262 478 184 q 518 443 518 340 q 498 611 518 538 q 440 723 478 683 q 351 762 403 762 q 262 723 300 762 q 204 611 224 683 q 184 443 184 538 q 204 262 184 340 q 262 142 224 184 q 351 100 300 100 m 569 1088 q 525 1008 553 1032 q 467 983 496 983 q 402 998 429 983 q 345 1040 376 1013 q 308 1069 323 1060 q 277 1078 294 1078 q 231 1058 250 1078 q 207 996 213 1038 l 133 1015 q 182 1119 144 1083 q 276 1156 220 1156 q 332 1142 309 1156 q 385 1103 356 1128 q 418 1076 405 1084 q 447 1067 432 1067 q 481 1083 467 1067 q 501 1126 496 1100 l 569 1088 m 143 1210 l 143 1299 l 532 1299 l 532 1210 l 143 1210 z "},"Œ":{"ha":694,"x_min":4,"x_max":685,"o":"m 245 -9 q 117 39 171 -9 q 34 185 63 87 q 4 433 4 284 q 67 765 4 652 q 250 878 131 878 q 293 869 270 878 q 332 846 315 861 l 332 867 l 685 867 l 685 733 l 469 733 l 469 518 l 652 518 l 652 383 l 469 383 l 469 134 l 682 134 l 682 0 l 330 0 l 330 22 q 289 -1 312 8 q 245 -9 266 -9 m 261 123 q 303 144 287 123 q 323 200 319 164 l 323 663 q 297 725 316 701 q 250 749 279 749 q 179 677 205 749 q 153 435 153 605 q 261 123 153 123 z "},"P":{"ha":694,"x_min":69,"x_max":654,"o":"m 69 865 l 363 865 q 527 831 462 865 q 623 738 592 796 q 654 606 654 679 q 624 475 654 532 q 530 384 593 417 q 370 350 466 350 l 228 350 l 228 0 l 69 0 l 69 865 m 358 482 q 461 515 427 482 q 494 602 494 547 q 460 693 494 659 q 359 728 426 728 l 228 728 l 228 482 l 358 482 z "},"Þ":{"ha":694,"x_min":69,"x_max":654,"o":"m 69 865 l 239 865 q 241 859 241 863 q 236 845 241 856 q 229 817 231 834 l 229 717 l 363 717 q 527 682 462 717 q 623 589 592 648 q 654 457 654 530 q 624 326 654 384 q 530 235 593 269 q 370 201 466 201 l 228 201 l 228 0 l 69 0 l 69 865 m 358 334 q 461 366 427 334 q 494 453 494 399 q 479 516 494 487 q 434 562 465 545 q 359 579 404 579 l 229 579 l 228 334 l 358 334 z "},"Q":{"ha":694,"x_min":24,"x_max":671,"o":"m 504 -203 q 331 -159 386 -203 q 272 -16 275 -115 q 138 67 194 5 q 53 224 82 130 q 24 435 24 319 q 64 671 24 568 q 178 831 104 774 q 350 888 252 888 q 512 837 439 888 q 628 684 585 786 q 671 433 671 581 q 637 203 671 298 q 548 56 604 109 q 421 -16 492 3 q 438 -55 423 -41 q 482 -68 454 -68 l 619 -62 l 615 -203 l 504 -203 m 350 117 q 464 192 420 117 q 509 436 509 267 q 486 615 509 545 q 427 717 463 686 q 351 749 391 749 q 231 677 277 749 q 184 443 184 606 q 205 266 184 339 q 264 154 227 192 q 350 117 301 117 z "},"R":{"ha":694,"x_min":65,"x_max":679,"o":"m 65 865 l 339 865 q 568 797 494 865 q 642 607 642 729 q 621 512 642 559 q 563 428 600 465 q 476 376 525 392 l 679 0 l 504 0 l 325 358 l 224 358 l 224 0 l 65 0 l 65 865 m 349 490 q 449 522 416 490 q 482 607 482 553 q 450 698 482 668 q 349 728 418 728 l 224 728 l 224 490 l 349 490 z "},"Ŕ":{"ha":694,"x_min":65,"x_max":679,"o":"m 65 865 l 339 865 q 568 797 494 865 q 642 607 642 729 q 621 512 642 559 q 563 428 600 465 q 476 376 525 392 l 679 0 l 504 0 l 325 358 l 224 358 l 224 0 l 65 0 l 65 865 m 349 490 q 449 522 416 490 q 482 607 482 553 q 450 698 482 668 q 349 728 418 728 l 224 728 l 224 490 l 349 490 m 240 908 l 212 958 l 425 1116 l 490 996 l 240 908 z "},"Ř":{"ha":694,"x_min":65,"x_max":679,"o":"m 65 865 l 339 865 q 568 797 494 865 q 642 607 642 729 q 621 512 642 559 q 563 428 600 465 q 476 376 525 392 l 679 0 l 504 0 l 325 358 l 224 358 l 224 0 l 65 0 l 65 865 m 349 490 q 449 522 416 490 q 482 607 482 553 q 450 698 482 668 q 349 728 418 728 l 224 728 l 224 490 l 349 490 m 323 943 l 149 1090 l 201 1152 l 347 1061 l 504 1148 l 551 1093 l 366 943 l 323 943 z "},"Ŗ":{"ha":694,"x_min":65,"x_max":679,"o":"m 65 865 l 339 865 q 568 797 494 865 q 642 607 642 729 q 621 512 642 559 q 563 428 600 465 q 476 376 525 392 l 679 0 l 504 0 l 325 358 l 224 358 l 224 0 l 65 0 l 65 865 m 349 490 q 449 522 416 490 q 482 607 482 553 q 450 698 482 668 q 349 728 418 728 l 224 728 l 224 490 l 349 490 m 238 -361 q 296 -293 273 -328 q 319 -239 319 -258 q 314 -227 319 -233 q 298 -210 309 -221 q 270 -180 280 -194 q 260 -149 260 -166 q 286 -86 260 -112 q 354 -61 312 -61 q 404 -76 380 -61 q 442 -117 427 -91 q 456 -176 456 -144 q 309 -425 456 -274 l 238 -361 z "},"Ȑ":{"ha":694,"x_min":65,"x_max":679,"o":"m 65 865 l 339 865 q 568 797 494 865 q 642 607 642 729 q 621 512 642 559 q 563 428 600 465 q 476 376 525 392 l 679 0 l 504 0 l 325 358 l 224 358 l 224 0 l 65 0 l 65 865 m 349 490 q 449 522 416 490 q 482 607 482 553 q 450 698 482 668 q 349 728 418 728 l 224 728 l 224 490 l 349 490 m 269 935 l 123 1131 l 218 1199 l 329 970 l 269 935 m 492 935 l 346 1131 l 440 1199 l 551 970 l 492 935 z "},"Ṛ":{"ha":694,"x_min":65,"x_max":679,"o":"m 65 865 l 339 865 q 568 797 494 865 q 642 607 642 729 q 621 512 642 559 q 563 428 600 465 q 476 376 525 392 l 679 0 l 504 0 l 325 358 l 224 358 l 224 0 l 65 0 l 65 865 m 349 490 q 449 522 416 490 q 482 607 482 553 q 450 698 482 668 q 349 728 418 728 l 224 728 l 224 490 l 349 490 m 356 -250 q 295 -225 320 -250 q 271 -164 271 -200 q 282 -122 271 -142 q 313 -92 294 -103 q 356 -81 333 -81 q 398 -92 378 -81 q 428 -122 417 -103 q 439 -164 439 -142 q 428 -208 439 -188 q 398 -238 417 -227 q 356 -250 378 -250 z "},"Ȓ":{"ha":694,"x_min":65,"x_max":679,"o":"m 65 865 l 339 865 q 568 797 494 865 q 642 607 642 729 q 621 512 642 559 q 563 428 600 465 q 476 376 525 392 l 679 0 l 504 0 l 325 358 l 224 358 l 224 0 l 65 0 l 65 865 m 349 490 q 449 522 416 490 q 482 607 482 553 q 450 698 482 668 q 349 728 418 728 l 224 728 l 224 490 l 349 490 m 460 945 q 412 1023 439 998 q 347 1047 385 1047 q 282 1023 310 1047 q 235 945 255 998 l 138 989 q 225 1099 172 1061 q 347 1137 279 1137 q 470 1099 416 1137 q 557 989 524 1061 l 460 945 z "},"Ṟ":{"ha":694,"x_min":65,"x_max":679,"o":"m 65 865 l 339 865 q 568 797 494 865 q 642 607 642 729 q 621 512 642 559 q 563 428 600 465 q 476 376 525 392 l 679 0 l 504 0 l 325 358 l 224 358 l 224 0 l 65 0 l 65 865 m 349 490 q 449 522 416 490 q 482 607 482 553 q 450 698 482 668 q 349 728 418 728 l 224 728 l 224 490 l 349 490 m 153 -225 l 153 -136 l 542 -136 l 542 -225 l 153 -225 z "},"S":{"ha":694,"x_min":39,"x_max":639,"o":"m 412 501 q 549 420 500 459 q 618 338 598 381 q 639 239 639 296 q 607 110 639 170 q 506 12 575 50 q 332 -25 437 -25 q 39 96 163 -25 l 106 214 l 107 215 l 109 214 q 345 109 210 109 q 445 139 410 109 q 481 231 481 170 q 466 286 481 261 q 413 336 450 311 q 311 390 376 361 q 136 507 191 442 q 82 659 82 572 q 117 773 82 721 q 213 857 152 826 q 351 888 275 888 q 500 859 437 888 q 619 771 562 831 l 541 663 l 541 661 q 540 662 540 661 q 540 662 540 662 q 458 736 508 713 q 350 760 409 760 q 284 746 312 760 q 243 711 257 733 q 229 664 229 690 q 245 610 229 633 q 300 562 261 587 q 412 501 338 537 m 522 663 q 523 665 522 665 q 529 661 524 665 q 536 656 533 658 l 534 652 l 522 661 l 522 663 m 541 661 q 545 652 545 654 q 545 651 545 651 q 536 656 543 651 l 541 661 m 127 214 q 125 213 127 213 q 118 216 123 213 q 110 220 113 218 l 113 224 l 126 216 l 127 214 m 107 215 q 102 222 102 220 q 102 223 102 222 q 102 223 102 223 l 110 220 l 107 215 z "},"Ś":{"ha":694,"x_min":39,"x_max":639,"o":"m 412 501 q 549 420 500 459 q 618 338 598 381 q 639 239 639 296 q 607 110 639 170 q 506 12 575 50 q 332 -25 437 -25 q 39 96 163 -25 l 106 214 l 107 215 l 109 214 q 345 109 210 109 q 445 139 410 109 q 481 231 481 170 q 466 286 481 261 q 413 336 450 311 q 311 390 376 361 q 136 507 191 442 q 82 659 82 572 q 117 773 82 721 q 213 857 152 826 q 351 888 275 888 q 500 859 437 888 q 619 771 562 831 l 541 663 l 541 661 q 540 662 540 661 q 540 662 540 662 q 458 736 508 713 q 350 760 409 760 q 284 746 312 760 q 243 711 257 733 q 229 664 229 690 q 245 610 229 633 q 300 562 261 587 q 412 501 338 537 m 522 663 q 523 665 522 665 q 529 661 524 665 q 536 656 533 658 l 534 652 l 522 661 l 522 663 m 541 661 q 545 652 545 654 q 545 651 545 651 q 536 656 543 651 l 541 661 m 127 214 q 125 213 127 213 q 118 216 123 213 q 110 220 113 218 l 113 224 l 126 216 l 127 214 m 107 215 q 102 222 102 220 q 102 223 102 222 q 102 223 102 223 l 110 220 l 107 215 m 240 908 l 212 958 l 425 1116 l 490 996 l 240 908 z "},"Ṥ":{"ha":694,"x_min":39,"x_max":639,"o":"m 412 501 q 549 420 500 459 q 618 338 598 381 q 639 239 639 296 q 607 110 639 170 q 506 12 575 50 q 332 -25 437 -25 q 39 96 163 -25 l 106 214 l 107 215 l 109 214 q 345 109 210 109 q 445 139 410 109 q 481 231 481 170 q 466 286 481 261 q 413 336 450 311 q 311 390 376 361 q 136 507 191 442 q 82 659 82 572 q 117 773 82 721 q 213 857 152 826 q 351 888 275 888 q 500 859 437 888 q 619 771 562 831 l 541 663 l 541 661 q 540 662 540 661 q 540 662 540 662 q 458 736 508 713 q 350 760 409 760 q 284 746 312 760 q 243 711 257 733 q 229 664 229 690 q 245 610 229 633 q 300 562 261 587 q 412 501 338 537 m 522 663 q 523 665 522 665 q 529 661 524 665 q 536 656 533 658 l 534 652 l 522 661 l 522 663 m 541 661 q 545 652 545 654 q 545 651 545 651 q 536 656 543 651 l 541 661 m 127 214 q 125 213 127 213 q 118 216 123 213 q 110 220 113 218 l 113 224 l 126 216 l 127 214 m 107 215 q 102 222 102 220 q 102 223 102 222 q 102 223 102 223 l 110 220 l 107 215 m 240 908 l 212 958 l 425 1116 l 490 996 l 240 908 m 346 1135 q 298 1147 321 1135 q 262 1180 276 1159 q 249 1225 249 1200 q 261 1268 249 1247 q 295 1302 273 1289 q 346 1315 317 1315 q 395 1303 372 1315 q 431 1270 418 1291 q 445 1225 445 1249 q 431 1180 445 1200 q 395 1147 418 1159 q 346 1135 372 1135 z "},"Š":{"ha":694,"x_min":39,"x_max":639,"o":"m 412 501 q 549 420 500 459 q 618 338 598 381 q 639 239 639 296 q 607 110 639 170 q 506 12 575 50 q 332 -25 437 -25 q 39 96 163 -25 l 106 214 l 107 215 l 109 214 q 345 109 210 109 q 445 139 410 109 q 481 231 481 170 q 466 286 481 261 q 413 336 450 311 q 311 390 376 361 q 136 507 191 442 q 82 659 82 572 q 117 773 82 721 q 213 857 152 826 q 351 888 275 888 q 500 859 437 888 q 619 771 562 831 l 541 663 l 541 661 q 540 662 540 661 q 540 662 540 662 q 458 736 508 713 q 350 760 409 760 q 284 746 312 760 q 243 711 257 733 q 229 664 229 690 q 245 610 229 633 q 300 562 261 587 q 412 501 338 537 m 522 663 q 523 665 522 665 q 529 661 524 665 q 536 656 533 658 l 534 652 l 522 661 l 522 663 m 541 661 q 545 652 545 654 q 545 651 545 651 q 536 656 543 651 l 541 661 m 127 214 q 125 213 127 213 q 118 216 123 213 q 110 220 113 218 l 113 224 l 126 216 l 127 214 m 107 215 q 102 222 102 220 q 102 223 102 222 q 102 223 102 223 l 110 220 l 107 215 m 323 943 l 149 1090 l 201 1152 l 347 1061 l 504 1148 l 551 1093 l 366 943 l 323 943 z "},"Ṧ":{"ha":694,"x_min":39,"x_max":639,"o":"m 412 501 q 549 420 500 459 q 618 338 598 381 q 639 239 639 296 q 607 110 639 170 q 506 12 575 50 q 332 -25 437 -25 q 39 96 163 -25 l 106 214 l 107 215 l 109 214 q 345 109 210 109 q 445 139 410 109 q 481 231 481 170 q 466 286 481 261 q 413 336 450 311 q 311 390 376 361 q 136 507 191 442 q 82 659 82 572 q 117 773 82 721 q 213 857 152 826 q 351 888 275 888 q 500 859 437 888 q 619 771 562 831 l 541 663 l 541 661 q 540 662 540 661 q 540 662 540 662 q 458 736 508 713 q 350 760 409 760 q 284 746 312 760 q 243 711 257 733 q 229 664 229 690 q 245 610 229 633 q 300 562 261 587 q 412 501 338 537 m 522 663 q 523 665 522 665 q 529 661 524 665 q 536 656 533 658 l 534 652 l 522 661 l 522 663 m 541 661 q 545 652 545 654 q 545 651 545 651 q 536 656 543 651 l 541 661 m 127 214 q 125 213 127 213 q 118 216 123 213 q 110 220 113 218 l 113 224 l 126 216 l 127 214 m 107 215 q 102 222 102 220 q 102 223 102 222 q 102 223 102 223 l 110 220 l 107 215 m 323 943 l 149 1090 l 201 1152 l 347 1061 l 504 1148 l 551 1093 l 366 943 l 323 943 m 346 1154 q 298 1166 321 1154 q 262 1199 276 1179 q 249 1244 249 1220 q 261 1288 249 1267 q 295 1322 273 1309 q 346 1335 317 1335 q 395 1322 372 1335 q 431 1290 418 1310 q 445 1244 445 1269 q 431 1199 445 1220 q 395 1166 418 1179 q 346 1154 372 1154 z "},"Ş":{"ha":694,"x_min":39,"x_max":639,"o":"m 639 239 q 617 130 639 181 q 549 39 595 78 q 430 -15 502 1 l 426 -43 q 506 -74 478 -48 q 534 -142 534 -100 q 514 -209 534 -176 q 454 -263 494 -242 q 357 -285 414 -285 q 182 -207 260 -285 l 233 -117 q 305 -174 273 -158 q 374 -191 337 -191 q 421 -181 405 -191 q 437 -154 437 -171 q 422 -131 437 -138 q 372 -123 408 -123 l 304 -123 l 317 -25 q 39 96 157 -20 l 106 214 l 107 215 l 109 214 q 345 109 210 109 q 445 139 410 109 q 481 231 481 170 q 466 286 481 261 q 413 336 450 311 q 311 390 376 361 q 136 507 191 442 q 82 659 82 572 q 117 773 82 721 q 213 857 152 826 q 351 888 275 888 q 500 859 437 888 q 619 771 562 831 l 541 663 l 541 661 q 540 662 540 661 q 540 662 540 662 q 458 736 508 713 q 350 760 409 760 q 284 746 312 760 q 243 711 257 733 q 229 664 229 690 q 245 610 229 633 q 300 562 261 587 q 412 501 338 537 q 549 420 500 459 q 618 338 598 381 q 639 239 639 296 m 522 663 q 523 665 522 665 q 529 661 524 665 q 536 656 533 658 l 534 652 l 522 661 l 522 663 m 541 661 q 545 652 545 654 q 545 651 545 651 q 536 656 543 651 l 541 661 m 127 214 q 125 213 127 213 q 118 216 123 213 q 110 220 113 218 l 113 224 l 126 216 l 127 214 m 107 215 q 102 222 102 220 q 102 223 102 222 q 102 223 102 223 l 110 220 l 107 215 z "},"Ŝ":{"ha":694,"x_min":39,"x_max":639,"o":"m 412 501 q 549 420 500 459 q 618 338 598 381 q 639 239 639 296 q 607 110 639 170 q 506 12 575 50 q 332 -25 437 -25 q 39 96 163 -25 l 106 214 l 107 215 l 109 214 q 345 109 210 109 q 445 139 410 109 q 481 231 481 170 q 466 286 481 261 q 413 336 450 311 q 311 390 376 361 q 136 507 191 442 q 82 659 82 572 q 117 773 82 721 q 213 857 152 826 q 351 888 275 888 q 500 859 437 888 q 619 771 562 831 l 541 663 l 541 661 q 540 662 540 661 q 540 662 540 662 q 458 736 508 713 q 350 760 409 760 q 284 746 312 760 q 243 711 257 733 q 229 664 229 690 q 245 610 229 633 q 300 562 261 587 q 412 501 338 537 m 522 663 q 523 665 522 665 q 529 661 524 665 q 536 656 533 658 l 534 652 l 522 661 l 522 663 m 541 661 q 545 652 545 654 q 545 651 545 651 q 536 656 543 651 l 541 661 m 127 214 q 125 213 127 213 q 118 216 123 213 q 110 220 113 218 l 113 224 l 126 216 l 127 214 m 107 215 q 102 222 102 220 q 102 223 102 222 q 102 223 102 223 l 110 220 l 107 215 m 151 901 l 102 961 l 325 1111 l 368 1111 l 587 964 l 535 901 l 347 993 l 151 901 z "},"Ș":{"ha":694,"x_min":39,"x_max":639,"o":"m 412 501 q 549 420 500 459 q 618 338 598 381 q 639 239 639 296 q 607 110 639 170 q 506 12 575 50 q 332 -25 437 -25 q 39 96 163 -25 l 106 214 l 107 215 l 109 214 q 345 109 210 109 q 445 139 410 109 q 481 231 481 170 q 466 286 481 261 q 413 336 450 311 q 311 390 376 361 q 136 507 191 442 q 82 659 82 572 q 117 773 82 721 q 213 857 152 826 q 351 888 275 888 q 500 859 437 888 q 619 771 562 831 l 541 663 l 541 661 q 540 662 540 661 q 540 662 540 662 q 458 736 508 713 q 350 760 409 760 q 284 746 312 760 q 243 711 257 733 q 229 664 229 690 q 245 610 229 633 q 300 562 261 587 q 412 501 338 537 m 522 663 q 523 665 522 665 q 529 661 524 665 q 536 656 533 658 l 534 652 l 522 661 l 522 663 m 541 661 q 545 652 545 654 q 545 651 545 651 q 536 656 543 651 l 541 661 m 127 214 q 125 213 127 213 q 118 216 123 213 q 110 220 113 218 l 113 224 l 126 216 l 127 214 m 107 215 q 102 222 102 220 q 102 223 102 222 q 102 223 102 223 l 110 220 l 107 215 m 249 -361 q 307 -293 284 -328 q 330 -239 330 -258 q 325 -227 330 -233 q 309 -210 320 -221 q 281 -180 291 -194 q 271 -149 271 -166 q 297 -86 271 -112 q 365 -61 323 -61 q 415 -76 391 -61 q 453 -117 438 -91 q 467 -176 467 -144 q 319 -425 467 -274 l 249 -361 z "},"Ṡ":{"ha":694,"x_min":39,"x_max":639,"o":"m 412 501 q 549 420 500 459 q 618 338 598 381 q 639 239 639 296 q 607 110 639 170 q 506 12 575 50 q 332 -25 437 -25 q 39 96 163 -25 l 106 214 l 107 215 l 109 214 q 345 109 210 109 q 445 139 410 109 q 481 231 481 170 q 466 286 481 261 q 413 336 450 311 q 311 390 376 361 q 136 507 191 442 q 82 659 82 572 q 117 773 82 721 q 213 857 152 826 q 351 888 275 888 q 500 859 437 888 q 619 771 562 831 l 541 663 l 541 661 q 540 662 540 661 q 540 662 540 662 q 458 736 508 713 q 350 760 409 760 q 284 746 312 760 q 243 711 257 733 q 229 664 229 690 q 245 610 229 633 q 300 562 261 587 q 412 501 338 537 m 522 663 q 523 665 522 665 q 529 661 524 665 q 536 656 533 658 l 534 652 l 522 661 l 522 663 m 541 661 q 545 652 545 654 q 545 651 545 651 q 536 656 543 651 l 541 661 m 127 214 q 125 213 127 213 q 118 216 123 213 q 110 220 113 218 l 113 224 l 126 216 l 127 214 m 107 215 q 102 222 102 220 q 102 223 102 222 q 102 223 102 223 l 110 220 l 107 215 m 346 950 q 298 962 321 950 q 262 995 276 975 q 249 1040 249 1016 q 261 1084 249 1063 q 295 1118 273 1105 q 346 1131 317 1131 q 395 1118 372 1131 q 431 1085 418 1106 q 445 1040 445 1065 q 431 995 445 1016 q 395 962 418 975 q 346 950 372 950 z "},"Ṣ":{"ha":694,"x_min":39,"x_max":639,"o":"m 412 501 q 549 420 500 459 q 618 338 598 381 q 639 239 639 296 q 607 110 639 170 q 506 12 575 50 q 332 -25 437 -25 q 39 96 163 -25 l 106 214 l 107 215 l 109 214 q 345 109 210 109 q 445 139 410 109 q 481 231 481 170 q 466 286 481 261 q 413 336 450 311 q 311 390 376 361 q 136 507 191 442 q 82 659 82 572 q 117 773 82 721 q 213 857 152 826 q 351 888 275 888 q 500 859 437 888 q 619 771 562 831 l 541 663 l 541 661 q 540 662 540 661 q 540 662 540 662 q 458 736 508 713 q 350 760 409 760 q 284 746 312 760 q 243 711 257 733 q 229 664 229 690 q 245 610 229 633 q 300 562 261 587 q 412 501 338 537 m 522 663 q 523 665 522 665 q 529 661 524 665 q 536 656 533 658 l 534 652 l 522 661 l 522 663 m 541 661 q 545 652 545 654 q 545 651 545 651 q 536 656 543 651 l 541 661 m 127 214 q 125 213 127 213 q 118 216 123 213 q 110 220 113 218 l 113 224 l 126 216 l 127 214 m 107 215 q 102 222 102 220 q 102 223 102 222 q 102 223 102 223 l 110 220 l 107 215 m 367 -250 q 306 -225 331 -250 q 281 -164 281 -200 q 293 -122 281 -142 q 324 -92 304 -103 q 367 -81 344 -81 q 409 -92 389 -81 q 439 -122 428 -103 q 450 -164 450 -142 q 439 -208 450 -188 q 409 -238 428 -227 q 367 -250 389 -250 z "},"Ṩ":{"ha":694,"x_min":39,"x_max":639,"o":"m 412 501 q 549 420 500 459 q 618 338 598 381 q 639 239 639 296 q 607 110 639 170 q 506 12 575 50 q 332 -25 437 -25 q 39 96 163 -25 l 106 214 l 107 215 l 109 214 q 345 109 210 109 q 445 139 410 109 q 481 231 481 170 q 466 286 481 261 q 413 336 450 311 q 311 390 376 361 q 136 507 191 442 q 82 659 82 572 q 117 773 82 721 q 213 857 152 826 q 351 888 275 888 q 500 859 437 888 q 619 771 562 831 l 541 663 l 541 661 q 540 662 540 661 q 540 662 540 662 q 458 736 508 713 q 350 760 409 760 q 284 746 312 760 q 243 711 257 733 q 229 664 229 690 q 245 610 229 633 q 300 562 261 587 q 412 501 338 537 m 522 663 q 523 665 522 665 q 529 661 524 665 q 536 656 533 658 l 534 652 l 522 661 l 522 663 m 541 661 q 545 652 545 654 q 545 651 545 651 q 536 656 543 651 l 541 661 m 127 214 q 125 213 127 213 q 118 216 123 213 q 110 220 113 218 l 113 224 l 126 216 l 127 214 m 107 215 q 102 222 102 220 q 102 223 102 222 q 102 223 102 223 l 110 220 l 107 215 m 367 -250 q 306 -225 331 -250 q 281 -164 281 -200 q 293 -122 281 -142 q 324 -92 304 -103 q 367 -81 344 -81 q 409 -92 389 -81 q 439 -122 428 -103 q 450 -164 450 -142 q 439 -208 450 -188 q 409 -238 428 -227 q 367 -250 389 -250 m 346 950 q 298 962 321 950 q 262 995 276 975 q 249 1040 249 1016 q 261 1084 249 1063 q 295 1118 273 1105 q 346 1131 317 1131 q 395 1118 372 1131 q 431 1085 418 1106 q 445 1040 445 1065 q 431 995 445 1016 q 395 962 418 975 q 346 950 372 950 z "},"ẞ":{"ha":694,"x_min":53,"x_max":644,"o":"m 393 531 q 534 481 478 521 q 617 383 591 442 q 644 253 644 323 q 614 115 644 178 q 525 16 584 53 q 385 -21 467 -21 q 307 -11 342 -21 q 232 22 272 0 l 310 144 q 346 119 328 127 q 385 111 364 111 q 441 129 416 111 q 481 179 467 146 q 496 256 496 212 q 476 343 496 304 q 419 403 457 381 q 325 425 380 425 l 256 425 l 256 549 l 436 685 q 424 748 436 719 q 386 794 411 777 q 326 812 361 812 q 234 760 264 812 q 203 631 203 707 l 203 0 l 53 0 l 53 607 q 87 789 53 715 q 184 900 122 863 q 330 937 247 937 q 468 900 410 937 q 556 803 526 863 q 586 675 586 743 l 393 531 z "},"Ə":{"ha":694,"x_min":24,"x_max":679,"o":"m 351 -25 q 175 30 249 -25 q 63 188 102 84 q 24 435 24 291 q 63 678 24 576 q 175 834 102 780 q 351 888 249 888 q 527 834 454 888 q 640 678 601 780 q 679 435 679 576 q 640 188 679 291 q 527 30 601 84 q 351 -25 454 -25 m 351 100 q 440 142 403 100 q 498 262 478 184 q 518 443 518 340 q 498 611 518 538 q 440 723 478 683 q 351 762 403 762 q 262 723 300 762 q 204 611 224 683 q 184 443 184 538 q 204 262 184 340 q 262 142 224 184 q 351 100 300 100 z "},"T":{"ha":694,"x_min":28,"x_max":665,"o":"m 262 0 l 262 730 l 28 730 l 28 865 l 665 865 l 665 730 l 421 730 l 421 0 l 262 0 z "},"Ŧ":{"ha":694,"x_min":28,"x_max":665,"o":"m 665 730 l 421 730 l 421 482 l 588 482 l 588 384 l 421 384 l 421 0 l 262 0 l 262 384 l 91 384 l 91 482 l 262 482 l 262 730 l 28 730 l 28 865 l 665 865 l 665 730 z "},"Ť":{"ha":694,"x_min":28,"x_max":665,"o":"m 262 0 l 262 730 l 28 730 l 28 865 l 665 865 l 665 730 l 421 730 l 421 0 l 262 0 m 323 943 l 149 1090 l 201 1152 l 347 1061 l 504 1148 l 551 1093 l 366 943 l 323 943 z "},"Ţ":{"ha":694,"x_min":28,"x_max":665,"o":"m 262 0 l 262 730 l 28 730 l 28 865 l 665 865 l 665 730 l 421 730 l 421 0 l 262 0 m 346 -285 q 171 -207 249 -285 l 222 -117 q 294 -174 262 -158 q 363 -191 326 -191 q 410 -181 394 -191 q 427 -154 427 -171 q 412 -131 427 -138 q 361 -123 397 -123 l 293 -123 l 310 0 l 421 0 l 415 -43 q 495 -74 467 -48 q 524 -142 524 -100 q 504 -209 524 -176 q 443 -263 484 -242 q 346 -285 403 -285 z "},"Ț":{"ha":694,"x_min":28,"x_max":665,"o":"m 262 0 l 262 730 l 28 730 l 28 865 l 665 865 l 665 730 l 421 730 l 421 0 l 262 0 m 238 -361 q 296 -293 273 -328 q 319 -239 319 -258 q 314 -227 319 -233 q 298 -210 309 -221 q 270 -180 280 -194 q 260 -149 260 -166 q 286 -86 260 -112 q 354 -61 312 -61 q 404 -76 380 -61 q 442 -117 427 -91 q 456 -176 456 -144 q 309 -425 456 -274 l 238 -361 z "},"Ṭ":{"ha":694,"x_min":28,"x_max":665,"o":"m 262 0 l 262 730 l 28 730 l 28 865 l 665 865 l 665 730 l 421 730 l 421 0 l 262 0 m 356 -250 q 295 -225 320 -250 q 271 -164 271 -200 q 282 -122 271 -142 q 313 -92 294 -103 q 356 -81 333 -81 q 398 -92 378 -81 q 428 -122 417 -103 q 439 -164 439 -142 q 428 -208 439 -188 q 398 -238 417 -227 q 356 -250 378 -250 z "},"Ṯ":{"ha":694,"x_min":28,"x_max":665,"o":"m 262 0 l 262 730 l 28 730 l 28 865 l 665 865 l 665 730 l 421 730 l 421 0 l 262 0 m 153 -225 l 153 -136 l 542 -136 l 542 -225 l 153 -225 z "},"U":{"ha":694,"x_min":52,"x_max":643,"o":"m 346 -20 q 127 66 203 -20 q 52 306 52 152 l 52 865 l 218 865 l 218 850 q 208 832 210 842 q 207 799 206 822 l 207 304 q 239 159 207 209 q 347 110 271 110 q 458 160 426 110 q 490 309 490 210 l 490 865 l 643 865 l 643 310 q 564 63 643 146 q 346 -20 486 -20 z "},"Ú":{"ha":694,"x_min":52,"x_max":643,"o":"m 346 -20 q 127 66 203 -20 q 52 306 52 152 l 52 865 l 218 865 l 218 850 q 208 832 210 842 q 207 799 206 822 l 207 304 q 239 159 207 209 q 347 110 271 110 q 458 160 426 110 q 490 309 490 210 l 490 865 l 643 865 l 643 310 q 564 63 643 146 q 346 -20 486 -20 m 240 908 l 212 958 l 425 1116 l 490 996 l 240 908 z "},"Ŭ":{"ha":694,"x_min":52,"x_max":643,"o":"m 346 -20 q 127 66 203 -20 q 52 306 52 152 l 52 865 l 218 865 l 218 850 q 208 832 210 842 q 207 799 206 822 l 207 304 q 239 159 207 209 q 347 110 271 110 q 458 160 426 110 q 490 309 490 210 l 490 865 l 643 865 l 643 310 q 564 63 643 146 q 346 -20 486 -20 m 557 1092 q 470 982 524 1020 q 347 944 416 944 q 225 982 279 944 q 138 1092 172 1020 l 235 1136 q 282 1058 255 1082 q 347 1034 310 1034 q 412 1058 385 1034 q 460 1136 439 1082 l 557 1092 z "},"Û":{"ha":694,"x_min":52,"x_max":643,"o":"m 346 -20 q 127 66 203 -20 q 52 306 52 152 l 52 865 l 218 865 l 218 850 q 208 832 210 842 q 207 799 206 822 l 207 304 q 239 159 207 209 q 347 110 271 110 q 458 160 426 110 q 490 309 490 210 l 490 865 l 643 865 l 643 310 q 564 63 643 146 q 346 -20 486 -20 m 151 901 l 102 961 l 325 1111 l 368 1111 l 587 964 l 535 901 l 347 993 l 151 901 z "},"Ȕ":{"ha":694,"x_min":52,"x_max":643,"o":"m 346 -20 q 127 66 203 -20 q 52 306 52 152 l 52 865 l 218 865 l 218 850 q 208 832 210 842 q 207 799 206 822 l 207 304 q 239 159 207 209 q 347 110 271 110 q 458 160 426 110 q 490 309 490 210 l 490 865 l 643 865 l 643 310 q 564 63 643 146 q 346 -20 486 -20 m 269 935 l 123 1131 l 218 1199 l 329 970 l 269 935 m 492 935 l 346 1131 l 440 1199 l 551 970 l 492 935 z "},"Ü":{"ha":694,"x_min":52,"x_max":643,"o":"m 346 -20 q 127 66 203 -20 q 52 306 52 152 l 52 865 l 218 865 l 218 850 q 208 832 210 842 q 207 799 206 822 l 207 304 q 239 159 207 209 q 347 110 271 110 q 458 160 426 110 q 490 309 490 210 l 490 865 l 643 865 l 643 310 q 564 63 643 146 q 346 -20 486 -20 m 219 949 q 171 961 193 949 q 136 993 149 972 q 123 1038 123 1014 q 136 1082 123 1061 q 171 1116 149 1103 q 219 1128 193 1128 q 269 1115 247 1128 q 304 1081 292 1102 q 317 1038 317 1061 q 303 993 317 1014 q 268 961 290 972 q 219 949 245 949 m 475 949 q 427 961 448 949 q 392 993 405 972 q 379 1038 379 1013 q 392 1083 379 1062 q 427 1116 405 1103 q 475 1128 449 1128 q 525 1115 503 1128 q 558 1081 547 1102 q 570 1038 570 1060 q 557 993 570 1014 q 523 961 545 972 q 475 949 500 949 z "},"Ụ":{"ha":694,"x_min":52,"x_max":643,"o":"m 346 -20 q 127 66 203 -20 q 52 306 52 152 l 52 865 l 218 865 l 218 850 q 208 832 210 842 q 207 799 206 822 l 207 304 q 239 159 207 209 q 347 110 271 110 q 458 160 426 110 q 490 309 490 210 l 490 865 l 643 865 l 643 310 q 564 63 643 146 q 346 -20 486 -20 m 356 -250 q 295 -225 320 -250 q 271 -164 271 -200 q 282 -122 271 -142 q 313 -92 294 -103 q 356 -81 333 -81 q 398 -92 378 -81 q 428 -122 417 -103 q 439 -164 439 -142 q 428 -208 439 -188 q 398 -238 417 -227 q 356 -250 378 -250 z "},"Ù":{"ha":694,"x_min":52,"x_max":643,"o":"m 346 -20 q 127 66 203 -20 q 52 306 52 152 l 52 865 l 218 865 l 218 850 q 208 832 210 842 q 207 799 206 822 l 207 304 q 239 159 207 209 q 347 110 271 110 q 458 160 426 110 q 490 309 490 210 l 490 865 l 643 865 l 643 310 q 564 63 643 146 q 346 -20 486 -20 m 454 908 l 204 996 l 269 1116 l 481 958 l 454 908 z "},"Ủ":{"ha":694,"x_min":52,"x_max":643,"o":"m 346 -20 q 127 66 203 -20 q 52 306 52 152 l 52 865 l 218 865 l 218 850 q 208 832 210 842 q 207 799 206 822 l 207 304 q 239 159 207 209 q 347 110 271 110 q 458 160 426 110 q 490 309 490 210 l 490 865 l 643 865 l 643 310 q 564 63 643 146 q 346 -20 486 -20 m 496 1103 q 487 1060 496 1078 q 466 1030 478 1042 q 435 1004 454 1019 q 410 984 418 992 q 401 964 401 975 l 401 941 l 307 941 l 307 979 q 317 1006 307 994 q 351 1036 328 1018 q 389 1070 376 1055 q 401 1103 401 1085 q 388 1137 401 1126 q 353 1149 374 1149 q 301 1133 326 1149 q 264 1088 276 1116 l 214 1167 q 276 1215 239 1199 q 351 1231 313 1231 q 424 1215 391 1231 q 476 1171 456 1200 q 496 1103 496 1141 z "},"Ư":{"ha":694,"x_min":46,"x_max":694,"o":"m 694 996 q 683 858 694 907 q 647 787 671 808 q 579 766 622 766 l 578 768 l 578 310 q 508 63 578 146 q 311 -20 437 -20 q 114 66 182 -20 q 46 306 46 152 l 46 865 l 197 865 l 197 850 q 188 832 190 842 q 186 799 186 823 l 186 304 q 215 159 186 209 q 313 110 243 110 q 412 160 383 110 q 441 309 441 210 l 441 865 l 545 865 q 564 896 558 865 q 570 996 570 926 l 694 996 z "},"Ứ":{"ha":694,"x_min":46,"x_max":694,"o":"m 694 996 q 683 858 694 907 q 647 787 671 808 q 579 766 622 766 l 578 768 l 578 310 q 508 63 578 146 q 311 -20 437 -20 q 114 66 182 -20 q 46 306 46 152 l 46 865 l 197 865 l 197 850 q 188 832 190 842 q 186 799 186 823 l 186 304 q 215 159 186 209 q 313 110 243 110 q 412 160 383 110 q 441 309 441 210 l 441 865 l 545 865 q 564 896 558 865 q 570 996 570 926 l 694 996 m 212 908 l 184 958 l 397 1116 l 463 996 l 212 908 z "},"Ự":{"ha":694,"x_min":46,"x_max":694,"o":"m 694 996 q 683 858 694 907 q 647 787 671 808 q 579 766 622 766 l 578 768 l 578 310 q 508 63 578 146 q 311 -20 437 -20 q 114 66 182 -20 q 46 306 46 152 l 46 865 l 197 865 l 197 850 q 188 832 190 842 q 186 799 186 823 l 186 304 q 215 159 186 209 q 313 110 243 110 q 412 160 383 110 q 441 309 441 210 l 441 865 l 545 865 q 564 896 558 865 q 570 996 570 926 l 694 996 m 328 -250 q 268 -225 292 -250 q 243 -164 243 -200 q 254 -122 243 -142 q 286 -92 266 -103 q 328 -81 305 -81 q 370 -92 351 -81 q 400 -122 389 -103 q 412 -164 412 -142 q 400 -208 412 -188 q 370 -238 389 -227 q 328 -250 351 -250 z "},"Ừ":{"ha":694,"x_min":46,"x_max":694,"o":"m 694 996 q 683 858 694 907 q 647 787 671 808 q 579 766 622 766 l 578 768 l 578 310 q 508 63 578 146 q 311 -20 437 -20 q 114 66 182 -20 q 46 306 46 152 l 46 865 l 197 865 l 197 850 q 188 832 190 842 q 186 799 186 823 l 186 304 q 215 159 186 209 q 313 110 243 110 q 412 160 383 110 q 441 309 441 210 l 441 865 l 545 865 q 564 896 558 865 q 570 996 570 926 l 694 996 m 426 908 l 176 996 l 241 1116 l 454 958 l 426 908 z "},"Ử":{"ha":694,"x_min":46,"x_max":694,"o":"m 694 996 q 683 858 694 907 q 647 787 671 808 q 579 766 622 766 l 578 768 l 578 310 q 508 63 578 146 q 311 -20 437 -20 q 114 66 182 -20 q 46 306 46 152 l 46 865 l 197 865 l 197 850 q 188 832 190 842 q 186 799 186 823 l 186 304 q 215 159 186 209 q 313 110 243 110 q 412 160 383 110 q 441 309 441 210 l 441 865 l 545 865 q 564 896 558 865 q 570 996 570 926 l 694 996 m 468 1103 q 459 1060 468 1078 q 438 1030 450 1042 q 407 1004 427 1019 q 382 984 390 992 q 374 964 374 975 l 374 941 l 279 941 l 279 979 q 290 1006 279 994 q 323 1036 300 1018 q 361 1070 348 1055 q 374 1103 374 1085 q 360 1137 374 1126 q 325 1149 346 1149 q 273 1133 298 1149 q 236 1088 248 1116 l 186 1167 q 248 1215 212 1199 q 323 1231 285 1231 q 396 1215 363 1231 q 448 1171 429 1200 q 468 1103 468 1141 z "},"Ữ":{"ha":694,"x_min":46,"x_max":694,"o":"m 694 996 q 683 858 694 907 q 647 787 671 808 q 579 766 622 766 l 578 768 l 578 310 q 508 63 578 146 q 311 -20 437 -20 q 114 66 182 -20 q 46 306 46 152 l 46 865 l 197 865 l 197 850 q 188 832 190 842 q 186 799 186 823 l 186 304 q 215 159 186 209 q 313 110 243 110 q 412 160 383 110 q 441 309 441 210 l 441 865 l 545 865 q 564 896 558 865 q 570 996 570 926 l 694 996 m 556 1071 q 495 989 530 1018 q 420 960 460 960 q 369 971 390 960 q 319 1007 347 983 q 281 1036 297 1027 q 245 1046 264 1046 q 197 1030 215 1046 q 163 977 178 1015 l 77 1013 q 140 1107 98 1075 q 239 1139 182 1139 q 296 1126 272 1139 q 348 1090 319 1114 q 384 1064 370 1072 q 414 1055 398 1055 q 444 1069 431 1055 q 473 1114 457 1082 l 556 1071 z "},"Ű":{"ha":694,"x_min":52,"x_max":643,"o":"m 346 -20 q 127 66 203 -20 q 52 306 52 152 l 52 865 l 218 865 l 218 850 q 208 832 210 842 q 207 799 206 822 l 207 304 q 239 159 207 209 q 347 110 271 110 q 458 160 426 110 q 490 309 490 210 l 490 865 l 643 865 l 643 310 q 564 63 643 146 q 346 -20 486 -20 m 142 886 l 90 953 l 277 1143 l 357 1028 l 142 886 m 391 886 l 338 953 l 526 1143 l 606 1028 l 391 886 z "},"Ȗ":{"ha":694,"x_min":52,"x_max":643,"o":"m 346 -20 q 127 66 203 -20 q 52 306 52 152 l 52 865 l 218 865 l 218 850 q 208 832 210 842 q 207 799 206 822 l 207 304 q 239 159 207 209 q 347 110 271 110 q 458 160 426 110 q 490 309 490 210 l 490 865 l 643 865 l 643 310 q 564 63 643 146 q 346 -20 486 -20 m 460 945 q 412 1023 439 998 q 347 1047 385 1047 q 282 1023 310 1047 q 235 945 255 998 l 138 989 q 225 1099 172 1061 q 347 1137 279 1137 q 470 1099 416 1137 q 557 989 524 1061 l 460 945 z "},"Ū":{"ha":694,"x_min":52,"x_max":643,"o":"m 346 -20 q 127 66 203 -20 q 52 306 52 152 l 52 865 l 218 865 l 218 850 q 208 832 210 842 q 207 799 206 822 l 207 304 q 239 159 207 209 q 347 110 271 110 q 458 160 426 110 q 490 309 490 210 l 490 865 l 643 865 l 643 310 q 564 63 643 146 q 346 -20 486 -20 m 153 992 l 153 1081 l 542 1081 l 542 992 l 153 992 z "},"Ṻ":{"ha":694,"x_min":52,"x_max":643,"o":"m 346 -20 q 127 66 203 -20 q 52 306 52 152 l 52 865 l 218 865 l 218 850 q 208 832 210 842 q 207 799 206 822 l 207 304 q 239 159 207 209 q 347 110 271 110 q 458 160 426 110 q 490 309 490 210 l 490 865 l 643 865 l 643 310 q 564 63 643 146 q 346 -20 486 -20 m 153 992 l 153 1081 l 542 1081 l 542 992 l 153 992 m 219 1152 q 171 1163 193 1152 q 136 1196 149 1175 q 123 1240 123 1217 q 136 1285 123 1264 q 171 1318 149 1306 q 219 1331 193 1331 q 269 1318 247 1331 q 304 1284 292 1305 q 317 1240 317 1263 q 303 1196 317 1217 q 268 1163 290 1175 q 219 1152 245 1152 m 475 1152 q 427 1163 448 1152 q 392 1196 405 1175 q 379 1240 379 1216 q 392 1285 379 1265 q 427 1318 405 1306 q 475 1331 449 1331 q 525 1318 503 1331 q 558 1284 547 1305 q 570 1240 570 1263 q 557 1196 570 1217 q 523 1163 545 1175 q 475 1152 500 1152 z "},"Ų":{"ha":694,"x_min":52,"x_max":643,"o":"m 643 865 l 643 310 q 605 122 643 197 q 496 12 566 47 q 404 -120 404 -66 q 427 -165 404 -146 q 496 -195 450 -184 l 434 -317 q 297 -253 343 -294 q 250 -161 250 -212 q 272 -91 250 -127 q 334 -20 293 -55 q 124 69 197 -16 q 52 306 52 155 l 52 865 l 218 865 l 218 850 q 208 832 210 842 q 207 799 206 822 l 207 304 q 239 159 207 209 q 347 110 271 110 q 458 160 426 110 q 490 309 490 210 l 490 865 l 643 865 z "},"Ů":{"ha":694,"x_min":52,"x_max":643,"o":"m 346 -20 q 127 66 203 -20 q 52 306 52 152 l 52 865 l 218 865 l 218 850 q 208 832 210 842 q 207 799 206 822 l 207 304 q 239 159 207 209 q 347 110 271 110 q 458 160 426 110 q 490 309 490 210 l 490 865 l 643 865 l 643 310 q 564 63 643 146 q 346 -20 486 -20 m 346 856 q 274 874 307 856 q 222 925 241 893 q 203 994 203 957 q 222 1063 203 1031 q 274 1113 241 1095 q 346 1132 307 1132 q 418 1113 385 1132 q 472 1063 452 1095 q 492 994 492 1031 q 472 925 492 957 q 418 874 452 893 q 346 856 385 856 m 347 945 q 379 959 366 945 q 392 996 392 974 q 379 1033 392 1017 q 347 1048 366 1048 q 316 1033 328 1048 q 303 996 303 1017 q 316 959 303 974 q 347 945 328 945 z "},"Ũ":{"ha":694,"x_min":52,"x_max":643,"o":"m 346 -20 q 127 66 203 -20 q 52 306 52 152 l 52 865 l 218 865 l 218 850 q 208 832 210 842 q 207 799 206 822 l 207 304 q 239 159 207 209 q 347 110 271 110 q 458 160 426 110 q 490 309 490 210 l 490 865 l 643 865 l 643 310 q 564 63 643 146 q 346 -20 486 -20 m 584 1071 q 523 989 557 1018 q 448 960 488 960 q 396 971 418 960 q 347 1007 375 983 q 309 1036 325 1027 q 273 1046 292 1046 q 224 1030 243 1046 q 191 977 206 1015 l 104 1013 q 168 1107 126 1075 q 267 1139 210 1139 q 323 1126 300 1139 q 376 1090 347 1114 q 412 1064 397 1072 q 442 1055 426 1055 q 472 1069 459 1055 q 500 1114 485 1082 l 584 1071 z "},"Ṹ":{"ha":694,"x_min":52,"x_max":643,"o":"m 346 -20 q 127 66 203 -20 q 52 306 52 152 l 52 865 l 218 865 l 218 850 q 208 832 210 842 q 207 799 206 822 l 207 304 q 239 159 207 209 q 347 110 271 110 q 458 160 426 110 q 490 309 490 210 l 490 865 l 643 865 l 643 310 q 564 63 643 146 q 346 -20 486 -20 m 584 1071 q 523 989 557 1018 q 448 960 488 960 q 396 971 418 960 q 347 1007 375 983 q 309 1036 325 1027 q 273 1046 292 1046 q 224 1030 243 1046 q 191 977 206 1015 l 104 1013 q 168 1107 126 1075 q 267 1139 210 1139 q 323 1126 300 1139 q 376 1090 347 1114 q 412 1064 397 1072 q 442 1055 426 1055 q 472 1069 459 1055 q 500 1114 485 1082 l 584 1071 m 240 1175 l 212 1225 l 425 1382 l 490 1262 l 240 1175 z "},"V":{"ha":694,"x_min":14,"x_max":692,"o":"m 294 0 l 14 865 l 178 865 l 359 252 l 532 865 l 692 865 l 414 0 l 294 0 z "},"W":{"ha":694,"x_min":8,"x_max":693,"o":"m 114 0 l 8 865 l 160 865 l 210 294 l 311 794 l 411 794 l 513 298 l 549 865 l 693 865 l 590 0 l 468 0 l 354 526 l 239 0 l 114 0 z "},"Ẃ":{"ha":694,"x_min":8,"x_max":693,"o":"m 114 0 l 8 865 l 160 865 l 210 294 l 311 794 l 411 794 l 513 298 l 549 865 l 693 865 l 590 0 l 468 0 l 354 526 l 239 0 l 114 0 m 247 908 l 219 958 l 432 1116 l 497 996 l 247 908 z "},"Ŵ":{"ha":694,"x_min":8,"x_max":693,"o":"m 114 0 l 8 865 l 160 865 l 210 294 l 311 794 l 411 794 l 513 298 l 549 865 l 693 865 l 590 0 l 468 0 l 354 526 l 239 0 l 114 0 m 158 901 l 109 961 l 332 1111 l 375 1111 l 594 964 l 542 901 l 354 993 l 158 901 z "},"Ẅ":{"ha":694,"x_min":8,"x_max":693,"o":"m 114 0 l 8 865 l 160 865 l 210 294 l 311 794 l 411 794 l 513 298 l 549 865 l 693 865 l 590 0 l 468 0 l 354 526 l 239 0 l 114 0 m 226 949 q 178 961 200 949 q 143 993 156 972 q 130 1038 130 1014 q 143 1082 130 1061 q 178 1116 156 1103 q 226 1128 200 1128 q 276 1115 254 1128 q 311 1081 298 1102 q 323 1038 323 1061 q 310 993 323 1014 q 274 961 297 972 q 226 949 252 949 m 481 949 q 433 961 455 949 q 399 993 412 972 q 386 1038 386 1013 q 399 1083 386 1062 q 434 1116 412 1103 q 481 1128 456 1128 q 531 1115 509 1128 q 565 1081 553 1102 q 577 1038 577 1060 q 564 993 577 1014 q 529 961 551 972 q 481 949 507 949 z "},"Ẁ":{"ha":694,"x_min":8,"x_max":693,"o":"m 114 0 l 8 865 l 160 865 l 210 294 l 311 794 l 411 794 l 513 298 l 549 865 l 693 865 l 590 0 l 468 0 l 354 526 l 239 0 l 114 0 m 460 908 l 211 996 l 276 1116 l 488 958 l 460 908 z "},"X":{"ha":694,"x_min":29,"x_max":686,"o":"m 29 0 l 262 441 l 32 865 l 201 865 l 351 582 l 497 865 l 659 865 l 443 443 l 686 0 l 511 0 l 353 297 l 199 0 l 29 0 z "},"Y":{"ha":694,"x_min":12,"x_max":690,"o":"m 279 0 l 279 342 l 12 865 l 186 865 l 364 515 l 522 865 l 690 865 l 443 340 l 443 0 l 279 0 z "},"Ý":{"ha":694,"x_min":12,"x_max":690,"o":"m 279 0 l 279 342 l 12 865 l 186 865 l 364 515 l 522 865 l 690 865 l 443 340 l 443 0 l 279 0 m 240 908 l 212 958 l 425 1116 l 490 996 l 240 908 z "},"Ŷ":{"ha":694,"x_min":12,"x_max":690,"o":"m 279 0 l 279 342 l 12 865 l 186 865 l 364 515 l 522 865 l 690 865 l 443 340 l 443 0 l 279 0 m 151 901 l 102 961 l 325 1111 l 368 1111 l 587 964 l 535 901 l 347 993 l 151 901 z "},"Ÿ":{"ha":694,"x_min":12,"x_max":690,"o":"m 279 0 l 279 342 l 12 865 l 186 865 l 364 515 l 522 865 l 690 865 l 443 340 l 443 0 l 279 0 m 219 949 q 171 961 193 949 q 136 993 149 972 q 123 1038 123 1014 q 136 1082 123 1061 q 171 1116 149 1103 q 219 1128 193 1128 q 269 1115 247 1128 q 304 1081 292 1102 q 317 1038 317 1061 q 303 993 317 1014 q 268 961 290 972 q 219 949 245 949 m 475 949 q 427 961 448 949 q 392 993 405 972 q 379 1038 379 1013 q 392 1083 379 1062 q 427 1116 405 1103 q 475 1128 449 1128 q 525 1115 503 1128 q 558 1081 547 1102 q 570 1038 570 1060 q 557 993 570 1014 q 523 961 545 972 q 475 949 500 949 z "},"Ẏ":{"ha":694,"x_min":12,"x_max":690,"o":"m 279 0 l 279 342 l 12 865 l 186 865 l 364 515 l 522 865 l 690 865 l 443 340 l 443 0 l 279 0 m 346 950 q 298 962 321 950 q 262 995 276 975 q 249 1040 249 1016 q 261 1084 249 1063 q 295 1118 273 1105 q 346 1131 317 1131 q 395 1118 372 1131 q 431 1085 418 1106 q 445 1040 445 1065 q 431 995 445 1016 q 395 962 418 975 q 346 950 372 950 z "},"Ỵ":{"ha":694,"x_min":12,"x_max":690,"o":"m 279 0 l 279 342 l 12 865 l 186 865 l 364 515 l 522 865 l 690 865 l 443 340 l 443 0 l 279 0 m 373 -250 q 312 -225 337 -250 q 288 -164 288 -200 q 299 -122 288 -142 q 330 -92 311 -103 q 373 -81 350 -81 q 415 -92 395 -81 q 445 -122 434 -103 q 456 -164 456 -142 q 445 -208 456 -188 q 415 -238 434 -227 q 373 -250 395 -250 z "},"Ỳ":{"ha":694,"x_min":12,"x_max":690,"o":"m 279 0 l 279 342 l 12 865 l 186 865 l 364 515 l 522 865 l 690 865 l 443 340 l 443 0 l 279 0 m 454 908 l 204 996 l 269 1116 l 481 958 l 454 908 z "},"Ỷ":{"ha":694,"x_min":12,"x_max":690,"o":"m 279 0 l 279 342 l 12 865 l 186 865 l 364 515 l 522 865 l 690 865 l 443 340 l 443 0 l 279 0 m 496 1103 q 487 1060 496 1078 q 466 1030 478 1042 q 435 1004 454 1019 q 410 984 418 992 q 401 964 401 975 l 401 941 l 307 941 l 307 979 q 317 1006 307 994 q 351 1036 328 1018 q 389 1070 376 1055 q 401 1103 401 1085 q 388 1137 401 1126 q 353 1149 374 1149 q 301 1133 326 1149 q 264 1088 276 1116 l 214 1167 q 276 1215 239 1199 q 351 1231 313 1231 q 424 1215 391 1231 q 476 1171 456 1200 q 496 1103 496 1141 z "},"Ȳ":{"ha":694,"x_min":12,"x_max":690,"o":"m 279 0 l 279 342 l 12 865 l 186 865 l 364 515 l 522 865 l 690 865 l 443 340 l 443 0 l 279 0 m 153 992 l 153 1081 l 542 1081 l 542 992 l 153 992 z "},"Ỹ":{"ha":694,"x_min":12,"x_max":690,"o":"m 279 0 l 279 342 l 12 865 l 186 865 l 364 515 l 522 865 l 690 865 l 443 340 l 443 0 l 279 0 m 584 1071 q 523 989 557 1018 q 448 960 488 960 q 396 971 418 960 q 347 1007 375 983 q 309 1036 325 1027 q 273 1046 292 1046 q 224 1030 243 1046 q 191 977 206 1015 l 104 1013 q 168 1107 126 1075 q 267 1139 210 1139 q 323 1126 300 1139 q 376 1090 347 1114 q 412 1064 397 1072 q 442 1055 426 1055 q 472 1069 459 1055 q 500 1114 485 1082 l 584 1071 z "},"Z":{"ha":694,"x_min":57,"x_max":661,"o":"m 57 94 l 449 730 l 72 730 l 72 865 l 640 865 l 640 771 l 256 134 l 594 134 q 627 136 616 134 q 646 146 637 138 l 661 146 l 661 0 l 57 0 l 57 94 z "},"Ź":{"ha":694,"x_min":57,"x_max":661,"o":"m 57 94 l 449 730 l 72 730 l 72 865 l 640 865 l 640 771 l 256 134 l 594 134 q 627 136 616 134 q 646 146 637 138 l 661 146 l 661 0 l 57 0 l 57 94 m 254 908 l 226 958 l 439 1116 l 504 996 l 254 908 z "},"Ž":{"ha":694,"x_min":57,"x_max":661,"o":"m 57 94 l 449 730 l 72 730 l 72 865 l 640 865 l 640 771 l 256 134 l 594 134 q 627 136 616 134 q 646 146 637 138 l 661 146 l 661 0 l 57 0 l 57 94 m 337 943 l 162 1090 l 214 1152 l 360 1061 l 517 1148 l 564 1093 l 380 943 l 337 943 z "},"Ż":{"ha":694,"x_min":57,"x_max":661,"o":"m 57 94 l 449 730 l 72 730 l 72 865 l 640 865 l 640 771 l 256 134 l 594 134 q 627 136 616 134 q 646 146 637 138 l 661 146 l 661 0 l 57 0 l 57 94 m 359 950 q 312 962 334 950 q 276 995 290 975 q 262 1040 262 1016 q 275 1084 262 1063 q 309 1118 287 1105 q 359 1131 331 1131 q 409 1118 386 1131 q 445 1085 431 1106 q 458 1040 458 1065 q 445 995 458 1016 q 409 962 431 975 q 359 950 386 950 z "},"Ẓ":{"ha":694,"x_min":57,"x_max":661,"o":"m 57 94 l 449 730 l 72 730 l 72 865 l 640 865 l 640 771 l 256 134 l 594 134 q 627 136 616 134 q 646 146 637 138 l 661 146 l 661 0 l 57 0 l 57 94 m 378 -250 q 318 -225 342 -250 q 293 -164 293 -200 q 304 -122 293 -142 q 336 -92 316 -103 q 378 -81 355 -81 q 420 -92 401 -81 q 451 -122 439 -103 q 462 -164 462 -142 q 451 -208 462 -188 q 420 -238 439 -227 q 378 -250 401 -250 z "},"a":{"ha":694,"x_min":56,"x_max":614,"o":"m 332 669 q 537 606 460 669 q 614 395 614 542 l 614 0 l 465 0 l 465 58 q 375 3 428 23 q 262 -17 323 -17 q 109 33 161 -17 q 56 168 56 83 q 99 286 56 237 q 225 360 143 335 q 422 386 308 386 l 470 386 q 429 507 463 471 q 323 543 394 543 q 231 520 279 543 q 142 454 182 496 l 62 557 q 194 641 123 612 q 332 669 264 669 m 313 102 q 422 145 382 102 q 470 282 462 189 l 439 282 q 264 256 319 282 q 210 175 210 231 q 237 119 210 137 q 313 102 264 102 z "},"á":{"ha":694,"x_min":56,"x_max":614,"o":"m 332 669 q 537 606 460 669 q 614 395 614 542 l 614 0 l 465 0 l 465 58 q 375 3 428 23 q 262 -17 323 -17 q 109 33 161 -17 q 56 168 56 83 q 99 286 56 237 q 225 360 143 335 q 422 386 308 386 l 470 386 q 429 507 463 471 q 323 543 394 543 q 231 520 279 543 q 142 454 182 496 l 62 557 q 194 641 123 612 q 332 669 264 669 m 313 102 q 422 145 382 102 q 470 282 462 189 l 439 282 q 264 256 319 282 q 210 175 210 231 q 237 119 210 137 q 313 102 264 102 m 299 718 l 239 753 l 351 982 l 445 914 l 299 718 z "},"ă":{"ha":694,"x_min":56,"x_max":614,"o":"m 332 669 q 537 606 460 669 q 614 395 614 542 l 614 0 l 465 0 l 465 58 q 375 3 428 23 q 262 -17 323 -17 q 109 33 161 -17 q 56 168 56 83 q 99 286 56 237 q 225 360 143 335 q 422 386 308 386 l 470 386 q 429 507 463 471 q 323 543 394 543 q 231 520 279 543 q 142 454 182 496 l 62 557 q 194 641 123 612 q 332 669 264 669 m 313 102 q 422 145 382 102 q 470 282 462 189 l 439 282 q 264 256 319 282 q 210 175 210 231 q 237 119 210 137 q 313 102 264 102 m 544 884 q 456 774 510 812 q 334 736 402 736 q 212 774 265 736 q 124 884 158 812 l 221 928 q 269 850 241 874 q 334 825 296 825 q 398 850 372 825 q 446 928 425 874 l 544 884 z "},"ắ":{"ha":694,"x_min":56,"x_max":614,"o":"m 332 669 q 537 606 460 669 q 614 395 614 542 l 614 0 l 465 0 l 465 58 q 375 3 428 23 q 262 -17 323 -17 q 109 33 161 -17 q 56 168 56 83 q 99 286 56 237 q 225 360 143 335 q 422 386 308 386 l 470 386 q 429 507 463 471 q 323 543 394 543 q 231 520 279 543 q 142 454 182 496 l 62 557 q 194 641 123 612 q 332 669 264 669 m 313 102 q 422 145 382 102 q 470 282 462 189 l 439 282 q 264 256 319 282 q 210 175 210 231 q 237 119 210 137 q 313 102 264 102 m 544 884 q 456 774 510 812 q 334 736 402 736 q 212 774 265 736 q 124 884 158 812 l 221 928 q 269 850 241 874 q 334 825 296 825 q 398 850 372 825 q 446 928 425 874 l 544 884 m 340 900 l 281 935 l 392 1164 l 486 1096 l 340 900 z "},"ặ":{"ha":694,"x_min":56,"x_max":614,"o":"m 332 669 q 537 606 460 669 q 614 395 614 542 l 614 0 l 465 0 l 465 58 q 375 3 428 23 q 262 -17 323 -17 q 109 33 161 -17 q 56 168 56 83 q 99 286 56 237 q 225 360 143 335 q 422 386 308 386 l 470 386 q 429 507 463 471 q 323 543 394 543 q 231 520 279 543 q 142 454 182 496 l 62 557 q 194 641 123 612 q 332 669 264 669 m 313 102 q 422 145 382 102 q 470 282 462 189 l 439 282 q 264 256 319 282 q 210 175 210 231 q 237 119 210 137 q 313 102 264 102 m 356 -250 q 295 -225 320 -250 q 271 -164 271 -200 q 282 -122 271 -142 q 313 -92 294 -103 q 356 -81 333 -81 q 398 -92 378 -81 q 428 -122 417 -103 q 439 -164 439 -142 q 428 -208 439 -188 q 398 -238 417 -227 q 356 -250 378 -250 m 544 884 q 456 774 510 812 q 334 736 402 736 q 212 774 265 736 q 124 884 158 812 l 221 928 q 269 850 241 874 q 334 825 296 825 q 398 850 372 825 q 446 928 425 874 l 544 884 z "},"ằ":{"ha":694,"x_min":56,"x_max":614,"o":"m 332 669 q 537 606 460 669 q 614 395 614 542 l 614 0 l 465 0 l 465 58 q 375 3 428 23 q 262 -17 323 -17 q 109 33 161 -17 q 56 168 56 83 q 99 286 56 237 q 225 360 143 335 q 422 386 308 386 l 470 386 q 429 507 463 471 q 323 543 394 543 q 231 520 279 543 q 142 454 182 496 l 62 557 q 194 641 123 612 q 332 669 264 669 m 313 102 q 422 145 382 102 q 470 282 462 189 l 439 282 q 264 256 319 282 q 210 175 210 231 q 237 119 210 137 q 313 102 264 102 m 544 884 q 456 774 510 812 q 334 736 402 736 q 212 774 265 736 q 124 884 158 812 l 221 928 q 269 850 241 874 q 334 825 296 825 q 398 850 372 825 q 446 928 425 874 l 544 884 m 339 900 l 193 1096 l 288 1164 l 399 935 l 339 900 z "},"ẳ":{"ha":694,"x_min":56,"x_max":614,"o":"m 332 669 q 537 606 460 669 q 614 395 614 542 l 614 0 l 465 0 l 465 58 q 375 3 428 23 q 262 -17 323 -17 q 109 33 161 -17 q 56 168 56 83 q 99 286 56 237 q 225 360 143 335 q 422 386 308 386 l 470 386 q 429 507 463 471 q 323 543 394 543 q 231 520 279 543 q 142 454 182 496 l 62 557 q 194 641 123 612 q 332 669 264 669 m 313 102 q 422 145 382 102 q 470 282 462 189 l 439 282 q 264 256 319 282 q 210 175 210 231 q 237 119 210 137 q 313 102 264 102 m 544 884 q 456 774 510 812 q 334 736 402 736 q 212 774 265 736 q 124 884 158 812 l 221 928 q 269 850 241 874 q 334 825 296 825 q 398 850 372 825 q 446 928 425 874 l 544 884 m 482 1069 q 473 1025 482 1044 q 453 996 465 1007 q 421 970 441 984 q 396 949 404 958 q 388 930 388 941 l 388 906 l 293 906 l 293 945 q 304 971 293 959 q 338 1002 315 983 q 375 1036 362 1021 q 388 1069 388 1050 q 374 1103 388 1091 q 339 1114 360 1114 q 288 1098 313 1114 q 250 1053 262 1082 l 200 1133 q 262 1180 226 1164 q 338 1196 299 1196 q 410 1181 377 1196 q 463 1136 443 1165 q 482 1069 482 1107 z "},"ẵ":{"ha":694,"x_min":56,"x_max":614,"o":"m 332 669 q 537 606 460 669 q 614 395 614 542 l 614 0 l 465 0 l 465 58 q 375 3 428 23 q 262 -17 323 -17 q 109 33 161 -17 q 56 168 56 83 q 99 286 56 237 q 225 360 143 335 q 422 386 308 386 l 470 386 q 429 507 463 471 q 323 543 394 543 q 231 520 279 543 q 142 454 182 496 l 62 557 q 194 641 123 612 q 332 669 264 669 m 313 102 q 422 145 382 102 q 470 282 462 189 l 439 282 q 264 256 319 282 q 210 175 210 231 q 237 119 210 137 q 313 102 264 102 m 538 884 q 450 774 504 812 q 328 736 396 736 q 205 774 259 736 q 118 884 152 812 l 215 928 q 263 850 235 874 q 328 825 290 825 q 392 850 366 825 q 440 928 419 874 l 538 884 m 550 1075 q 506 995 534 1019 q 448 970 477 970 q 384 985 410 970 q 326 1027 357 1000 q 289 1056 304 1047 q 258 1065 275 1065 q 212 1045 231 1065 q 188 983 194 1025 l 114 1002 q 163 1106 125 1070 q 257 1143 201 1143 q 313 1129 290 1143 q 366 1090 337 1115 q 399 1063 386 1072 q 428 1054 413 1054 q 463 1070 448 1054 q 482 1114 477 1087 l 550 1075 z "},"â":{"ha":694,"x_min":56,"x_max":614,"o":"m 332 669 q 537 606 460 669 q 614 395 614 542 l 614 0 l 465 0 l 465 58 q 375 3 428 23 q 262 -17 323 -17 q 109 33 161 -17 q 56 168 56 83 q 99 286 56 237 q 225 360 143 335 q 422 386 308 386 l 470 386 q 429 507 463 471 q 323 543 394 543 q 231 520 279 543 q 142 454 182 496 l 62 557 q 194 641 123 612 q 332 669 264 669 m 313 102 q 422 145 382 102 q 470 282 462 189 l 439 282 q 264 256 319 282 q 210 175 210 231 q 237 119 210 137 q 313 102 264 102 m 157 713 l 98 766 l 313 968 l 355 968 l 570 766 l 510 713 l 334 869 l 157 713 z "},"ấ":{"ha":694,"x_min":56,"x_max":682,"o":"m 332 669 q 537 606 460 669 q 614 395 614 542 l 614 0 l 465 0 l 465 58 q 375 3 428 23 q 262 -17 323 -17 q 109 33 161 -17 q 56 168 56 83 q 99 286 56 237 q 225 360 143 335 q 422 386 308 386 l 470 386 q 429 507 463 471 q 323 543 394 543 q 231 520 279 543 q 142 454 182 496 l 62 557 q 194 641 123 612 q 332 669 264 669 m 313 102 q 422 145 382 102 q 470 282 462 189 l 439 282 q 264 256 319 282 q 210 175 210 231 q 237 119 210 137 q 313 102 264 102 m 157 713 l 98 766 l 313 968 l 355 968 l 570 766 l 510 713 l 334 869 l 157 713 m 536 893 l 477 928 l 588 1157 l 682 1089 l 536 893 z "},"ậ":{"ha":694,"x_min":56,"x_max":614,"o":"m 332 669 q 537 606 460 669 q 614 395 614 542 l 614 0 l 465 0 l 465 58 q 375 3 428 23 q 262 -17 323 -17 q 109 33 161 -17 q 56 168 56 83 q 99 286 56 237 q 225 360 143 335 q 422 386 308 386 l 470 386 q 429 507 463 471 q 323 543 394 543 q 231 520 279 543 q 142 454 182 496 l 62 557 q 194 641 123 612 q 332 669 264 669 m 313 102 q 422 145 382 102 q 470 282 462 189 l 439 282 q 264 256 319 282 q 210 175 210 231 q 237 119 210 137 q 313 102 264 102 m 356 -250 q 295 -225 320 -250 q 271 -164 271 -200 q 282 -122 271 -142 q 313 -92 294 -103 q 356 -81 333 -81 q 398 -92 378 -81 q 428 -122 417 -103 q 439 -164 439 -142 q 428 -208 439 -188 q 398 -238 417 -227 q 356 -250 378 -250 m 157 713 l 98 766 l 313 968 l 355 968 l 570 766 l 510 713 l 334 869 l 157 713 z "},"ầ":{"ha":694,"x_min":56,"x_max":614,"o":"m 332 669 q 537 606 460 669 q 614 395 614 542 l 614 0 l 465 0 l 465 58 q 375 3 428 23 q 262 -17 323 -17 q 109 33 161 -17 q 56 168 56 83 q 99 286 56 237 q 225 360 143 335 q 422 386 308 386 l 470 386 q 429 507 463 471 q 323 543 394 543 q 231 520 279 543 q 142 454 182 496 l 62 557 q 194 641 123 612 q 332 669 264 669 m 313 102 q 422 145 382 102 q 470 282 462 189 l 439 282 q 264 256 319 282 q 210 175 210 231 q 237 119 210 137 q 313 102 264 102 m 157 713 l 98 766 l 313 968 l 355 968 l 570 766 l 510 713 l 334 869 l 157 713 m 505 929 l 359 1125 l 453 1193 l 564 964 l 505 929 z "},"ẩ":{"ha":694,"x_min":56,"x_max":671,"o":"m 332 669 q 537 606 460 669 q 614 395 614 542 l 614 0 l 465 0 l 465 58 q 375 3 428 23 q 262 -17 323 -17 q 109 33 161 -17 q 56 168 56 83 q 99 286 56 237 q 225 360 143 335 q 422 386 308 386 l 470 386 q 429 507 463 471 q 323 543 394 543 q 231 520 279 543 q 142 454 182 496 l 62 557 q 194 641 123 612 q 332 669 264 669 m 313 102 q 422 145 382 102 q 470 282 462 189 l 439 282 q 264 256 319 282 q 210 175 210 231 q 237 119 210 137 q 313 102 264 102 m 157 713 l 98 766 l 313 968 l 355 968 l 570 766 l 510 713 l 334 869 l 157 713 m 671 1040 q 663 997 671 1015 q 642 967 654 979 q 610 941 630 956 q 585 921 593 929 q 577 901 577 912 l 577 878 l 482 878 l 482 916 q 493 943 482 930 q 527 973 504 955 q 564 1007 551 992 q 577 1040 577 1022 q 563 1074 577 1063 q 528 1086 549 1086 q 477 1069 502 1086 q 439 1025 452 1053 l 389 1104 q 452 1152 415 1136 q 527 1168 488 1168 q 599 1152 566 1168 q 652 1107 632 1137 q 671 1040 671 1078 z "},"ẫ":{"ha":694,"x_min":56,"x_max":614,"o":"m 332 669 q 537 606 460 669 q 614 395 614 542 l 614 0 l 465 0 l 465 58 q 375 3 428 23 q 262 -17 323 -17 q 109 33 161 -17 q 56 168 56 83 q 99 286 56 237 q 225 360 143 335 q 422 386 308 386 l 470 386 q 429 507 463 471 q 323 543 394 543 q 231 520 279 543 q 142 454 182 496 l 62 557 q 194 641 123 612 q 332 669 264 669 m 313 102 q 422 145 382 102 q 470 282 462 189 l 439 282 q 264 256 319 282 q 210 175 210 231 q 237 119 210 137 q 313 102 264 102 m 157 713 l 98 766 l 313 968 l 355 968 l 570 766 l 510 713 l 334 869 l 157 713 m 551 1090 q 506 1010 534 1035 q 448 986 478 986 q 384 1001 411 986 q 327 1043 357 1016 q 290 1072 304 1063 q 259 1081 275 1081 q 213 1061 231 1081 q 189 999 195 1040 l 115 1017 q 164 1122 126 1086 q 258 1158 202 1158 q 314 1144 290 1158 q 366 1105 338 1131 q 400 1078 387 1087 q 429 1069 414 1069 q 463 1086 449 1069 q 483 1129 477 1103 l 551 1090 z "},"ȁ":{"ha":694,"x_min":56,"x_max":614,"o":"m 332 669 q 537 606 460 669 q 614 395 614 542 l 614 0 l 465 0 l 465 58 q 375 3 428 23 q 262 -17 323 -17 q 109 33 161 -17 q 56 168 56 83 q 99 286 56 237 q 225 360 143 335 q 422 386 308 386 l 470 386 q 429 507 463 471 q 323 543 394 543 q 231 520 279 543 q 142 454 182 496 l 62 557 q 194 641 123 612 q 332 669 264 669 m 313 102 q 422 145 382 102 q 470 282 462 189 l 439 282 q 264 256 319 282 q 210 175 210 231 q 237 119 210 137 q 313 102 264 102 m 256 718 l 110 914 l 204 982 l 315 753 l 256 718 m 478 718 l 332 914 l 427 982 l 538 753 l 478 718 z "},"ä":{"ha":694,"x_min":56,"x_max":614,"o":"m 332 669 q 537 606 460 669 q 614 395 614 542 l 614 0 l 465 0 l 465 58 q 375 3 428 23 q 262 -17 323 -17 q 109 33 161 -17 q 56 168 56 83 q 99 286 56 237 q 225 360 143 335 q 422 386 308 386 l 470 386 q 429 507 463 471 q 323 543 394 543 q 231 520 279 543 q 142 454 182 496 l 62 557 q 194 641 123 612 q 332 669 264 669 m 313 102 q 422 145 382 102 q 470 282 462 189 l 439 282 q 264 256 319 282 q 210 175 210 231 q 237 119 210 137 q 313 102 264 102 m 206 761 q 158 773 180 761 q 123 806 136 785 q 110 850 110 826 q 123 895 110 873 q 158 928 136 916 q 206 940 180 940 q 253 928 231 940 q 289 896 275 917 q 303 850 303 876 q 290 806 303 826 q 254 773 277 785 q 206 761 232 761 m 461 761 q 413 773 435 761 q 378 805 391 785 q 366 850 366 825 q 378 895 366 874 q 413 928 391 916 q 461 940 435 940 q 507 928 485 940 q 544 896 530 917 q 557 850 557 876 q 545 806 557 826 q 509 773 532 785 q 461 761 487 761 z "},"ạ":{"ha":694,"x_min":56,"x_max":614,"o":"m 332 669 q 537 606 460 669 q 614 395 614 542 l 614 0 l 465 0 l 465 58 q 375 3 428 23 q 262 -17 323 -17 q 109 33 161 -17 q 56 168 56 83 q 99 286 56 237 q 225 360 143 335 q 422 386 308 386 l 470 386 q 429 507 463 471 q 323 543 394 543 q 231 520 279 543 q 142 454 182 496 l 62 557 q 194 641 123 612 q 332 669 264 669 m 313 102 q 422 145 382 102 q 470 282 462 189 l 439 282 q 264 256 319 282 q 210 175 210 231 q 237 119 210 137 q 313 102 264 102 m 356 -250 q 295 -225 320 -250 q 271 -164 271 -200 q 282 -122 271 -142 q 313 -92 294 -103 q 356 -81 333 -81 q 398 -92 378 -81 q 428 -122 417 -103 q 439 -164 439 -142 q 428 -208 439 -188 q 398 -238 417 -227 q 356 -250 378 -250 z "},"à":{"ha":694,"x_min":56,"x_max":614,"o":"m 332 669 q 537 606 460 669 q 614 395 614 542 l 614 0 l 465 0 l 465 58 q 375 3 428 23 q 262 -17 323 -17 q 109 33 161 -17 q 56 168 56 83 q 99 286 56 237 q 225 360 143 335 q 422 386 308 386 l 470 386 q 429 507 463 471 q 323 543 394 543 q 231 520 279 543 q 142 454 182 496 l 62 557 q 194 641 123 612 q 332 669 264 669 m 313 102 q 422 145 382 102 q 470 282 462 189 l 439 282 q 264 256 319 282 q 210 175 210 231 q 237 119 210 137 q 313 102 264 102 m 327 718 l 181 914 l 275 982 l 387 753 l 327 718 z "},"ả":{"ha":694,"x_min":56,"x_max":614,"o":"m 332 669 q 537 606 460 669 q 614 395 614 542 l 614 0 l 465 0 l 465 58 q 375 3 428 23 q 262 -17 323 -17 q 109 33 161 -17 q 56 168 56 83 q 99 286 56 237 q 225 360 143 335 q 422 386 308 386 l 470 386 q 429 507 463 471 q 323 543 394 543 q 231 520 279 543 q 142 454 182 496 l 62 557 q 194 641 123 612 q 332 669 264 669 m 313 102 q 422 145 382 102 q 470 282 462 189 l 439 282 q 264 256 319 282 q 210 175 210 231 q 237 119 210 137 q 313 102 264 102 m 482 886 q 473 843 482 861 q 453 813 465 825 q 421 787 441 802 q 396 767 404 775 q 388 747 388 758 l 388 724 l 293 724 l 293 762 q 304 789 293 777 q 338 819 315 801 q 375 853 362 838 q 388 886 388 868 q 374 920 388 909 q 339 932 360 932 q 288 916 313 932 q 250 871 262 899 l 200 950 q 262 998 226 982 q 338 1014 299 1014 q 410 998 377 1014 q 463 954 443 983 q 482 886 482 924 z "},"ȃ":{"ha":694,"x_min":56,"x_max":614,"o":"m 332 669 q 537 606 460 669 q 614 395 614 542 l 614 0 l 465 0 l 465 58 q 375 3 428 23 q 262 -17 323 -17 q 109 33 161 -17 q 56 168 56 83 q 99 286 56 237 q 225 360 143 335 q 422 386 308 386 l 470 386 q 429 507 463 471 q 323 543 394 543 q 231 520 279 543 q 142 454 182 496 l 62 557 q 194 641 123 612 q 332 669 264 669 m 313 102 q 422 145 382 102 q 470 282 462 189 l 439 282 q 264 256 319 282 q 210 175 210 231 q 237 119 210 137 q 313 102 264 102 m 446 728 q 398 806 425 781 q 334 830 372 830 q 269 806 296 830 q 221 728 241 781 l 124 772 q 212 882 158 844 q 334 920 265 920 q 456 882 402 920 q 544 772 510 844 l 446 728 z "},"ā":{"ha":694,"x_min":56,"x_max":614,"o":"m 332 669 q 537 606 460 669 q 614 395 614 542 l 614 0 l 465 0 l 465 58 q 375 3 428 23 q 262 -17 323 -17 q 109 33 161 -17 q 56 168 56 83 q 99 286 56 237 q 225 360 143 335 q 422 386 308 386 l 470 386 q 429 507 463 471 q 323 543 394 543 q 231 520 279 543 q 142 454 182 496 l 62 557 q 194 641 123 612 q 332 669 264 669 m 313 102 q 422 145 382 102 q 470 282 462 189 l 439 282 q 264 256 319 282 q 210 175 210 231 q 237 119 210 137 q 313 102 264 102 m 139 775 l 139 864 l 528 864 l 528 775 l 139 775 z "},"ą":{"ha":694,"x_min":56,"x_max":614,"o":"m 574 -37 q 518 -92 530 -78 q 505 -119 505 -106 q 511 -136 505 -130 q 526 -142 516 -142 q 559 -131 543 -142 q 614 -87 576 -121 l 614 -208 q 556 -242 585 -231 q 496 -253 528 -253 q 400 -225 433 -253 q 368 -151 368 -198 q 389 -84 368 -117 q 465 0 409 -51 l 465 58 q 375 3 428 23 q 262 -17 323 -17 q 109 33 161 -17 q 56 168 56 83 q 99 286 56 237 q 225 360 143 335 q 422 386 308 386 l 470 386 q 429 507 463 471 q 323 543 394 543 q 231 520 279 543 q 142 454 182 496 l 62 557 q 194 641 123 612 q 332 669 264 669 q 537 606 460 669 q 614 395 614 542 l 614 0 l 574 -37 m 313 102 q 422 145 382 102 q 470 282 462 189 l 439 282 q 264 256 319 282 q 210 175 210 231 q 237 119 210 137 q 313 102 264 102 z "},"å":{"ha":694,"x_min":56,"x_max":614,"o":"m 332 669 q 537 606 460 669 q 614 395 614 542 l 614 0 l 465 0 l 465 58 q 375 3 428 23 q 262 -17 323 -17 q 109 33 161 -17 q 56 168 56 83 q 99 286 56 237 q 225 360 143 335 q 422 386 308 386 l 470 386 q 429 507 463 471 q 323 543 394 543 q 231 520 279 543 q 142 454 182 496 l 62 557 q 194 641 123 612 q 332 669 264 669 m 313 102 q 422 145 382 102 q 470 282 462 189 l 439 282 q 264 256 319 282 q 210 175 210 231 q 237 119 210 137 q 313 102 264 102 m 332 711 q 261 730 294 711 q 209 781 228 749 q 189 850 189 812 q 209 919 189 887 q 261 969 228 950 q 332 987 294 987 q 405 969 372 987 q 458 919 438 950 q 478 850 478 887 q 458 781 478 812 q 405 730 438 749 q 332 711 372 711 m 334 800 q 366 815 353 800 q 378 851 378 829 q 366 888 378 873 q 334 904 353 904 q 302 888 315 904 q 289 851 289 873 q 302 815 289 829 q 334 800 315 800 z "},"ǻ":{"ha":694,"x_min":56,"x_max":614,"o":"m 332 669 q 537 606 460 669 q 614 395 614 542 l 614 0 l 465 0 l 465 58 q 375 3 428 23 q 262 -17 323 -17 q 109 33 161 -17 q 56 168 56 83 q 99 286 56 237 q 225 360 143 335 q 422 386 308 386 l 470 386 q 429 507 463 471 q 323 543 394 543 q 231 520 279 543 q 142 454 182 496 l 62 557 q 194 641 123 612 q 332 669 264 669 m 313 102 q 422 145 382 102 q 470 282 462 189 l 439 282 q 264 256 319 282 q 210 175 210 231 q 237 119 210 137 q 313 102 264 102 m 332 711 q 261 730 294 711 q 209 781 228 749 q 189 850 189 812 q 209 919 189 887 q 261 969 228 950 q 332 987 294 987 q 405 969 372 987 q 458 919 438 950 q 478 850 478 887 q 458 781 478 812 q 405 730 438 749 q 332 711 372 711 m 334 800 q 366 815 353 800 q 378 851 378 829 q 366 888 378 873 q 334 904 353 904 q 302 888 315 904 q 289 851 289 873 q 302 815 289 829 q 334 800 315 800 m 299 1057 l 239 1092 l 351 1321 l 445 1253 l 299 1057 z "},"ã":{"ha":694,"x_min":56,"x_max":614,"o":"m 332 669 q 537 606 460 669 q 614 395 614 542 l 614 0 l 465 0 l 465 58 q 375 3 428 23 q 262 -17 323 -17 q 109 33 161 -17 q 56 168 56 83 q 99 286 56 237 q 225 360 143 335 q 422 386 308 386 l 470 386 q 429 507 463 471 q 323 543 394 543 q 231 520 279 543 q 142 454 182 496 l 62 557 q 194 641 123 612 q 332 669 264 669 m 313 102 q 422 145 382 102 q 470 282 462 189 l 439 282 q 264 256 319 282 q 210 175 210 231 q 237 119 210 137 q 313 102 264 102 m 570 885 q 509 803 544 832 q 434 774 475 774 q 383 786 404 774 q 333 821 361 798 q 295 850 311 841 q 259 860 279 860 q 211 845 229 860 q 177 791 193 829 l 91 827 q 155 921 113 889 q 254 953 197 953 q 310 940 286 953 q 362 904 334 928 q 398 878 384 886 q 429 869 412 869 q 458 883 446 869 q 487 928 471 897 l 570 885 z "},"æ":{"ha":694,"x_min":3,"x_max":694,"o":"m 203 -17 q 102 6 147 -17 q 30 73 56 28 q 3 179 3 117 q 37 296 3 245 q 135 376 72 347 q 283 408 199 406 q 262 512 283 475 q 203 550 241 550 q 100 473 146 550 l 24 571 q 106 638 58 616 q 210 661 153 661 q 293 638 250 661 q 359 582 336 614 q 418 639 382 616 q 490 661 453 661 q 638 586 589 661 q 686 376 686 511 l 686 309 l 411 297 l 411 248 q 441 138 411 180 q 521 97 471 97 q 618 168 576 97 l 694 74 q 612 6 658 30 q 514 -17 566 -17 q 426 5 467 -17 q 355 68 385 28 q 290 6 332 30 q 203 -17 248 -17 m 575 416 q 564 489 575 459 q 534 535 553 519 q 494 550 516 550 q 450 531 469 550 q 421 481 431 513 q 411 412 411 450 l 575 416 m 205 102 q 259 119 242 102 q 282 175 277 136 q 288 292 288 214 q 173 257 209 288 q 138 179 138 227 q 157 121 138 141 q 205 102 176 102 z "},"ǽ":{"ha":694,"x_min":3,"x_max":694,"o":"m 203 -17 q 102 6 147 -17 q 30 73 56 28 q 3 179 3 117 q 37 296 3 245 q 135 376 72 347 q 283 408 199 406 q 262 512 283 475 q 203 550 241 550 q 100 473 146 550 l 24 571 q 106 638 58 616 q 210 661 153 661 q 293 638 250 661 q 359 582 336 614 q 418 639 382 616 q 490 661 453 661 q 638 586 589 661 q 686 376 686 511 l 686 309 l 411 297 l 411 248 q 441 138 411 180 q 521 97 471 97 q 618 168 576 97 l 694 74 q 612 6 658 30 q 514 -17 566 -17 q 426 5 467 -17 q 355 68 385 28 q 290 6 332 30 q 203 -17 248 -17 m 575 416 q 564 489 575 459 q 534 535 553 519 q 494 550 516 550 q 450 531 469 550 q 421 481 431 513 q 411 412 411 450 l 575 416 m 205 102 q 259 119 242 102 q 282 175 277 136 q 288 292 288 214 q 173 257 209 288 q 138 179 138 227 q 157 121 138 141 q 205 102 176 102 m 354 718 l 294 753 l 406 982 l 500 914 l 354 718 z "},"b":{"ha":694,"x_min":69,"x_max":648,"o":"m 370 -21 q 275 1 320 -21 q 199 62 231 22 l 178 0 l 69 0 l 69 937 l 236 937 l 236 922 q 227 904 229 913 q 225 871 224 894 l 225 593 q 295 644 255 626 q 375 663 334 663 q 512 626 450 663 q 611 515 574 589 q 648 338 648 442 q 609 142 648 224 q 505 20 569 61 q 370 -21 441 -21 m 350 109 q 417 130 385 109 q 470 197 449 151 q 492 317 492 244 q 455 476 492 416 q 346 536 418 536 q 250 481 277 536 q 224 332 224 426 q 256 162 224 215 q 350 109 289 109 z "},"ʘ":{"ha":694,"x_min":24,"x_max":679,"o":"m 351 -25 q 175 30 249 -25 q 63 188 102 84 q 24 435 24 291 q 63 678 24 576 q 175 834 102 780 q 351 888 249 888 q 527 834 454 888 q 640 678 601 780 q 679 435 679 576 q 640 188 679 291 q 527 30 601 84 q 351 -25 454 -25 m 351 100 q 440 142 403 100 q 498 262 478 184 q 518 443 518 340 q 498 611 518 538 q 440 723 478 683 q 351 762 403 762 q 262 723 300 762 q 204 611 224 683 q 184 443 184 538 q 204 262 184 340 q 262 142 224 184 q 351 100 300 100 m 349 372 q 298 392 319 372 q 277 440 277 412 q 297 489 277 470 q 349 509 317 509 q 400 488 378 509 q 422 440 422 468 q 400 392 422 413 q 349 372 378 372 z "},"c":{"ha":694,"x_min":53,"x_max":642,"o":"m 380 111 q 467 132 425 111 q 546 197 509 152 l 636 93 q 518 6 584 34 q 380 -22 453 -22 q 211 22 286 -22 q 95 143 136 66 q 53 318 53 221 q 95 493 53 414 q 211 617 136 572 q 382 663 286 663 q 532 630 462 663 q 642 538 602 597 l 555 436 l 554 435 q 553 435 553 435 q 553 435 553 435 q 484 509 525 485 q 382 533 444 533 q 295 506 334 533 q 234 429 256 479 q 211 315 211 380 q 232 208 211 254 q 292 136 254 161 q 380 111 331 111 m 535 437 q 536 439 535 439 q 550 430 541 439 l 547 427 l 535 437 l 535 437 m 554 435 q 558 425 558 427 q 557 425 558 425 q 550 430 555 425 l 554 435 z "},"ć":{"ha":694,"x_min":53,"x_max":642,"o":"m 380 111 q 467 132 425 111 q 546 197 509 152 l 636 93 q 518 6 584 34 q 380 -22 453 -22 q 211 22 286 -22 q 95 143 136 66 q 53 318 53 221 q 95 493 53 414 q 211 617 136 572 q 382 663 286 663 q 532 630 462 663 q 642 538 602 597 l 555 436 l 554 435 q 553 435 553 435 q 553 435 553 435 q 484 509 525 485 q 382 533 444 533 q 295 506 334 533 q 234 429 256 479 q 211 315 211 380 q 232 208 211 254 q 292 136 254 161 q 380 111 331 111 m 535 437 q 536 439 535 439 q 550 430 541 439 l 547 427 l 535 437 l 535 437 m 554 435 q 558 425 558 427 q 557 425 558 425 q 550 430 555 425 l 554 435 m 340 718 l 281 753 l 392 982 l 486 914 l 340 718 z "},"č":{"ha":694,"x_min":53,"x_max":642,"o":"m 380 111 q 467 132 425 111 q 546 197 509 152 l 636 93 q 518 6 584 34 q 380 -22 453 -22 q 211 22 286 -22 q 95 143 136 66 q 53 318 53 221 q 95 493 53 414 q 211 617 136 572 q 382 663 286 663 q 532 630 462 663 q 642 538 602 597 l 555 436 l 554 435 q 553 435 553 435 q 553 435 553 435 q 484 509 525 485 q 382 533 444 533 q 295 506 334 533 q 234 429 256 479 q 211 315 211 380 q 232 208 211 254 q 292 136 254 161 q 380 111 331 111 m 535 437 q 536 439 535 439 q 550 430 541 439 l 547 427 l 535 437 l 535 437 m 554 435 q 558 425 558 427 q 557 425 558 425 q 550 430 555 425 l 554 435 m 195 965 l 371 808 l 547 965 l 607 911 l 392 710 l 350 710 l 135 911 l 195 965 z "},"ç":{"ha":694,"x_min":53,"x_max":642,"o":"m 380 111 q 467 132 425 111 q 546 197 509 152 l 636 93 q 447 -16 558 5 l 443 -43 q 523 -74 495 -48 q 551 -142 551 -100 q 531 -209 551 -176 q 471 -263 511 -242 q 374 -285 431 -285 q 199 -207 277 -285 l 250 -117 q 322 -174 290 -158 q 391 -191 354 -191 q 438 -181 422 -191 q 454 -154 454 -171 q 439 -131 454 -138 q 389 -123 425 -123 l 321 -123 l 335 -20 q 188 37 252 -9 q 88 156 123 83 q 53 318 53 229 q 95 493 53 414 q 211 617 136 572 q 382 663 286 663 q 532 630 462 663 q 642 538 602 597 l 555 436 l 554 435 q 553 435 553 435 q 553 435 553 435 q 484 509 525 485 q 382 533 444 533 q 295 506 334 533 q 234 429 256 479 q 211 315 211 380 q 232 208 211 254 q 292 136 254 161 q 380 111 331 111 m 535 437 q 536 439 535 439 q 550 430 541 439 l 547 427 l 535 437 l 535 437 m 554 435 q 558 425 558 427 q 557 425 558 425 q 550 430 555 425 l 554 435 z "},"ḉ":{"ha":694,"x_min":53,"x_max":642,"o":"m 486 914 l 340 718 l 281 753 l 392 982 l 486 914 m 380 111 q 467 132 425 111 q 546 197 509 152 l 636 93 q 447 -16 558 5 l 443 -43 q 523 -74 495 -48 q 551 -142 551 -100 q 531 -209 551 -176 q 471 -263 511 -242 q 374 -285 431 -285 q 199 -207 277 -285 l 250 -117 q 322 -174 290 -158 q 391 -191 354 -191 q 438 -181 422 -191 q 454 -154 454 -171 q 439 -131 454 -138 q 389 -123 425 -123 l 321 -123 l 335 -20 q 188 37 252 -9 q 88 156 123 83 q 53 318 53 229 q 95 493 53 414 q 211 617 136 572 q 382 663 286 663 q 532 630 462 663 q 642 538 602 597 l 555 436 l 554 435 q 553 435 553 435 q 553 435 553 435 q 484 509 525 485 q 382 533 444 533 q 295 506 334 533 q 234 429 256 479 q 211 315 211 380 q 232 208 211 254 q 292 136 254 161 q 380 111 331 111 m 535 437 q 536 439 535 439 q 550 430 541 439 l 547 427 l 535 437 l 535 437 m 554 435 q 558 425 558 427 q 557 425 558 425 q 550 430 555 425 l 554 435 z "},"ĉ":{"ha":694,"x_min":53,"x_max":642,"o":"m 380 111 q 467 132 425 111 q 546 197 509 152 l 636 93 q 518 6 584 34 q 380 -22 453 -22 q 211 22 286 -22 q 95 143 136 66 q 53 318 53 221 q 95 493 53 414 q 211 617 136 572 q 382 663 286 663 q 532 630 462 663 q 642 538 602 597 l 555 436 l 554 435 q 553 435 553 435 q 553 435 553 435 q 484 509 525 485 q 382 533 444 533 q 295 506 334 533 q 234 429 256 479 q 211 315 211 380 q 232 208 211 254 q 292 136 254 161 q 380 111 331 111 m 535 437 q 536 439 535 439 q 550 430 541 439 l 547 427 l 535 437 l 535 437 m 554 435 q 558 425 558 427 q 557 425 558 425 q 550 430 555 425 l 554 435 m 199 713 l 139 766 l 354 968 l 396 968 l 611 766 l 551 713 l 375 869 l 199 713 z "},"ċ":{"ha":694,"x_min":53,"x_max":642,"o":"m 380 111 q 467 132 425 111 q 546 197 509 152 l 636 93 q 518 6 584 34 q 380 -22 453 -22 q 211 22 286 -22 q 95 143 136 66 q 53 318 53 221 q 95 493 53 414 q 211 617 136 572 q 382 663 286 663 q 532 630 462 663 q 642 538 602 597 l 555 436 l 554 435 q 553 435 553 435 q 553 435 553 435 q 484 509 525 485 q 382 533 444 533 q 295 506 334 533 q 234 429 256 479 q 211 315 211 380 q 232 208 211 254 q 292 136 254 161 q 380 111 331 111 m 535 437 q 536 439 535 439 q 550 430 541 439 l 547 427 l 535 437 l 535 437 m 554 435 q 558 425 558 427 q 557 425 558 425 q 550 430 555 425 l 554 435 m 375 761 q 326 773 349 761 q 291 807 304 786 q 278 852 278 828 q 305 919 278 892 q 375 945 332 945 q 423 932 400 945 q 459 898 446 920 q 473 852 473 877 q 459 807 473 828 q 423 773 446 786 q 375 761 400 761 z "},"d":{"ha":694,"x_min":41,"x_max":637,"o":"m 318 -21 q 178 17 241 -21 q 78 130 115 54 q 41 314 41 205 q 79 499 41 420 q 180 621 117 578 q 317 663 243 663 q 397 644 355 663 q 467 597 439 626 l 467 937 l 636 937 l 636 922 q 627 904 629 913 q 625 871 625 894 l 623 78 q 625 36 623 54 q 637 0 628 18 l 486 0 q 475 33 477 18 q 473 78 473 49 q 409 4 453 29 q 318 -21 365 -21 m 340 109 q 468 332 468 109 q 441 481 468 425 q 345 536 414 536 q 235 475 271 536 q 199 317 199 414 q 220 197 199 244 q 274 130 241 151 q 340 109 306 109 z "},"ð":{"ha":694,"x_min":52,"x_max":653,"o":"m 354 -22 q 199 21 269 -22 q 91 140 130 64 q 52 310 52 216 q 88 481 52 402 q 189 607 124 560 q 336 654 254 654 q 408 641 370 654 q 471 603 446 627 q 434 672 452 641 q 386 737 416 703 l 214 689 l 172 799 l 288 828 q 154 913 231 871 l 321 950 q 429 869 385 909 l 589 911 l 628 807 l 517 778 q 653 349 653 598 q 619 154 653 237 q 518 24 585 71 q 354 -22 451 -22 m 358 109 q 429 132 398 109 q 477 204 459 156 q 494 322 494 252 q 475 437 494 392 q 425 504 456 483 q 355 525 393 525 q 282 501 315 525 q 232 432 250 477 q 214 322 214 386 q 231 212 214 260 q 282 136 249 163 q 358 109 315 109 z "},"ď":{"ha":694,"x_min":14,"x_max":694,"o":"m 628 939 q 677 920 659 939 q 694 873 694 901 q 686 836 694 856 l 599 636 l 533 671 l 550 721 q 558 766 558 745 q 554 802 558 777 q 549 850 549 830 q 571 915 549 891 q 628 939 593 939 m 235 -21 q 123 17 173 -21 q 43 130 73 54 q 14 314 14 205 q 44 499 14 420 q 124 620 74 578 q 233 663 175 663 q 300 645 269 663 q 355 597 332 628 l 355 937 l 503 937 q 496 914 503 929 q 489 891 492 902 q 486 863 486 880 l 484 78 q 496 0 484 50 l 376 0 q 366 17 369 5 q 363 40 363 28 l 363 60 q 311 0 345 22 q 235 -21 277 -21 m 257 109 q 357 332 357 109 q 336 481 357 425 q 261 536 315 536 q 173 478 203 536 q 143 317 143 420 q 160 197 143 243 q 203 130 177 151 q 257 109 229 109 z "},"đ":{"ha":694,"x_min":41,"x_max":693,"o":"m 625 734 l 623 78 q 625 36 623 54 q 637 0 628 18 l 486 0 q 475 33 477 18 q 473 78 473 49 q 409 4 453 29 q 318 -21 365 -21 q 178 17 241 -21 q 78 130 115 54 q 41 314 41 205 q 79 499 41 420 q 180 621 117 578 q 317 663 243 663 q 397 644 355 663 q 467 597 439 626 l 467 734 l 311 734 l 311 832 l 467 832 l 467 937 l 636 937 l 636 922 q 627 904 629 913 q 625 871 625 894 l 625 832 l 693 832 l 693 734 l 625 734 m 340 109 q 468 332 468 109 q 441 481 468 425 q 345 536 414 536 q 235 475 271 536 q 199 317 199 414 q 220 197 199 244 q 274 130 241 151 q 340 109 306 109 z "},"ḍ":{"ha":694,"x_min":41,"x_max":637,"o":"m 318 -21 q 178 17 241 -21 q 78 130 115 54 q 41 314 41 205 q 79 499 41 420 q 180 621 117 578 q 317 663 243 663 q 397 644 355 663 q 467 597 439 626 l 467 937 l 636 937 l 636 922 q 627 904 629 913 q 625 871 625 894 l 623 78 q 625 36 623 54 q 637 0 628 18 l 486 0 q 475 33 477 18 q 473 78 473 49 q 409 4 453 29 q 318 -21 365 -21 m 340 109 q 468 332 468 109 q 441 481 468 425 q 345 536 414 536 q 235 475 271 536 q 199 317 199 414 q 220 197 199 244 q 274 130 241 151 q 340 109 306 109 m 356 -250 q 295 -225 320 -250 q 271 -164 271 -200 q 282 -122 271 -142 q 313 -92 294 -103 q 356 -81 333 -81 q 398 -92 378 -81 q 428 -122 417 -103 q 439 -164 439 -142 q 428 -208 439 -188 q 398 -238 417 -227 q 356 -250 378 -250 z "},"ḏ":{"ha":694,"x_min":41,"x_max":637,"o":"m 318 -21 q 178 17 241 -21 q 78 130 115 54 q 41 314 41 205 q 79 499 41 420 q 180 621 117 578 q 317 663 243 663 q 397 644 355 663 q 467 597 439 626 l 467 937 l 636 937 l 636 922 q 627 904 629 913 q 625 871 625 894 l 623 78 q 625 36 623 54 q 637 0 628 18 l 486 0 q 475 33 477 18 q 473 78 473 49 q 409 4 453 29 q 318 -21 365 -21 m 340 109 q 468 332 468 109 q 441 481 468 425 q 345 536 414 536 q 235 475 271 536 q 199 317 199 414 q 220 197 199 244 q 274 130 241 151 q 340 109 306 109 m 153 -225 l 153 -136 l 542 -136 l 542 -225 l 153 -225 z "},"e":{"ha":694,"x_min":52,"x_max":635,"o":"m 375 -22 q 208 18 281 -22 q 93 135 135 59 q 52 315 52 212 q 91 499 52 420 q 200 620 130 578 q 358 663 270 663 q 499 626 436 663 q 598 518 562 590 q 635 346 635 447 q 632 300 635 330 l 631 281 l 205 281 q 261 147 216 192 q 370 102 307 102 q 460 122 414 102 q 534 180 505 143 l 621 94 q 375 -22 522 -22 m 479 395 q 464 470 479 435 q 418 525 448 505 q 350 546 389 546 q 256 505 293 546 q 211 395 218 464 l 479 395 z "},"é":{"ha":694,"x_min":52,"x_max":635,"o":"m 375 -22 q 208 18 281 -22 q 93 135 135 59 q 52 315 52 212 q 91 499 52 420 q 200 620 130 578 q 358 663 270 663 q 499 626 436 663 q 598 518 562 590 q 635 346 635 447 q 632 300 635 330 l 631 281 l 205 281 q 261 147 216 192 q 370 102 307 102 q 460 122 414 102 q 534 180 505 143 l 621 94 q 375 -22 522 -22 m 479 395 q 464 470 479 435 q 418 525 448 505 q 350 546 389 546 q 256 505 293 546 q 211 395 218 464 l 479 395 m 323 718 l 264 753 l 375 982 l 469 914 l 323 718 z "},"ĕ":{"ha":694,"x_min":52,"x_max":635,"o":"m 375 -22 q 208 18 281 -22 q 93 135 135 59 q 52 315 52 212 q 91 499 52 420 q 200 620 130 578 q 358 663 270 663 q 499 626 436 663 q 598 518 562 590 q 635 346 635 447 q 632 300 635 330 l 631 281 l 205 281 q 261 147 216 192 q 370 102 307 102 q 460 122 414 102 q 534 180 505 143 l 621 94 q 375 -22 522 -22 m 479 395 q 464 470 479 435 q 418 525 448 505 q 350 546 389 546 q 256 505 293 546 q 211 395 218 464 l 479 395 m 568 884 q 480 774 534 812 q 358 736 427 736 q 236 774 290 736 q 149 884 182 812 l 245 928 q 293 850 266 874 q 358 825 321 825 q 423 850 396 825 q 471 928 450 874 l 568 884 z "},"ě":{"ha":694,"x_min":52,"x_max":635,"o":"m 375 -22 q 208 18 281 -22 q 93 135 135 59 q 52 315 52 212 q 91 499 52 420 q 200 620 130 578 q 358 663 270 663 q 499 626 436 663 q 598 518 562 590 q 635 346 635 447 q 632 300 635 330 l 631 281 l 205 281 q 261 147 216 192 q 370 102 307 102 q 460 122 414 102 q 534 180 505 143 l 621 94 q 375 -22 522 -22 m 479 395 q 464 470 479 435 q 418 525 448 505 q 350 546 389 546 q 256 505 293 546 q 211 395 218 464 l 479 395 m 178 965 l 354 808 l 530 965 l 590 911 l 375 710 l 333 710 l 118 911 l 178 965 z "},"ḝ":{"ha":694,"x_min":52,"x_max":635,"o":"m 358 736 q 236 774 290 736 q 149 884 182 812 l 245 928 q 293 850 266 874 q 358 825 321 825 q 423 850 396 825 q 471 928 450 874 l 568 884 q 480 774 534 812 q 358 736 427 736 m 635 346 q 632 300 635 330 l 631 281 l 205 281 q 261 147 216 192 q 370 102 307 102 q 460 122 414 102 q 534 180 505 143 l 621 94 q 432 -18 541 1 l 429 -43 q 509 -74 481 -48 q 537 -142 537 -100 q 517 -209 537 -176 q 457 -263 497 -242 q 359 -285 416 -285 q 184 -207 262 -285 l 236 -117 q 308 -174 275 -158 q 376 -191 340 -191 q 424 -181 408 -191 q 440 -154 440 -171 q 425 -131 440 -138 q 374 -123 410 -123 l 307 -123 l 321 -19 q 181 36 241 -7 q 86 150 120 79 q 52 315 52 222 q 91 499 52 420 q 200 620 130 578 q 358 663 270 663 q 499 626 436 663 q 598 518 562 590 q 635 346 635 447 m 479 395 q 464 470 479 435 q 418 525 448 505 q 350 546 389 546 q 256 505 293 546 q 211 395 218 464 l 479 395 z "},"ê":{"ha":694,"x_min":52,"x_max":635,"o":"m 375 -22 q 208 18 281 -22 q 93 135 135 59 q 52 315 52 212 q 91 499 52 420 q 200 620 130 578 q 358 663 270 663 q 499 626 436 663 q 598 518 562 590 q 635 346 635 447 q 632 300 635 330 l 631 281 l 205 281 q 261 147 216 192 q 370 102 307 102 q 460 122 414 102 q 534 180 505 143 l 621 94 q 375 -22 522 -22 m 479 395 q 464 470 479 435 q 418 525 448 505 q 350 546 389 546 q 256 505 293 546 q 211 395 218 464 l 479 395 m 182 713 l 122 766 l 337 968 l 379 968 l 594 766 l 534 713 l 358 869 l 182 713 z "},"ế":{"ha":694,"x_min":52,"x_max":707,"o":"m 375 -22 q 208 18 281 -22 q 93 135 135 59 q 52 315 52 212 q 91 499 52 420 q 200 620 130 578 q 358 663 270 663 q 499 626 436 663 q 598 518 562 590 q 635 346 635 447 q 632 300 635 330 l 631 281 l 205 281 q 261 147 216 192 q 370 102 307 102 q 460 122 414 102 q 534 180 505 143 l 621 94 q 375 -22 522 -22 m 479 395 q 464 470 479 435 q 418 525 448 505 q 350 546 389 546 q 256 505 293 546 q 211 395 218 464 l 479 395 m 182 713 l 122 766 l 337 968 l 379 968 l 594 766 l 534 713 l 358 869 l 182 713 m 561 893 l 501 928 l 612 1157 l 707 1089 l 561 893 z "},"ệ":{"ha":694,"x_min":52,"x_max":635,"o":"m 375 -22 q 208 18 281 -22 q 93 135 135 59 q 52 315 52 212 q 91 499 52 420 q 200 620 130 578 q 358 663 270 663 q 499 626 436 663 q 598 518 562 590 q 635 346 635 447 q 632 300 635 330 l 631 281 l 205 281 q 261 147 216 192 q 370 102 307 102 q 460 122 414 102 q 534 180 505 143 l 621 94 q 375 -22 522 -22 m 479 395 q 464 470 479 435 q 418 525 448 505 q 350 546 389 546 q 256 505 293 546 q 211 395 218 464 l 479 395 m 370 -250 q 309 -225 334 -250 q 284 -164 284 -200 q 296 -122 284 -142 q 327 -92 307 -103 q 370 -81 347 -81 q 411 -92 392 -81 q 442 -122 431 -103 q 453 -164 453 -142 q 442 -208 453 -188 q 411 -238 431 -227 q 370 -250 392 -250 m 182 713 l 122 766 l 337 968 l 379 968 l 594 766 l 534 713 l 358 869 l 182 713 z "},"ề":{"ha":694,"x_min":52,"x_max":635,"o":"m 375 -22 q 208 18 281 -22 q 93 135 135 59 q 52 315 52 212 q 91 499 52 420 q 200 620 130 578 q 358 663 270 663 q 499 626 436 663 q 598 518 562 590 q 635 346 635 447 q 632 300 635 330 l 631 281 l 205 281 q 261 147 216 192 q 370 102 307 102 q 460 122 414 102 q 534 180 505 143 l 621 94 q 375 -22 522 -22 m 479 395 q 464 470 479 435 q 418 525 448 505 q 350 546 389 546 q 256 505 293 546 q 211 395 218 464 l 479 395 m 182 713 l 122 766 l 337 968 l 379 968 l 594 766 l 534 713 l 358 869 l 182 713 m 529 929 l 383 1125 l 477 1193 l 589 964 l 529 929 z "},"ể":{"ha":694,"x_min":52,"x_max":696,"o":"m 375 -22 q 208 18 281 -22 q 93 135 135 59 q 52 315 52 212 q 91 499 52 420 q 200 620 130 578 q 358 663 270 663 q 499 626 436 663 q 598 518 562 590 q 635 346 635 447 q 632 300 635 330 l 631 281 l 205 281 q 261 147 216 192 q 370 102 307 102 q 460 122 414 102 q 534 180 505 143 l 621 94 q 375 -22 522 -22 m 479 395 q 464 470 479 435 q 418 525 448 505 q 350 546 389 546 q 256 505 293 546 q 211 395 218 464 l 479 395 m 182 713 l 122 766 l 337 968 l 379 968 l 594 766 l 534 713 l 358 869 l 182 713 m 696 1040 q 687 997 696 1015 q 666 967 678 979 q 635 941 654 956 q 610 921 618 929 q 602 901 602 912 l 602 878 l 507 878 l 507 916 q 517 943 507 930 q 551 973 528 955 q 589 1007 576 992 q 602 1040 602 1022 q 588 1074 602 1063 q 553 1086 574 1086 q 501 1069 526 1086 q 464 1025 476 1053 l 414 1104 q 476 1152 439 1136 q 551 1168 513 1168 q 624 1152 591 1168 q 676 1107 656 1137 q 696 1040 696 1078 z "},"ễ":{"ha":694,"x_min":52,"x_max":635,"o":"m 375 -22 q 208 18 281 -22 q 93 135 135 59 q 52 315 52 212 q 91 499 52 420 q 200 620 130 578 q 358 663 270 663 q 499 626 436 663 q 598 518 562 590 q 635 346 635 447 q 632 300 635 330 l 631 281 l 205 281 q 261 147 216 192 q 370 102 307 102 q 460 122 414 102 q 534 180 505 143 l 621 94 q 375 -22 522 -22 m 479 395 q 464 470 479 435 q 418 525 448 505 q 350 546 389 546 q 256 505 293 546 q 211 395 218 464 l 479 395 m 182 713 l 122 766 l 337 968 l 379 968 l 594 766 l 534 713 l 358 869 l 182 713 m 575 1090 q 531 1010 559 1035 q 473 986 503 986 q 409 1001 435 986 q 351 1043 382 1016 q 314 1072 329 1063 q 283 1081 300 1081 q 237 1061 256 1081 q 213 999 219 1040 l 139 1017 q 189 1122 151 1086 q 282 1158 227 1158 q 338 1144 315 1158 q 391 1105 362 1131 q 425 1078 411 1087 q 453 1069 438 1069 q 488 1086 473 1069 q 507 1129 502 1103 l 575 1090 z "},"ȅ":{"ha":694,"x_min":52,"x_max":635,"o":"m 375 -22 q 208 18 281 -22 q 93 135 135 59 q 52 315 52 212 q 91 499 52 420 q 200 620 130 578 q 358 663 270 663 q 499 626 436 663 q 598 518 562 590 q 635 346 635 447 q 632 300 635 330 l 631 281 l 205 281 q 261 147 216 192 q 370 102 307 102 q 460 122 414 102 q 534 180 505 143 l 621 94 q 375 -22 522 -22 m 479 395 q 464 470 479 435 q 418 525 448 505 q 350 546 389 546 q 256 505 293 546 q 211 395 218 464 l 479 395 m 280 718 l 134 914 l 229 982 l 340 753 l 280 718 m 503 718 l 357 914 l 451 982 l 562 753 l 503 718 z "},"ë":{"ha":694,"x_min":52,"x_max":635,"o":"m 375 -22 q 208 18 281 -22 q 93 135 135 59 q 52 315 52 212 q 91 499 52 420 q 200 620 130 578 q 358 663 270 663 q 499 626 436 663 q 598 518 562 590 q 635 346 635 447 q 632 300 635 330 l 631 281 l 205 281 q 261 147 216 192 q 370 102 307 102 q 460 122 414 102 q 534 180 505 143 l 621 94 q 375 -22 522 -22 m 479 395 q 464 470 479 435 q 418 525 448 505 q 350 546 389 546 q 256 505 293 546 q 211 395 218 464 l 479 395 m 231 761 q 182 773 205 761 q 147 806 160 785 q 134 850 134 826 q 147 895 134 873 q 182 928 160 916 q 231 940 205 940 q 277 928 255 940 q 314 896 300 917 q 328 850 328 876 q 314 806 328 826 q 279 773 301 785 q 231 761 256 761 m 486 761 q 438 773 460 761 q 403 805 416 785 q 390 850 390 825 q 403 895 390 874 q 438 928 416 916 q 486 940 460 940 q 532 928 509 940 q 568 896 554 917 q 582 850 582 876 q 569 806 582 826 q 534 773 556 785 q 486 761 511 761 z "},"ė":{"ha":694,"x_min":52,"x_max":635,"o":"m 375 -22 q 208 18 281 -22 q 93 135 135 59 q 52 315 52 212 q 91 499 52 420 q 200 620 130 578 q 358 663 270 663 q 499 626 436 663 q 598 518 562 590 q 635 346 635 447 q 632 300 635 330 l 631 281 l 205 281 q 261 147 216 192 q 370 102 307 102 q 460 122 414 102 q 534 180 505 143 l 621 94 q 375 -22 522 -22 m 479 395 q 464 470 479 435 q 418 525 448 505 q 350 546 389 546 q 256 505 293 546 q 211 395 218 464 l 479 395 m 358 761 q 309 773 332 761 q 274 807 287 786 q 261 852 261 828 q 288 919 261 892 q 358 945 315 945 q 406 932 383 945 q 442 898 429 920 q 456 852 456 877 q 442 807 456 828 q 406 773 429 786 q 358 761 383 761 z "},"ẹ":{"ha":694,"x_min":52,"x_max":635,"o":"m 375 -22 q 208 18 281 -22 q 93 135 135 59 q 52 315 52 212 q 91 499 52 420 q 200 620 130 578 q 358 663 270 663 q 499 626 436 663 q 598 518 562 590 q 635 346 635 447 q 632 300 635 330 l 631 281 l 205 281 q 261 147 216 192 q 370 102 307 102 q 460 122 414 102 q 534 180 505 143 l 621 94 q 375 -22 522 -22 m 479 395 q 464 470 479 435 q 418 525 448 505 q 350 546 389 546 q 256 505 293 546 q 211 395 218 464 l 479 395 m 370 -250 q 309 -225 334 -250 q 284 -164 284 -200 q 296 -122 284 -142 q 327 -92 307 -103 q 370 -81 347 -81 q 411 -92 392 -81 q 442 -122 431 -103 q 453 -164 453 -142 q 442 -208 453 -188 q 411 -238 431 -227 q 370 -250 392 -250 z "},"è":{"ha":694,"x_min":52,"x_max":635,"o":"m 375 -22 q 208 18 281 -22 q 93 135 135 59 q 52 315 52 212 q 91 499 52 420 q 200 620 130 578 q 358 663 270 663 q 499 626 436 663 q 598 518 562 590 q 635 346 635 447 q 632 300 635 330 l 631 281 l 205 281 q 261 147 216 192 q 370 102 307 102 q 460 122 414 102 q 534 180 505 143 l 621 94 q 375 -22 522 -22 m 479 395 q 464 470 479 435 q 418 525 448 505 q 350 546 389 546 q 256 505 293 546 q 211 395 218 464 l 479 395 m 351 718 l 205 914 l 300 982 l 411 753 l 351 718 z "},"ẻ":{"ha":694,"x_min":52,"x_max":635,"o":"m 375 -22 q 208 18 281 -22 q 93 135 135 59 q 52 315 52 212 q 91 499 52 420 q 200 620 130 578 q 358 663 270 663 q 499 626 436 663 q 598 518 562 590 q 635 346 635 447 q 632 300 635 330 l 631 281 l 205 281 q 261 147 216 192 q 370 102 307 102 q 460 122 414 102 q 534 180 505 143 l 621 94 q 375 -22 522 -22 m 479 395 q 464 470 479 435 q 418 525 448 505 q 350 546 389 546 q 256 505 293 546 q 211 395 218 464 l 479 395 m 507 886 q 498 843 507 861 q 477 813 489 825 q 446 787 465 802 q 420 767 429 775 q 412 747 412 758 l 412 724 l 317 724 l 317 762 q 328 789 317 777 q 362 819 339 801 q 399 853 387 838 q 412 886 412 868 q 398 920 412 909 q 363 932 385 932 q 312 916 337 932 q 275 871 287 899 l 224 950 q 287 998 250 982 q 362 1014 323 1014 q 434 998 401 1014 q 487 954 467 983 q 507 886 507 924 z "},"ȇ":{"ha":694,"x_min":52,"x_max":635,"o":"m 375 -22 q 208 18 281 -22 q 93 135 135 59 q 52 315 52 212 q 91 499 52 420 q 200 620 130 578 q 358 663 270 663 q 499 626 436 663 q 598 518 562 590 q 635 346 635 447 q 632 300 635 330 l 631 281 l 205 281 q 261 147 216 192 q 370 102 307 102 q 460 122 414 102 q 534 180 505 143 l 621 94 q 375 -22 522 -22 m 479 395 q 464 470 479 435 q 418 525 448 505 q 350 546 389 546 q 256 505 293 546 q 211 395 218 464 l 479 395 m 471 728 q 423 806 450 781 q 358 830 396 830 q 293 806 321 830 q 245 728 266 781 l 149 772 q 236 882 182 844 q 358 920 290 920 q 480 882 427 920 q 568 772 534 844 l 471 728 z "},"ē":{"ha":694,"x_min":52,"x_max":635,"o":"m 375 -22 q 208 18 281 -22 q 93 135 135 59 q 52 315 52 212 q 91 499 52 420 q 200 620 130 578 q 358 663 270 663 q 499 626 436 663 q 598 518 562 590 q 635 346 635 447 q 632 300 635 330 l 631 281 l 205 281 q 261 147 216 192 q 370 102 307 102 q 460 122 414 102 q 534 180 505 143 l 621 94 q 375 -22 522 -22 m 479 395 q 464 470 479 435 q 418 525 448 505 q 350 546 389 546 q 256 505 293 546 q 211 395 218 464 l 479 395 m 163 775 l 163 864 l 553 864 l 553 775 l 163 775 z "},"ḗ":{"ha":694,"x_min":52,"x_max":635,"o":"m 375 -22 q 208 18 281 -22 q 93 135 135 59 q 52 315 52 212 q 91 499 52 420 q 200 620 130 578 q 358 663 270 663 q 499 626 436 663 q 598 518 562 590 q 635 346 635 447 q 632 300 635 330 l 631 281 l 205 281 q 261 147 216 192 q 370 102 307 102 q 460 122 414 102 q 534 180 505 143 l 621 94 q 375 -22 522 -22 m 479 395 q 464 470 479 435 q 418 525 448 505 q 350 546 389 546 q 256 505 293 546 q 211 395 218 464 l 479 395 m 163 775 l 163 864 l 553 864 l 553 775 l 163 775 m 323 921 l 264 956 l 375 1185 l 469 1117 l 323 921 z "},"ḕ":{"ha":694,"x_min":52,"x_max":635,"o":"m 375 -22 q 208 18 281 -22 q 93 135 135 59 q 52 315 52 212 q 91 499 52 420 q 200 620 130 578 q 358 663 270 663 q 499 626 436 663 q 598 518 562 590 q 635 346 635 447 q 632 300 635 330 l 631 281 l 205 281 q 261 147 216 192 q 370 102 307 102 q 460 122 414 102 q 534 180 505 143 l 621 94 q 375 -22 522 -22 m 479 395 q 464 470 479 435 q 418 525 448 505 q 350 546 389 546 q 256 505 293 546 q 211 395 218 464 l 479 395 m 163 775 l 163 864 l 553 864 l 553 775 l 163 775 m 351 921 l 205 1117 l 300 1185 l 411 956 l 351 921 z "},"ę":{"ha":694,"x_min":52,"x_max":635,"o":"m 635 346 q 632 300 635 330 l 631 281 l 205 281 q 261 147 216 192 q 370 102 307 102 q 460 122 414 102 q 534 180 505 143 l 621 94 q 494 0 565 28 l 614 0 l 574 -37 q 518 -92 530 -78 q 505 -119 505 -106 q 511 -136 505 -130 q 526 -142 516 -142 q 559 -131 543 -142 q 614 -87 576 -121 l 614 -208 q 556 -242 585 -231 q 496 -253 528 -253 q 400 -225 433 -253 q 368 -151 368 -198 q 386 -89 368 -119 q 450 -14 403 -58 q 375 -22 414 -22 q 208 18 281 -22 q 93 135 135 59 q 52 315 52 212 q 91 499 52 420 q 200 620 130 578 q 358 663 270 663 q 499 626 436 663 q 598 518 562 590 q 635 346 635 447 m 479 395 q 464 470 479 435 q 418 525 448 505 q 350 546 389 546 q 256 505 293 546 q 211 395 218 464 l 479 395 z "},"ʚ":{"ha":694,"x_min":40,"x_max":652,"o":"m 318 -24 q 165 2 228 -24 q 71 74 102 28 q 40 179 40 119 q 72 277 40 237 q 160 343 103 318 q 90 406 113 368 q 66 493 66 445 q 97 577 66 537 q 185 641 128 616 q 318 665 243 665 q 492 623 416 665 q 610 503 568 580 q 652 323 652 425 q 611 140 652 218 q 494 19 570 61 q 318 -24 418 -24 m 322 103 q 463 157 418 103 q 509 323 509 210 q 465 484 509 429 q 317 538 421 538 q 264 526 286 538 q 232 496 243 514 q 221 457 221 477 q 242 407 221 428 q 298 386 262 386 q 379 390 347 386 l 379 273 q 300 277 338 277 q 240 266 264 277 q 203 236 216 254 q 191 196 191 218 q 206 151 191 172 q 251 116 221 130 q 322 103 280 103 z "},"ẽ":{"ha":694,"x_min":52,"x_max":635,"o":"m 375 -22 q 208 18 281 -22 q 93 135 135 59 q 52 315 52 212 q 91 499 52 420 q 200 620 130 578 q 358 663 270 663 q 499 626 436 663 q 598 518 562 590 q 635 346 635 447 q 632 300 635 330 l 631 281 l 205 281 q 261 147 216 192 q 370 102 307 102 q 460 122 414 102 q 534 180 505 143 l 621 94 q 375 -22 522 -22 m 479 395 q 464 470 479 435 q 418 525 448 505 q 350 546 389 546 q 256 505 293 546 q 211 395 218 464 l 479 395 m 595 885 q 534 803 568 832 q 458 774 499 774 q 407 786 429 774 q 357 821 386 798 q 319 850 336 841 q 283 860 303 860 q 235 845 254 860 q 201 791 217 829 l 115 827 q 179 921 137 889 q 278 953 221 953 q 334 940 311 953 q 387 904 358 928 q 422 878 408 886 q 453 869 437 869 q 483 883 470 869 q 511 928 496 897 l 595 885 z "},"ə":{"ha":694,"x_min":60,"x_max":643,"o":"m 319 671 q 486 630 413 671 q 601 513 559 589 q 643 333 643 437 q 604 149 643 228 q 494 28 564 71 q 336 -14 425 -14 q 196 22 258 -14 q 96 130 133 58 q 60 302 60 201 q 62 349 60 319 l 64 368 l 489 368 q 433 502 479 456 q 325 547 388 547 q 235 526 280 547 q 160 468 189 505 l 74 554 q 319 671 172 671 m 215 254 q 231 178 215 213 q 276 123 247 144 q 345 102 306 102 q 439 143 401 102 q 484 254 476 184 l 215 254 z "},"ƹ":{"ha":694,"x_min":60,"x_max":623,"o":"m 623 -130 q 509 -215 572 -188 q 364 -243 446 -243 q 205 -207 274 -243 q 98 -111 136 -172 q 60 24 60 -50 q 90 156 60 98 q 174 254 119 215 q 304 309 229 293 l 86 534 l 86 649 l 570 649 l 570 514 l 275 514 l 458 320 l 458 195 q 272 155 328 199 q 216 33 216 112 q 237 -44 216 -13 q 294 -92 258 -76 q 374 -108 330 -108 q 447 -101 414 -108 q 498 -84 479 -94 q 523 -67 518 -75 q 551 -16 551 -20 q 551 -15 551 -15 q 547 -18 549 -16 q 542 -20 544 -20 q 538 -17 539 -20 l 546 -3 l 557 -9 l 623 -130 z "},"f":{"ha":694,"x_min":53,"x_max":676,"o":"m 613 760 l 612 758 l 612 759 q 540 811 569 798 q 473 825 511 825 q 377 787 410 825 q 345 675 345 749 l 345 648 l 543 648 l 543 525 l 345 525 l 345 0 l 193 0 l 193 525 l 53 525 l 53 648 l 193 648 l 193 673 q 229 822 193 760 q 326 917 265 884 q 461 949 387 949 q 676 859 586 949 l 613 760 m 593 759 q 595 761 593 761 q 610 755 597 761 l 606 749 l 593 758 l 593 759 m 612 758 q 620 750 620 751 q 610 755 620 750 l 612 758 z "},"g":{"ha":694,"x_min":72,"x_max":673,"o":"m 419 142 q 629 -25 629 142 q 596 -133 629 -84 q 493 -211 562 -182 q 323 -240 425 -240 q 135 -198 198 -240 q 72 -81 72 -156 q 91 -7 72 -42 q 147 50 111 27 q 87 150 87 84 q 107 217 87 188 q 163 270 127 245 q 105 347 126 302 q 85 441 85 392 q 117 558 85 505 q 203 642 149 611 q 322 673 258 673 q 401 660 363 673 q 470 623 439 647 q 548 653 505 642 q 635 665 591 665 q 657 664 650 665 l 673 546 q 605 553 642 553 q 535 545 564 553 q 559 441 559 496 q 528 326 559 379 q 441 241 496 272 q 322 210 387 210 q 226 230 273 210 q 214 212 218 220 q 211 193 211 204 q 258 155 211 168 q 419 142 305 142 m 322 547 q 273 533 296 547 q 237 494 250 519 q 224 441 224 470 q 237 389 224 413 q 273 351 250 365 q 322 336 296 336 q 372 350 349 336 q 408 389 395 364 q 421 441 421 413 q 408 494 421 470 q 372 533 395 519 q 322 547 349 547 m 345 -125 q 449 -103 411 -125 q 486 -45 486 -81 q 477 -11 486 -24 q 444 7 467 1 q 376 14 420 14 q 231 23 284 14 q 205 -9 213 7 q 197 -47 197 -25 q 236 -106 197 -87 q 345 -125 275 -125 z "},"ğ":{"ha":694,"x_min":72,"x_max":673,"o":"m 419 142 q 629 -25 629 142 q 596 -133 629 -84 q 493 -211 562 -182 q 323 -240 425 -240 q 135 -198 198 -240 q 72 -81 72 -156 q 91 -7 72 -42 q 147 50 111 27 q 87 150 87 84 q 107 217 87 188 q 163 270 127 245 q 105 347 126 302 q 85 441 85 392 q 117 558 85 505 q 203 642 149 611 q 322 673 258 673 q 401 660 363 673 q 470 623 439 647 q 548 653 505 642 q 635 665 591 665 q 657 664 650 665 l 673 546 q 605 553 642 553 q 535 545 564 553 q 559 441 559 496 q 528 326 559 379 q 441 241 496 272 q 322 210 387 210 q 226 230 273 210 q 214 212 218 220 q 211 193 211 204 q 258 155 211 168 q 419 142 305 142 m 322 547 q 273 533 296 547 q 237 494 250 519 q 224 441 224 470 q 237 389 224 413 q 273 351 250 365 q 322 336 296 336 q 372 350 349 336 q 408 389 395 364 q 421 441 421 413 q 408 494 421 470 q 372 533 395 519 q 322 547 349 547 m 345 -125 q 449 -103 411 -125 q 486 -45 486 -81 q 477 -11 486 -24 q 444 7 467 1 q 376 14 420 14 q 231 23 284 14 q 205 -9 213 7 q 197 -47 197 -25 q 236 -106 197 -87 q 345 -125 275 -125 m 359 720 q 245 748 303 720 q 130 835 186 776 l 215 937 q 282 864 243 888 q 363 839 321 839 q 443 862 404 839 q 516 937 482 885 l 583 838 q 478 751 538 782 q 359 720 418 720 z "},"ǧ":{"ha":694,"x_min":72,"x_max":673,"o":"m 419 142 q 629 -25 629 142 q 596 -133 629 -84 q 493 -211 562 -182 q 323 -240 425 -240 q 135 -198 198 -240 q 72 -81 72 -156 q 91 -7 72 -42 q 147 50 111 27 q 87 150 87 84 q 107 217 87 188 q 163 270 127 245 q 105 347 126 302 q 85 441 85 392 q 117 558 85 505 q 203 642 149 611 q 322 673 258 673 q 401 660 363 673 q 470 623 439 647 q 548 653 505 642 q 635 665 591 665 q 657 664 650 665 l 673 546 q 605 553 642 553 q 535 545 564 553 q 559 441 559 496 q 528 326 559 379 q 441 241 496 272 q 322 210 387 210 q 226 230 273 210 q 214 212 218 220 q 211 193 211 204 q 258 155 211 168 q 419 142 305 142 m 322 547 q 273 533 296 547 q 237 494 250 519 q 224 441 224 470 q 237 389 224 413 q 273 351 250 365 q 322 336 296 336 q 372 350 349 336 q 408 389 395 364 q 421 441 421 413 q 408 494 421 470 q 372 533 395 519 q 322 547 349 547 m 345 -125 q 449 -103 411 -125 q 486 -45 486 -81 q 477 -11 486 -24 q 444 7 467 1 q 376 14 420 14 q 231 23 284 14 q 205 -9 213 7 q 197 -47 197 -25 q 236 -106 197 -87 q 345 -125 275 -125 m 146 965 l 322 808 l 498 965 l 558 911 l 343 710 l 301 710 l 86 911 l 146 965 z "},"ĝ":{"ha":694,"x_min":72,"x_max":673,"o":"m 419 142 q 629 -25 629 142 q 596 -133 629 -84 q 493 -211 562 -182 q 323 -240 425 -240 q 135 -198 198 -240 q 72 -81 72 -156 q 91 -7 72 -42 q 147 50 111 27 q 87 150 87 84 q 107 217 87 188 q 163 270 127 245 q 105 347 126 302 q 85 441 85 392 q 117 558 85 505 q 203 642 149 611 q 322 673 258 673 q 401 660 363 673 q 470 623 439 647 q 548 653 505 642 q 635 665 591 665 q 657 664 650 665 l 673 546 q 605 553 642 553 q 535 545 564 553 q 559 441 559 496 q 528 326 559 379 q 441 241 496 272 q 322 210 387 210 q 226 230 273 210 q 214 212 218 220 q 211 193 211 204 q 258 155 211 168 q 419 142 305 142 m 322 547 q 273 533 296 547 q 237 494 250 519 q 224 441 224 470 q 237 389 224 413 q 273 351 250 365 q 322 336 296 336 q 372 350 349 336 q 408 389 395 364 q 421 441 421 413 q 408 494 421 470 q 372 533 395 519 q 322 547 349 547 m 345 -125 q 449 -103 411 -125 q 486 -45 486 -81 q 477 -11 486 -24 q 444 7 467 1 q 376 14 420 14 q 231 23 284 14 q 205 -9 213 7 q 197 -47 197 -25 q 236 -106 197 -87 q 345 -125 275 -125 m 150 713 l 90 766 l 305 968 l 347 968 l 562 766 l 503 713 l 326 869 l 150 713 z "},"ģ":{"ha":694,"x_min":72,"x_max":673,"o":"m 419 142 q 629 -25 629 142 q 596 -133 629 -84 q 493 -211 562 -182 q 323 -240 425 -240 q 135 -198 198 -240 q 72 -81 72 -156 q 91 -7 72 -42 q 147 50 111 27 q 87 150 87 84 q 107 217 87 188 q 163 270 127 245 q 105 347 126 302 q 85 441 85 392 q 117 558 85 505 q 203 642 149 611 q 322 673 258 673 q 401 660 363 673 q 470 623 439 647 q 548 653 505 642 q 635 665 591 665 q 657 664 650 665 l 673 546 q 605 553 642 553 q 535 545 564 553 q 559 441 559 496 q 528 326 559 379 q 441 241 496 272 q 322 210 387 210 q 226 230 273 210 q 214 212 218 220 q 211 193 211 204 q 258 155 211 168 q 419 142 305 142 m 322 547 q 273 533 296 547 q 237 494 250 519 q 224 441 224 470 q 237 389 224 413 q 273 351 250 365 q 322 336 296 336 q 372 350 349 336 q 408 389 395 364 q 421 441 421 413 q 408 494 421 470 q 372 533 395 519 q 322 547 349 547 m 345 -125 q 449 -103 411 -125 q 486 -45 486 -81 q 477 -11 486 -24 q 444 7 467 1 q 376 14 420 14 q 231 23 284 14 q 205 -9 213 7 q 197 -47 197 -25 q 236 -106 197 -87 q 345 -125 275 -125 m 448 1071 q 383 995 409 1034 q 357 935 357 956 q 363 922 357 928 q 381 903 369 915 q 412 869 401 885 q 424 835 424 854 q 411 785 424 808 q 374 750 398 763 q 319 737 350 737 q 264 754 290 737 q 221 800 237 770 q 205 865 205 829 q 246 988 205 920 q 370 1141 287 1057 l 448 1071 z "},"ġ":{"ha":694,"x_min":72,"x_max":673,"o":"m 419 142 q 629 -25 629 142 q 596 -133 629 -84 q 493 -211 562 -182 q 323 -240 425 -240 q 135 -198 198 -240 q 72 -81 72 -156 q 91 -7 72 -42 q 147 50 111 27 q 87 150 87 84 q 107 217 87 188 q 163 270 127 245 q 105 347 126 302 q 85 441 85 392 q 117 558 85 505 q 203 642 149 611 q 322 673 258 673 q 401 660 363 673 q 470 623 439 647 q 548 653 505 642 q 635 665 591 665 q 657 664 650 665 l 673 546 q 605 553 642 553 q 535 545 564 553 q 559 441 559 496 q 528 326 559 379 q 441 241 496 272 q 322 210 387 210 q 226 230 273 210 q 214 212 218 220 q 211 193 211 204 q 258 155 211 168 q 419 142 305 142 m 322 547 q 273 533 296 547 q 237 494 250 519 q 224 441 224 470 q 237 389 224 413 q 273 351 250 365 q 322 336 296 336 q 372 350 349 336 q 408 389 395 364 q 421 441 421 413 q 408 494 421 470 q 372 533 395 519 q 322 547 349 547 m 345 -125 q 449 -103 411 -125 q 486 -45 486 -81 q 477 -11 486 -24 q 444 7 467 1 q 376 14 420 14 q 231 23 284 14 q 205 -9 213 7 q 197 -47 197 -25 q 236 -106 197 -87 q 345 -125 275 -125 m 326 761 q 277 773 300 761 q 242 807 255 786 q 229 852 229 828 q 256 919 229 892 q 326 945 283 945 q 374 932 351 945 q 410 898 397 920 q 424 852 424 877 q 410 807 424 828 q 374 773 397 786 q 326 761 351 761 z "},"ḡ":{"ha":694,"x_min":72,"x_max":673,"o":"m 419 142 q 629 -25 629 142 q 596 -133 629 -84 q 493 -211 562 -182 q 323 -240 425 -240 q 135 -198 198 -240 q 72 -81 72 -156 q 91 -7 72 -42 q 147 50 111 27 q 87 150 87 84 q 107 217 87 188 q 163 270 127 245 q 105 347 126 302 q 85 441 85 392 q 117 558 85 505 q 203 642 149 611 q 322 673 258 673 q 401 660 363 673 q 470 623 439 647 q 548 653 505 642 q 635 665 591 665 q 657 664 650 665 l 673 546 q 605 553 642 553 q 535 545 564 553 q 559 441 559 496 q 528 326 559 379 q 441 241 496 272 q 322 210 387 210 q 226 230 273 210 q 214 212 218 220 q 211 193 211 204 q 258 155 211 168 q 419 142 305 142 m 322 547 q 273 533 296 547 q 237 494 250 519 q 224 441 224 470 q 237 389 224 413 q 273 351 250 365 q 322 336 296 336 q 372 350 349 336 q 408 389 395 364 q 421 441 421 413 q 408 494 421 470 q 372 533 395 519 q 322 547 349 547 m 345 -125 q 449 -103 411 -125 q 486 -45 486 -81 q 477 -11 486 -24 q 444 7 467 1 q 376 14 420 14 q 231 23 284 14 q 205 -9 213 7 q 197 -47 197 -25 q 236 -106 197 -87 q 345 -125 275 -125 m 132 775 l 132 864 l 521 864 l 521 775 l 132 775 z "},"h":{"ha":694,"x_min":83,"x_max":629,"o":"m 83 937 l 251 937 l 251 922 q 241 904 243 913 q 240 871 239 894 l 240 582 q 319 641 274 619 q 410 663 364 663 q 572 598 514 663 q 629 393 629 533 l 629 0 l 472 0 l 472 392 q 447 499 472 464 q 379 534 422 534 q 309 514 340 534 q 258 457 277 494 q 240 375 240 421 l 240 0 l 83 0 l 83 937 z "},"ħ":{"ha":694,"x_min":0,"x_max":629,"o":"m 410 663 q 572 598 514 663 q 629 393 629 533 l 629 0 l 472 0 l 472 392 q 447 499 472 464 q 379 534 422 534 q 309 514 340 534 q 258 457 277 494 q 240 375 240 421 l 240 0 l 83 0 l 83 720 l 0 720 l 0 819 l 83 819 l 83 937 l 251 937 l 251 922 q 241 904 243 913 q 240 871 239 894 l 240 819 l 382 819 l 382 720 l 240 720 l 240 582 q 319 641 274 619 q 410 663 364 663 z "},"ḫ":{"ha":694,"x_min":83,"x_max":629,"o":"m 83 937 l 251 937 l 251 922 q 241 904 243 913 q 240 871 239 894 l 240 582 q 319 641 274 619 q 410 663 364 663 q 572 598 514 663 q 629 393 629 533 l 629 0 l 472 0 l 472 392 q 447 499 472 464 q 379 534 422 534 q 309 514 340 534 q 258 457 277 494 q 240 375 240 421 l 240 0 l 83 0 l 83 937 m 571 -121 q 483 -231 537 -193 q 361 -269 429 -269 q 239 -231 292 -269 q 151 -121 185 -193 l 248 -77 q 296 -155 269 -130 q 361 -179 323 -179 q 426 -155 399 -179 q 473 -77 452 -130 l 571 -121 z "},"ĥ":{"ha":694,"x_min":-81,"x_max":629,"o":"m 83 937 l 251 937 l 251 922 q 241 904 243 913 q 240 871 239 894 l 240 582 q 319 641 274 619 q 410 663 364 663 q 572 598 514 663 q 629 393 629 533 l 629 0 l 472 0 l 472 392 q 447 499 472 464 q 379 534 422 534 q 309 514 340 534 q 258 457 277 494 q 240 375 240 421 l 240 0 l 83 0 l 83 937 m -32 973 l -81 1033 l 142 1183 l 185 1183 l 404 1036 l 352 973 l 164 1065 l -32 973 z "},"ḥ":{"ha":694,"x_min":83,"x_max":629,"o":"m 83 937 l 251 937 l 251 922 q 241 904 243 913 q 240 871 239 894 l 240 582 q 319 641 274 619 q 410 663 364 663 q 572 598 514 663 q 629 393 629 533 l 629 0 l 472 0 l 472 392 q 447 499 472 464 q 379 534 422 534 q 309 514 340 534 q 258 457 277 494 q 240 375 240 421 l 240 0 l 83 0 l 83 937 m 356 -250 q 295 -225 320 -250 q 271 -164 271 -200 q 282 -122 271 -142 q 313 -92 294 -103 q 356 -81 333 -81 q 398 -92 378 -81 q 428 -122 417 -103 q 439 -164 439 -142 q 428 -208 439 -188 q 398 -238 417 -227 q 356 -250 378 -250 z "},"i":{"ha":694,"x_min":123,"x_max":576,"o":"m 123 0 l 123 125 l 279 125 l 279 524 l 131 524 l 131 648 l 435 648 l 435 125 l 576 125 l 576 0 l 123 0 m 347 761 q 298 773 321 761 q 263 807 276 786 q 250 852 250 828 q 277 919 250 892 q 347 945 304 945 q 395 932 372 945 q 431 898 418 920 q 445 852 445 877 q 431 807 445 828 q 395 773 418 786 q 347 761 372 761 z "},"ı":{"ha":694,"x_min":123,"x_max":576,"o":"m 123 0 l 123 125 l 279 125 l 279 524 l 131 524 l 131 648 l 435 648 l 435 125 l 576 125 l 576 0 l 123 0 z "},"í":{"ha":694,"x_min":123,"x_max":576,"o":"m 123 0 l 123 125 l 279 125 l 279 524 l 131 524 l 131 648 l 435 648 l 435 125 l 576 125 l 576 0 l 123 0 m 343 718 l 283 753 l 395 982 l 489 914 l 343 718 z "},"ĭ":{"ha":694,"x_min":123,"x_max":576,"o":"m 123 0 l 123 125 l 279 125 l 279 524 l 131 524 l 131 648 l 435 648 l 435 125 l 576 125 l 576 0 l 123 0 m 557 884 q 470 774 524 812 q 347 736 416 736 q 225 774 279 736 q 138 884 172 812 l 235 928 q 282 850 255 874 q 347 825 310 825 q 412 850 385 825 q 460 928 439 874 l 557 884 z "},"î":{"ha":694,"x_min":117,"x_max":576,"o":"m 123 0 l 123 125 l 279 125 l 279 524 l 131 524 l 131 648 l 435 648 l 435 125 l 576 125 l 576 0 l 123 0 m 457 713 l 322 842 l 172 713 l 117 766 l 304 968 l 349 968 l 536 765 l 457 713 z "},"ȉ":{"ha":694,"x_min":123,"x_max":576,"o":"m 123 0 l 123 125 l 279 125 l 279 524 l 131 524 l 131 648 l 435 648 l 435 125 l 576 125 l 576 0 l 123 0 m 269 718 l 123 914 l 218 982 l 329 753 l 269 718 m 492 718 l 346 914 l 440 982 l 551 753 l 492 718 z "},"ï":{"ha":694,"x_min":114,"x_max":576,"o":"m 123 0 l 123 125 l 279 125 l 279 524 l 131 524 l 131 648 l 435 648 l 435 125 l 576 125 l 576 0 l 123 0 m 210 761 q 162 773 184 761 q 127 806 140 785 q 114 850 114 826 q 127 895 114 873 q 162 928 140 916 q 210 940 184 940 q 257 928 235 940 q 293 896 279 917 q 307 850 307 876 q 294 806 307 826 q 258 773 281 785 q 210 761 236 761 m 465 761 q 417 773 439 761 q 382 805 395 785 q 370 850 370 825 q 382 895 370 874 q 417 928 395 916 q 465 940 439 940 q 511 928 489 940 q 548 896 534 917 q 562 850 562 876 q 549 806 562 826 q 513 773 536 785 q 465 761 491 761 z "},"ḯ":{"ha":694,"x_min":123,"x_max":576,"o":"m 123 0 l 123 125 l 279 125 l 279 524 l 131 524 l 131 648 l 435 648 l 435 125 l 576 125 l 576 0 l 123 0 m 220 761 q 172 773 194 761 q 136 806 149 785 q 123 850 123 826 q 136 895 123 873 q 172 928 149 916 q 220 940 194 940 q 267 928 244 940 q 303 896 289 917 q 317 850 317 876 q 303 806 317 826 q 268 773 290 785 q 220 761 245 761 m 475 761 q 427 773 449 761 q 392 805 405 785 q 379 850 379 825 q 392 895 379 874 q 427 928 405 916 q 475 940 449 940 q 521 928 498 940 q 557 896 543 917 q 571 850 571 876 q 558 806 571 826 q 523 773 545 785 q 475 761 500 761 m 313 931 l 253 966 l 364 1195 l 458 1127 l 313 931 z "},"ị":{"ha":694,"x_min":123,"x_max":576,"o":"m 123 0 l 123 125 l 279 125 l 279 524 l 131 524 l 131 648 l 435 648 l 435 125 l 576 125 l 576 0 l 123 0 m 347 761 q 298 773 321 761 q 263 807 276 786 q 250 852 250 828 q 277 919 250 892 q 347 945 304 945 q 395 932 372 945 q 431 898 418 920 q 445 852 445 877 q 431 807 445 828 q 395 773 418 786 q 347 761 372 761 m 356 -250 q 295 -225 320 -250 q 271 -164 271 -200 q 282 -122 271 -142 q 313 -92 294 -103 q 356 -81 333 -81 q 398 -92 378 -81 q 428 -122 417 -103 q 439 -164 439 -142 q 428 -208 439 -188 q 398 -238 417 -227 q 356 -250 378 -250 z "},"ì":{"ha":694,"x_min":123,"x_max":576,"o":"m 123 0 l 123 125 l 279 125 l 279 524 l 131 524 l 131 648 l 435 648 l 435 125 l 576 125 l 576 0 l 123 0 m 318 718 l 172 914 l 285 991 l 396 764 l 318 718 z "},"ỉ":{"ha":694,"x_min":123,"x_max":576,"o":"m 123 0 l 123 125 l 279 125 l 279 524 l 131 524 l 131 648 l 435 648 l 435 125 l 576 125 l 576 0 l 123 0 m 496 886 q 487 843 496 861 q 466 813 478 825 q 435 787 454 802 q 410 767 418 775 q 401 747 401 758 l 401 724 l 307 724 l 307 762 q 317 789 307 777 q 351 819 328 801 q 389 853 376 838 q 401 886 401 868 q 388 920 401 909 q 353 932 374 932 q 301 916 326 932 q 264 871 276 899 l 214 950 q 276 998 239 982 q 351 1014 313 1014 q 424 998 391 1014 q 476 954 456 983 q 496 886 496 924 z "},"ȋ":{"ha":694,"x_min":123,"x_max":576,"o":"m 123 0 l 123 125 l 279 125 l 279 524 l 131 524 l 131 648 l 435 648 l 435 125 l 576 125 l 576 0 l 123 0 m 460 728 q 412 806 439 781 q 347 830 385 830 q 282 806 310 830 q 235 728 255 781 l 138 772 q 225 882 172 844 q 347 920 279 920 q 470 882 416 920 q 557 772 524 844 l 460 728 z "},"ī":{"ha":694,"x_min":123,"x_max":576,"o":"m 123 0 l 123 125 l 279 125 l 279 524 l 131 524 l 131 648 l 435 648 l 435 125 l 576 125 l 576 0 l 123 0 m 153 775 l 153 864 l 542 864 l 542 775 l 153 775 z "},"į":{"ha":694,"x_min":123,"x_max":576,"o":"m 347 761 q 298 773 321 761 q 263 807 276 786 q 250 852 250 828 q 277 919 250 892 q 347 945 304 945 q 395 932 372 945 q 431 898 418 920 q 445 852 445 877 q 431 807 445 828 q 395 773 418 786 q 347 761 372 761 m 576 0 q 482 -134 482 -79 q 506 -179 482 -160 q 575 -208 529 -198 l 513 -330 q 375 -266 422 -307 q 329 -175 329 -225 q 362 -87 329 -132 q 457 0 395 -41 l 123 0 l 123 125 l 279 125 l 279 524 l 131 524 l 131 648 l 435 648 l 435 125 l 576 125 l 576 0 z "},"ĩ":{"ha":694,"x_min":123,"x_max":576,"o":"m 123 0 l 123 125 l 279 125 l 279 524 l 131 524 l 131 648 l 435 648 l 435 125 l 576 125 l 576 0 l 123 0 m 566 871 q 522 791 550 815 q 464 766 494 766 q 400 781 427 766 q 342 823 373 796 q 306 852 320 843 q 275 861 291 861 q 229 841 247 861 q 204 779 210 821 l 130 798 q 180 902 142 866 q 273 939 218 939 q 330 925 306 939 q 382 886 353 911 q 416 859 402 867 q 444 850 429 850 q 479 866 465 850 q 498 909 493 883 l 566 871 z "},"j":{"ha":694,"x_min":36,"x_max":526,"o":"m 519 648 l 519 46 q 486 -120 519 -55 q 394 -215 452 -185 q 262 -245 336 -245 q 139 -219 195 -245 q 36 -140 84 -193 l 121 -29 l 122 -28 l 123 -30 q 262 -114 180 -114 q 337 -80 312 -114 q 363 26 363 -47 l 363 522 l 138 522 l 138 648 l 519 648 m 141 -30 q 140 -32 141 -32 q 125 -24 137 -32 l 129 -19 l 141 -28 l 141 -30 m 122 -28 q 119 -20 119 -23 q 119 -20 119 -20 q 119 -20 119 -20 q 122 -21 120 -20 q 125 -24 123 -22 l 122 -28 m 428 761 q 379 773 401 761 q 344 807 357 786 q 331 852 331 828 q 358 919 331 892 q 428 945 385 945 q 476 932 453 945 q 512 898 498 920 q 526 852 526 877 q 512 807 526 828 q 476 773 498 786 q 428 761 453 761 z "},"ȷ":{"ha":694,"x_min":36,"x_max":519,"o":"m 519 648 l 519 46 q 486 -120 519 -55 q 394 -215 452 -185 q 262 -245 336 -245 q 139 -219 195 -245 q 36 -140 84 -193 l 121 -29 l 122 -28 l 123 -30 q 262 -114 180 -114 q 337 -80 312 -114 q 363 26 363 -47 l 363 522 l 138 522 l 138 648 l 519 648 m 141 -30 q 140 -32 141 -32 q 125 -24 137 -32 l 129 -19 l 141 -28 l 141 -30 m 122 -28 q 119 -20 119 -23 q 119 -20 119 -20 q 119 -20 119 -20 q 122 -21 120 -20 q 125 -24 123 -22 l 122 -28 z "},"ĵ":{"ha":694,"x_min":36,"x_max":664,"o":"m 519 648 l 519 46 q 486 -120 519 -55 q 394 -215 452 -185 q 262 -245 336 -245 q 139 -219 195 -245 q 36 -140 84 -193 l 121 -29 l 122 -28 l 123 -30 q 262 -114 180 -114 q 337 -80 312 -114 q 363 26 363 -47 l 363 522 l 138 522 l 138 648 l 519 648 m 141 -30 q 140 -32 141 -32 q 125 -24 137 -32 l 129 -19 l 141 -28 l 141 -30 m 122 -28 q 119 -20 119 -23 q 119 -20 119 -20 q 119 -20 119 -20 q 122 -21 120 -20 q 125 -24 123 -22 l 122 -28 m 252 713 l 192 766 l 407 968 l 449 968 l 664 766 l 604 713 l 428 869 l 252 713 z "},"k":{"ha":694,"x_min":83,"x_max":697,"o":"m 293 293 l 240 243 l 240 0 l 83 0 l 83 937 l 251 937 l 251 922 q 241 904 243 913 q 240 871 239 894 l 240 410 l 489 656 q 568 644 538 644 l 669 644 l 404 389 l 697 1 l 507 -5 l 293 293 z "},"ķ":{"ha":694,"x_min":83,"x_max":697,"o":"m 293 293 l 240 243 l 240 0 l 83 0 l 83 937 l 251 937 l 251 922 q 241 904 243 913 q 240 871 239 894 l 240 410 l 489 656 q 568 644 538 644 l 669 644 l 404 389 l 697 1 l 507 -5 l 293 293 m 238 -361 q 296 -293 273 -328 q 319 -239 319 -258 q 314 -227 319 -233 q 298 -210 309 -221 q 270 -180 280 -194 q 260 -149 260 -166 q 286 -86 260 -112 q 354 -61 312 -61 q 404 -76 380 -61 q 442 -117 427 -91 q 456 -176 456 -144 q 309 -425 456 -274 l 238 -361 z "},"ĸ":{"ha":694,"x_min":83,"x_max":697,"o":"m 293 293 l 240 243 l 240 0 l 83 0 l 83 648 l 260 648 q 257 635 260 640 q 250 626 254 631 q 243 618 246 623 q 240 610 241 614 l 240 410 l 490 660 q 570 648 545 648 l 671 648 l 404 389 l 697 1 l 507 -5 l 293 293 z "},"l":{"ha":694,"x_min":93,"x_max":604,"o":"m 93 0 l 93 121 l 271 121 l 271 817 l 102 817 l 102 937 l 428 937 l 428 121 l 604 121 l 604 0 l 93 0 z "},"ĺ":{"ha":694,"x_min":93,"x_max":604,"o":"m 93 0 l 93 121 l 271 121 l 271 817 l 102 817 l 102 937 l 428 937 l 428 121 l 604 121 l 604 0 l 93 0 m 240 980 l 212 1030 l 425 1187 l 490 1067 l 240 980 z "},"ľ":{"ha":694,"x_min":93,"x_max":681,"o":"m 93 0 l 93 121 l 271 121 l 271 817 l 102 817 l 102 937 l 428 937 l 428 121 l 604 121 l 604 0 l 93 0 m 461 677 q 517 740 495 709 q 539 786 539 771 q 535 793 539 789 q 525 803 530 798 q 497 833 507 819 q 486 865 486 847 q 512 926 486 902 q 579 950 538 950 q 629 936 606 950 q 667 897 652 922 q 681 840 681 872 q 542 608 681 747 l 461 677 z "},"ļ":{"ha":694,"x_min":93,"x_max":604,"o":"m 93 0 l 93 121 l 271 121 l 271 817 l 102 817 l 102 937 l 428 937 l 428 121 l 604 121 l 604 0 l 93 0 m 238 -361 q 296 -293 273 -328 q 319 -239 319 -258 q 314 -227 319 -233 q 298 -210 309 -221 q 270 -180 280 -194 q 260 -149 260 -166 q 286 -86 260 -112 q 354 -61 312 -61 q 404 -76 380 -61 q 442 -117 427 -91 q 456 -176 456 -144 q 309 -425 456 -274 l 238 -361 z "},"ŀ":{"ha":694,"x_min":79,"x_max":663,"o":"m 79 0 l 79 121 l 229 121 l 229 817 l 87 817 l 87 937 l 385 937 l 385 121 l 590 121 l 590 0 l 79 0 m 553 364 q 499 377 524 364 q 460 413 475 390 q 446 463 446 435 q 461 512 446 489 q 501 548 476 534 q 553 561 526 561 q 606 547 581 561 q 647 510 631 533 q 663 463 663 487 q 648 413 663 436 q 608 377 633 391 q 553 364 583 364 z "},"ḷ":{"ha":694,"x_min":93,"x_max":604,"o":"m 93 0 l 93 121 l 271 121 l 271 817 l 102 817 l 102 937 l 428 937 l 428 121 l 604 121 l 604 0 l 93 0 m 356 -250 q 295 -225 320 -250 q 271 -164 271 -200 q 282 -122 271 -142 q 313 -92 294 -103 q 356 -81 333 -81 q 398 -92 378 -81 q 428 -122 417 -103 q 439 -164 439 -142 q 428 -208 439 -188 q 398 -238 417 -227 q 356 -250 378 -250 z "},"ǉ":{"ha":694,"x_min":35,"x_max":650,"o":"m 553 761 q 504 773 526 761 q 469 807 481 786 q 456 852 456 828 q 483 919 456 892 q 553 945 510 945 q 601 932 578 945 q 637 898 623 920 q 650 852 650 877 q 637 807 650 828 q 601 773 623 786 q 553 761 578 761 m 35 0 l 35 121 l 86 121 l 86 817 l 43 817 l 43 937 l 241 937 l 241 121 l 392 121 l 392 0 l 35 0 m 364 -245 q 204 -178 270 -245 l 300 -52 q 309 -58 307 -54 q 314 -69 311 -61 q 326 -96 319 -85 q 345 -110 336 -106 q 368 -114 353 -114 q 443 -79 414 -114 q 471 26 471 -45 l 471 522 l 329 522 l 329 648 l 628 648 l 628 32 q 594 -125 628 -62 q 500 -216 559 -187 q 364 -245 441 -245 z "},"ḻ":{"ha":694,"x_min":93,"x_max":604,"o":"m 93 0 l 93 121 l 271 121 l 271 817 l 102 817 l 102 937 l 428 937 l 428 121 l 604 121 l 604 0 l 93 0 m 153 -225 l 153 -136 l 542 -136 l 542 -225 l 153 -225 z "},"ł":{"ha":694,"x_min":93,"x_max":604,"o":"m 93 0 l 93 121 l 271 121 l 271 355 l 168 321 l 168 456 l 271 490 l 271 817 l 102 817 l 102 937 l 427 937 l 427 545 l 543 583 l 543 447 l 427 407 l 427 121 l 604 121 l 604 0 l 93 0 z "},"m":{"ha":694,"x_min":45,"x_max":664,"o":"m 45 656 l 178 656 l 178 615 q 230 661 201 646 q 292 676 260 676 q 355 658 325 676 q 403 599 385 640 q 458 657 428 638 q 534 676 489 676 q 635 628 606 676 q 664 479 664 581 l 664 0 l 519 0 l 519 453 q 510 531 519 507 q 478 554 500 554 q 425 427 425 554 l 425 0 l 282 0 l 282 446 q 271 531 282 508 q 241 554 260 554 q 199 527 214 554 q 184 431 184 499 l 184 0 l 45 0 l 45 656 z "},"ṃ":{"ha":694,"x_min":45,"x_max":664,"o":"m 45 656 l 178 656 l 178 615 q 230 661 201 646 q 292 676 260 676 q 355 658 325 676 q 403 599 385 640 q 458 657 428 638 q 534 676 489 676 q 635 628 606 676 q 664 479 664 581 l 664 0 l 519 0 l 519 453 q 510 531 519 507 q 478 554 500 554 q 425 427 425 554 l 425 0 l 282 0 l 282 446 q 271 531 282 508 q 241 554 260 554 q 199 527 214 554 q 184 431 184 499 l 184 0 l 45 0 l 45 656 m 356 -250 q 295 -225 320 -250 q 271 -164 271 -200 q 282 -122 271 -142 q 313 -92 294 -103 q 356 -81 333 -81 q 398 -92 378 -81 q 428 -122 417 -103 q 439 -164 439 -142 q 428 -208 439 -188 q 398 -238 417 -227 q 356 -250 378 -250 z "},"n":{"ha":694,"x_min":83,"x_max":628,"o":"m 83 648 l 240 648 l 240 582 q 322 641 275 620 q 425 663 370 663 q 573 597 517 663 q 628 393 628 532 l 628 0 l 472 0 l 472 392 q 445 500 472 465 q 366 534 418 534 q 303 521 332 534 q 257 481 275 508 q 240 416 240 455 l 240 0 l 83 0 l 83 648 z "},"ń":{"ha":694,"x_min":83,"x_max":628,"o":"m 83 648 l 240 648 l 240 582 q 322 641 275 620 q 425 663 370 663 q 573 597 517 663 q 628 393 628 532 l 628 0 l 472 0 l 472 392 q 445 500 472 465 q 366 534 418 534 q 303 521 332 534 q 257 481 275 508 q 240 416 240 455 l 240 0 l 83 0 l 83 648 m 326 718 l 267 753 l 378 982 l 472 914 l 326 718 z "},"ň":{"ha":694,"x_min":83,"x_max":628,"o":"m 83 648 l 240 648 l 240 582 q 322 641 275 620 q 425 663 370 663 q 573 597 517 663 q 628 393 628 532 l 628 0 l 472 0 l 472 392 q 445 500 472 465 q 366 534 418 534 q 303 521 332 534 q 257 481 275 508 q 240 416 240 455 l 240 0 l 83 0 l 83 648 m 180 965 l 357 808 l 533 965 l 593 911 l 378 710 l 336 710 l 121 911 l 180 965 z "},"ņ":{"ha":694,"x_min":83,"x_max":628,"o":"m 83 648 l 240 648 l 240 582 q 322 641 275 620 q 425 663 370 663 q 573 597 517 663 q 628 393 628 532 l 628 0 l 472 0 l 472 392 q 445 500 472 465 q 366 534 418 534 q 303 521 332 534 q 257 481 275 508 q 240 416 240 455 l 240 0 l 83 0 l 83 648 m 252 -361 q 310 -293 287 -328 q 333 -239 333 -258 q 328 -227 333 -233 q 311 -210 323 -221 q 283 -180 294 -194 q 273 -149 273 -166 q 299 -86 273 -112 q 368 -61 326 -61 q 417 -76 394 -61 q 455 -117 441 -91 q 470 -176 470 -144 q 322 -425 470 -274 l 252 -361 z "},"ṅ":{"ha":694,"x_min":83,"x_max":628,"o":"m 83 648 l 240 648 l 240 582 q 322 641 275 620 q 425 663 370 663 q 573 597 517 663 q 628 393 628 532 l 628 0 l 472 0 l 472 392 q 445 500 472 465 q 366 534 418 534 q 303 521 332 534 q 257 481 275 508 q 240 416 240 455 l 240 0 l 83 0 l 83 648 m 361 761 q 312 773 334 761 q 277 807 290 786 q 264 852 264 828 q 291 919 264 892 q 361 945 318 945 q 409 932 386 945 q 445 898 431 920 q 458 852 458 877 q 445 807 458 828 q 409 773 431 786 q 361 761 386 761 z "},"ṇ":{"ha":694,"x_min":83,"x_max":628,"o":"m 83 648 l 240 648 l 240 582 q 322 641 275 620 q 425 663 370 663 q 573 597 517 663 q 628 393 628 532 l 628 0 l 472 0 l 472 392 q 445 500 472 465 q 366 534 418 534 q 303 521 332 534 q 257 481 275 508 q 240 416 240 455 l 240 0 l 83 0 l 83 648 m 370 -250 q 309 -225 334 -250 q 284 -164 284 -200 q 296 -122 284 -142 q 327 -92 307 -103 q 370 -81 347 -81 q 411 -92 392 -81 q 442 -122 431 -103 q 453 -164 453 -142 q 442 -208 453 -188 q 411 -238 431 -227 q 370 -250 392 -250 z "},"ŋ":{"ha":694,"x_min":83,"x_max":625,"o":"m 378 -249 q 216 -186 298 -249 l 286 -50 q 300 -58 294 -52 q 315 -75 307 -64 q 342 -102 329 -92 q 380 -111 356 -111 q 472 60 472 -111 l 472 392 q 447 499 472 464 q 379 534 422 534 q 309 514 340 534 q 258 457 277 494 q 240 375 240 421 l 240 0 l 83 0 l 83 648 l 240 648 l 240 582 q 319 641 274 619 q 410 663 364 663 q 625 393 625 663 l 625 74 q 594 -108 625 -36 q 507 -215 562 -180 q 378 -249 451 -249 z "},"ṉ":{"ha":694,"x_min":83,"x_max":628,"o":"m 83 648 l 240 648 l 240 582 q 322 641 275 620 q 425 663 370 663 q 573 597 517 663 q 628 393 628 532 l 628 0 l 472 0 l 472 392 q 445 500 472 465 q 366 534 418 534 q 303 521 332 534 q 257 481 275 508 q 240 416 240 455 l 240 0 l 83 0 l 83 648 m 166 -225 l 166 -136 l 555 -136 l 555 -225 l 166 -225 z "},"ñ":{"ha":694,"x_min":83,"x_max":628,"o":"m 83 648 l 240 648 l 240 582 q 322 641 275 620 q 425 663 370 663 q 573 597 517 663 q 628 393 628 532 l 628 0 l 472 0 l 472 392 q 445 500 472 465 q 366 534 418 534 q 303 521 332 534 q 257 481 275 508 q 240 416 240 455 l 240 0 l 83 0 l 83 648 m 597 885 q 536 803 571 832 q 461 774 502 774 q 410 786 431 774 q 360 821 389 798 q 322 850 338 841 q 286 860 306 860 q 238 845 256 860 q 204 791 220 829 l 118 827 q 182 921 140 889 q 281 953 224 953 q 337 940 313 953 q 389 904 361 928 q 425 878 411 886 q 456 869 439 869 q 486 883 473 869 q 514 928 498 897 l 597 885 z "},"o":{"ha":694,"x_min":40,"x_max":657,"o":"m 349 -22 q 192 22 262 -22 q 81 144 121 66 q 40 323 40 223 q 81 495 40 418 q 194 618 123 573 q 349 663 264 663 q 504 618 433 663 q 616 495 574 573 q 657 323 657 418 q 616 144 657 223 q 505 22 576 66 q 349 -22 435 -22 m 349 103 q 429 131 395 103 q 481 208 463 158 q 500 323 500 258 q 481 438 500 390 q 429 512 463 486 q 349 538 395 538 q 271 512 304 538 q 219 438 237 486 q 200 323 200 389 q 218 207 200 257 q 269 130 236 157 q 349 103 302 103 z "},"ó":{"ha":694,"x_min":40,"x_max":657,"o":"m 349 -22 q 192 22 262 -22 q 81 144 121 66 q 40 323 40 223 q 81 495 40 418 q 194 618 123 573 q 349 663 264 663 q 504 618 433 663 q 616 495 574 573 q 657 323 657 418 q 616 144 657 223 q 505 22 576 66 q 349 -22 435 -22 m 349 103 q 429 131 395 103 q 481 208 463 158 q 500 323 500 258 q 481 438 500 390 q 429 512 463 486 q 349 538 395 538 q 271 512 304 538 q 219 438 237 486 q 200 323 200 389 q 218 207 200 257 q 269 130 236 157 q 349 103 302 103 m 314 718 l 254 753 l 366 982 l 460 914 l 314 718 z "},"ŏ":{"ha":694,"x_min":40,"x_max":657,"o":"m 349 -22 q 192 22 262 -22 q 81 144 121 66 q 40 323 40 223 q 81 495 40 418 q 194 618 123 573 q 349 663 264 663 q 504 618 433 663 q 616 495 574 573 q 657 323 657 418 q 616 144 657 223 q 505 22 576 66 q 349 -22 435 -22 m 349 103 q 429 131 395 103 q 481 208 463 158 q 500 323 500 258 q 481 438 500 390 q 429 512 463 486 q 349 538 395 538 q 271 512 304 538 q 219 438 237 486 q 200 323 200 389 q 218 207 200 257 q 269 130 236 157 q 349 103 302 103 m 559 884 q 471 774 525 812 q 349 736 417 736 q 227 774 280 736 q 139 884 173 812 l 236 928 q 284 850 256 874 q 349 825 311 825 q 413 850 387 825 q 461 928 440 874 l 559 884 z "},"ô":{"ha":694,"x_min":40,"x_max":657,"o":"m 349 -22 q 192 22 262 -22 q 81 144 121 66 q 40 323 40 223 q 81 495 40 418 q 194 618 123 573 q 349 663 264 663 q 504 618 433 663 q 616 495 574 573 q 657 323 657 418 q 616 144 657 223 q 505 22 576 66 q 349 -22 435 -22 m 349 103 q 429 131 395 103 q 481 208 463 158 q 500 323 500 258 q 481 438 500 390 q 429 512 463 486 q 349 538 395 538 q 271 512 304 538 q 219 438 237 486 q 200 323 200 389 q 218 207 200 257 q 269 130 236 157 q 349 103 302 103 m 172 713 l 113 766 l 328 968 l 370 968 l 585 766 l 525 713 l 349 869 l 172 713 z "},"ố":{"ha":694,"x_min":40,"x_max":697,"o":"m 349 -22 q 192 22 262 -22 q 81 144 121 66 q 40 323 40 223 q 81 495 40 418 q 194 618 123 573 q 349 663 264 663 q 504 618 433 663 q 616 495 574 573 q 657 323 657 418 q 616 144 657 223 q 505 22 576 66 q 349 -22 435 -22 m 349 103 q 429 131 395 103 q 481 208 463 158 q 500 323 500 258 q 481 438 500 390 q 429 512 463 486 q 349 538 395 538 q 271 512 304 538 q 219 438 237 486 q 200 323 200 389 q 218 207 200 257 q 269 130 236 157 q 349 103 302 103 m 172 713 l 113 766 l 328 968 l 370 968 l 585 766 l 525 713 l 349 869 l 172 713 m 551 893 l 492 928 l 603 1157 l 697 1089 l 551 893 z "}}}
